<svg width="1003" height="652" viewBox="0 0 1003 652" fill="none" xmlns="http://www.w3.org/2000/svg">
<path d="M705.23 326.674C760.673 372.824 669.745 428.881 637.342 426.437C604.94 423.994 556.819 423.998 539.135 358.744C521.451 293.491 481.833 337.708 431.988 279.46C382.144 221.212 462.002 161.478 508.162 138.892C547.635 108.933 662.582 101.443 644.251 191.718C625.919 281.993 649.786 280.523 705.23 326.674Z" fill="#F4B076" fill-opacity="0.2"/>
<path d="M227.121 622.48C196.912 665.524 132.392 612.697 128.811 590.85C125.23 569.002 116.767 537.045 170.154 516.502C223.541 495.958 178.292 475.611 219.96 434.654C261.628 393.698 327.385 438.676 355.055 466.285C387.934 488.459 414.627 563.784 333.244 563.784C251.862 563.784 257.331 579.437 227.121 622.48Z" fill="#27A2BB" fill-opacity="0.2"/>
<path d="M158.133 46.2227C136.683 1.56888 54.9722 23.2327 45.7463 39.7283C36.5203 56.224 19.595 79.2996 71.272 113.323C122.949 147.346 69.7856 149.037 103.938 195.741C138.091 242.445 219.171 227.53 255.442 214.234C295.904 207.031 342.97 154.838 256.428 128.293C169.886 101.747 179.583 90.8764 158.133 46.2227Z" fill="#FAB10C" fill-opacity="0.2"/>
<path d="M858.065 324.471C891.076 329.253 961.09 268.227 932.432 194.996C903.773 121.765 878.379 237.274 845.731 176.88C813.082 116.486 791.576 205.302 755.039 204.81C635.394 203.2 734.724 292.008 780.796 292.008C826.867 292.008 858.065 324.471 858.065 324.471Z" fill="#85BFCD" fill-opacity="0.2"/>
<path d="M828.901 434.17C807.451 389.517 725.74 411.18 716.514 427.676C707.288 444.172 690.363 467.247 742.04 501.27C793.717 535.293 740.553 536.985 774.706 583.689C808.859 630.393 889.939 615.478 926.21 602.182C966.672 594.979 1013.74 542.786 927.196 516.24C840.654 489.695 850.351 478.824 828.901 434.17Z" fill="#FAB10C" fill-opacity="0.2"/>
</svg>
