<svg width="451" height="10" viewBox="0 0 451 10" fill="none" xmlns="http://www.w3.org/2000/svg">
<mask id="mask0_216_133" style="mask-type:alpha" maskUnits="userSpaceOnUse" x="0" y="0" width="451" height="10">
<rect width="451" height="10" fill="#D9D9D9"/>
</mask>
<g mask="url(#mask0_216_133)">
<mask id="mask1_216_133" style="mask-type:alpha" maskUnits="userSpaceOnUse" x="229" y="0" width="265" height="42">
<rect x="229.676" y="41.75" width="41.75" height="263.978" transform="rotate(-90 229.676 41.75)" fill="#D9D9D9"/>
</mask>
<g mask="url(#mask1_216_133)">
<path d="M311.078 5.99353C332.543 12.1002 306.2 25.1428 295.305 25.8666C284.41 26.5905 268.474 28.3014 258.23 17.5094C247.985 6.71739 237.838 15.8643 217.414 7.44124C196.99 -0.981792 219.42 -14.2744 233.187 -19.8678C244.245 -26.5141 281.808 -31.9101 281.808 -15.4589C281.808 0.992354 289.614 -0.113168 311.078 5.99353Z" fill="#27A2BB"/>
<path d="M241.743 -16.4631C210.068 -23.3753 248.942 -38.1383 265.02 -38.9576C281.097 -39.7769 304.614 -41.7136 319.732 -29.498C334.849 -17.2825 349.823 -27.6359 379.962 -18.1018C410.102 -8.56771 377.003 6.47827 356.686 12.8095C340.368 20.3325 284.937 26.4403 284.937 7.81901C284.937 -10.8023 273.419 -9.55091 241.743 -16.4631Z" fill="#F4B076"/>
<path d="M486.847 5.23372C504.999 -1.55876 482.722 -16.066 473.508 -16.8711C464.295 -17.6762 450.818 -19.5793 442.155 -7.57537C433.491 4.42857 424.91 -5.7455 407.639 3.62344C390.367 12.9924 409.335 27.7777 420.977 33.9993C430.329 41.3919 462.094 47.3939 462.094 29.0952C462.094 10.7965 468.695 12.0262 486.847 5.23372Z" fill="#FAB10C"/>
<path d="M439.185 -1.09499C441.57 -7.76818 411.138 -21.9212 374.619 -16.128C338.101 -10.3348 395.702 -5.20156 365.585 1.3983C335.468 7.99816 379.759 12.3454 379.513 19.7312C378.71 43.9171 422.997 23.8378 422.997 14.5247C422.997 5.21156 439.185 -1.09499 439.185 -1.09499Z" fill="#85BFCD"/>
</g>
<mask id="mask2_216_133" style="mask-type:alpha" maskUnits="userSpaceOnUse" x="0" y="0" width="264" height="42">
<rect y="41.75" width="41.75" height="263.978" transform="rotate(-90 0 41.75)" fill="#D9D9D9"/>
</mask>
<g mask="url(#mask2_216_133)">
<path d="M81.4022 5.99352C102.867 12.1002 76.5239 25.1428 65.6289 25.8666C54.7339 26.5905 38.798 28.3014 28.5535 17.5094C18.3089 6.71738 8.16199 15.8643 -12.262 7.44123C-32.6861 -0.981796 -10.2565 -14.2744 3.51129 -19.8678C14.5689 -26.5141 52.1321 -31.9101 52.1321 -15.4589C52.1321 0.99235 59.9375 -0.113172 81.4022 5.99352Z" fill="#27A2BB"/>
<path d="M12.0673 -16.4632C-19.6079 -23.3754 19.2662 -38.1383 35.3438 -38.9577C51.4214 -39.777 74.9378 -41.7136 90.0556 -29.4981C105.173 -17.2825 120.147 -27.6359 150.286 -18.1018C180.426 -8.56776 147.327 6.47822 127.01 12.8095C110.692 20.3325 55.2608 26.4402 55.2608 7.81896C55.2608 -10.8023 43.7426 -9.55096 12.0673 -16.4632Z" fill="#F4B076"/>
<path d="M257.171 5.23366C275.323 -1.55881 253.045 -16.066 243.832 -16.8712C234.618 -17.6763 221.142 -19.5794 212.479 -7.57543C203.815 4.42852 195.234 -5.74555 177.962 3.62338C160.69 12.9923 179.658 27.7777 191.301 33.9992C200.652 41.3919 232.418 47.3939 232.418 29.0952C232.418 10.7965 239.019 12.0261 257.171 5.23366Z" fill="#FAB10C"/>
<path d="M209.509 -1.09506C211.894 -7.76825 181.461 -21.9213 144.943 -16.1281C108.424 -10.3349 166.026 -5.20163 135.909 1.39823C105.792 7.9981 150.082 12.3453 149.837 19.7312C149.034 43.917 193.321 23.8378 193.321 14.5246C193.321 5.21149 209.509 -1.09506 209.509 -1.09506Z" fill="#85BFCD"/>
</g>
</g>
</svg>
