<svg width="475" height="12" viewBox="0 0 475 12" fill="none" xmlns="http://www.w3.org/2000/svg">
<mask id="mask0_216_68" style="mask-type:alpha" maskUnits="userSpaceOnUse" x="0" y="0" width="475" height="12">
<rect width="475" height="11.0981" fill="#D9D9D9"/>
</mask>
<g mask="url(#mask0_216_68)">
<mask id="mask1_216_68" style="mask-type:alpha" maskUnits="userSpaceOnUse" x="241" y="0" width="279" height="47">
<rect x="241.898" y="46.3347" width="46.3347" height="278.026" transform="rotate(-90 241.898 46.3347)" fill="#D9D9D9"/>
</mask>
<g mask="url(#mask1_216_68)">
<path d="M327.632 6.65167C350.239 13.429 322.494 27.9037 311.02 28.7071C299.545 29.5104 282.761 31.4092 271.971 19.4321C261.182 7.45502 250.495 17.6063 228.984 8.25836C207.473 -1.08963 231.096 -15.8419 245.596 -22.0496C257.242 -29.4257 296.805 -35.4143 296.805 -17.1565C296.805 1.1013 305.025 -0.125623 327.632 6.65167Z" fill="#27A2BB"/>
<path d="M254.608 -18.271C221.247 -25.9422 262.19 -42.3263 279.123 -43.2356C296.056 -44.1449 320.824 -46.2942 336.746 -32.7372C352.668 -19.1803 368.439 -30.6706 400.182 -20.0896C431.926 -9.50853 397.065 7.1897 375.667 14.2162C358.481 22.5653 300.1 29.3438 300.1 8.67766C300.1 -11.9885 287.969 -10.5997 254.608 -18.271Z" fill="#F4B076"/>
<path d="M512.755 5.80846C531.873 -1.72991 508.41 -17.8302 498.706 -18.7238C489.002 -19.6173 474.809 -21.7294 465.684 -8.40723C456.56 4.91491 447.522 -6.37641 429.331 4.02135C411.14 14.4191 431.117 30.8281 443.38 37.7328C453.228 45.9373 486.685 52.5984 486.685 32.2903C486.685 11.9821 493.637 13.3468 512.755 5.80846Z" fill="#FAB10C"/>
<path d="M462.557 -1.21521C465.068 -8.6212 433.016 -24.3284 394.554 -17.8991C356.093 -11.4697 416.759 -5.77273 385.04 1.55188C353.32 8.87649 399.967 13.7011 399.709 21.898C398.863 48.7397 445.506 26.4556 445.506 16.1197C445.506 5.78388 462.557 -1.21521 462.557 -1.21521Z" fill="#85BFCD"/>
</g>
<mask id="mask2_216_68" style="mask-type:alpha" maskUnits="userSpaceOnUse" x="0" y="0" width="279" height="47">
<rect y="46.3347" width="46.3347" height="278.026" transform="rotate(-90 0 46.3347)" fill="#D9D9D9"/>
</mask>
<g mask="url(#mask2_216_68)">
<path d="M85.7342 6.65167C108.341 13.429 80.5962 27.9037 69.1215 28.7071C57.6467 29.5104 40.8627 31.4092 30.073 19.4321C19.2833 7.45501 8.59643 17.6063 -12.9145 8.25835C-34.4254 -1.08963 -10.8022 -15.8419 3.69824 -22.0496C15.3443 -29.4257 54.9064 -35.4143 54.9064 -17.1565C54.9064 1.1013 63.1272 -0.125625 85.7342 6.65167Z" fill="#27A2BB"/>
<path d="M12.7095 -18.271C-20.6513 -25.9423 20.2915 -42.3264 37.2246 -43.2357C54.1578 -44.145 78.9257 -46.2943 94.8479 -32.7373C110.77 -19.1803 126.541 -30.6707 158.284 -20.0896C190.027 -9.50858 155.167 7.18965 133.769 14.2161C116.583 22.5653 58.2016 29.3437 58.2016 8.67762C58.2015 -11.9885 46.0703 -10.5997 12.7095 -18.271Z" fill="#F4B076"/>
<path d="M270.856 5.80841C289.974 -1.72997 266.511 -17.8303 256.808 -18.7238C247.104 -19.6174 232.91 -21.7294 223.786 -8.40729C214.661 4.91485 205.624 -6.37647 187.433 4.02129C169.242 14.4191 189.219 30.828 201.481 37.7328C211.33 45.9373 244.786 52.5983 244.786 32.2902C244.786 11.9821 251.738 13.3468 270.856 5.80841Z" fill="#FAB10C"/>
<path d="M220.658 -1.21528C223.169 -8.62128 191.118 -24.3285 152.656 -17.8991C114.194 -11.4698 174.861 -5.77281 143.141 1.55181C111.421 8.87642 158.069 13.701 157.811 21.898C156.965 48.7397 203.608 26.4555 203.608 16.1197C203.608 5.78381 220.658 -1.21528 220.658 -1.21528Z" fill="#85BFCD"/>
</g>
</g>
</svg>
