<svg width="263" height="264" viewBox="0 0 263 264" fill="none" xmlns="http://www.w3.org/2000/svg">
<g id="enjoy-svg">
<path id="blue-circle" d="M209.724 119.455C187.936 89.3932 181.763 65.305 164.762 52.5589C116.195 18.0041 73.9462 30.0125 54.4362 66.2685C47.6688 72.9306 33.4009 113.872 36.4116 158.932C40.1749 215.257 157.136 214.514 179.716 205.181C202.296 195.849 231.512 149.517 209.724 119.455Z" stroke="#85BFCD" stroke-width="4"/>
<path id="orange-circle" d="M221.625 127.252C200.334 94.5096 194.302 68.274 177.688 54.3917C130.229 16.7564 88.9447 29.8353 69.8799 69.3235C63.2668 76.5795 49.3245 121.171 52.2665 170.248C55.944 231.594 170.237 230.785 192.302 220.62C214.367 210.456 242.916 159.994 221.625 127.252Z" stroke="#E8A56D" stroke-width="4"/>
<path id="enjoy! &#226;&#134;&#147;" d="M92.7652 128.914C90.0483 129.188 87.8614 128.658 86.2044 127.325C84.5452 125.97 83.5828 123.976 83.3171 121.344C83.1435 119.625 83.3214 118.096 83.8508 116.756C84.3803 115.416 85.1944 114.347 86.2932 113.55C87.4133 112.751 88.7374 112.274 90.2656 112.12C91.7939 111.966 93.16 112.117 94.364 112.574C95.5893 113.03 96.559 113.714 97.2731 114.629C98.0063 115.519 98.4318 116.549 98.5497 117.716C98.6032 118.247 98.5962 118.708 98.5287 119.101L98.4241 119.658C97.5307 119.942 96.5598 120.2 95.5114 120.435C93.3149 120.978 91.0811 121.365 88.8099 121.594C89.0585 124.056 89.576 125.784 90.3623 126.776C91.1466 127.748 92.133 128.173 93.3216 128.053C94.1494 127.97 94.8942 127.702 95.5561 127.249C96.237 126.773 96.747 126.196 97.086 125.519C97.4441 124.818 97.5888 124.128 97.5203 123.448L98.3162 123.368C98.4019 124.217 98.2287 125.049 97.7964 125.865C97.3641 126.68 96.7152 127.368 95.8497 127.927C94.982 128.465 93.9538 128.794 92.7652 128.914ZM88.7296 120.798C90.088 120.661 91.1864 120.496 92.0247 120.305C92.3834 120.247 92.7601 120.155 93.1548 120.03C93.1653 119.921 93.1948 119.683 93.2432 119.313C93.2958 118.772 93.2921 118.204 93.2321 117.61C93.0542 115.848 92.6911 114.587 92.1427 113.828C91.5922 113.047 90.9879 112.69 90.3299 112.757C88.738 112.917 88.2046 115.598 88.7296 120.798ZM101.538 127.063L103.4 126.393L101.986 112.384L100.027 112.099L99.979 111.622L102.844 111.332C104.097 111.206 105.124 111.51 105.927 112.243C106.236 112.534 106.509 112.903 106.747 113.351C106.988 112.769 107.29 112.256 107.653 111.812C108.512 110.76 109.652 110.163 111.074 110.019C112.263 109.899 113.35 110.047 114.335 110.462C115.339 110.853 116.148 111.426 116.76 112.179C117.372 112.932 117.723 113.754 117.813 114.646L118.842 124.834L120.8 125.118L120.848 125.596L116.709 126.014C114.799 126.207 113.747 125.348 113.555 123.438L112.719 115.16C112.584 113.823 112.237 112.828 111.678 112.177C111.138 111.503 110.55 111.198 109.913 111.262C109.107 111.343 108.428 111.841 107.877 112.754C107.637 113.143 107.447 113.591 107.305 114.098L108.494 125.878L110.453 126.163L110.501 126.641L101.586 127.541L101.538 127.063ZM122.941 132.3C121.35 132.46 120.155 132.313 119.359 131.857C118.562 131.402 118.116 130.696 118.02 129.741C117.947 129.019 118.111 128.413 118.511 127.923C118.893 127.455 119.445 127.185 120.166 127.112C120.336 127.095 120.507 127.088 120.679 127.093C120.853 127.118 120.972 127.127 121.036 127.121L121.456 127.143L121.906 131.6L122.107 131.676C122.323 131.697 122.474 131.704 122.559 131.695C123.217 131.629 123.707 131.172 124.029 130.324C124.374 129.496 124.45 128.127 124.257 126.217L122.65 110.298L120.691 110.013L120.643 109.535L124.782 109.118C126.692 108.925 127.744 109.783 127.937 111.694L129.351 125.702C129.465 126.827 129.291 127.863 128.829 128.811C128.367 129.758 127.631 130.54 126.621 131.156C125.611 131.773 124.385 132.154 122.941 132.3ZM124.589 107.207C123.953 107.272 123.4 107.113 122.933 106.731C122.466 106.35 122.2 105.84 122.136 105.204C122.071 104.567 122.23 104.015 122.612 103.547C122.993 103.08 123.502 102.814 124.139 102.75C124.776 102.686 125.328 102.844 125.795 103.226C126.263 103.608 126.529 104.117 126.593 104.754C126.657 105.39 126.499 105.942 126.117 106.41C125.735 106.877 125.226 107.143 124.589 107.207ZM141.054 124.039C138.422 124.304 136.277 123.77 134.62 122.437C132.982 121.08 132.031 119.085 131.765 116.453C131.499 113.821 132.034 111.687 133.37 110.052C134.725 108.392 136.718 107.43 139.35 107.164C141.982 106.899 144.117 107.444 145.755 108.801C147.412 110.135 148.373 112.118 148.639 114.75C148.905 117.382 148.36 119.527 147.005 121.186C145.67 122.822 143.686 123.773 141.054 124.039ZM140.989 123.402C141.838 123.316 142.49 122.65 142.943 121.403C143.417 120.155 143.512 118.119 143.227 115.296C142.942 112.473 142.442 110.497 141.728 109.369C141.034 108.238 140.263 107.715 139.414 107.801C138.565 107.887 137.904 108.554 137.429 109.803C136.976 111.049 136.892 113.084 137.177 115.907C137.462 118.73 137.951 120.707 138.644 121.837C139.359 122.966 140.14 123.487 140.989 123.402ZM155.844 128.978C154.889 129.074 154.12 128.895 153.538 128.439C152.956 127.983 152.62 127.309 152.53 126.418C152.449 125.611 152.598 124.964 152.977 124.475C153.378 123.984 153.939 123.702 154.661 123.63C154.831 123.612 155.001 123.606 155.173 123.61C155.347 123.635 155.466 123.645 155.53 123.638L155.95 123.66L156.384 127.958C156.989 127.79 157.496 127.396 157.905 126.776C158.314 126.155 158.735 125.116 159.166 123.657L159.642 122.001L149.822 107.554L148.181 107.238L148.133 106.76L152.113 106.358C153.217 106.247 154.11 106.392 154.794 106.795C155.497 107.174 156.127 107.786 156.684 108.63L161.407 115.583L163.879 106.618L161.394 105.904L161.346 105.426L167.236 104.831L167.284 105.309L164.834 106.521L160.121 123.561C159.618 125.37 159.023 126.695 158.336 127.536C157.651 128.399 156.82 128.879 155.844 128.978ZM167.824 101.556C167.713 100.452 167.91 99.5422 168.417 98.8264C168.943 98.0871 169.63 97.6747 170.479 97.589C171.328 97.5032 172.074 97.7711 172.715 98.3924C173.376 98.9904 173.762 99.8413 173.873 100.945L172.564 113.46L171.609 113.556L167.824 101.556ZM172.81 120.672C172.173 120.736 171.586 120.549 171.048 120.11C170.53 119.647 170.235 119.066 170.165 118.366C170.094 117.665 170.267 117.047 170.685 116.512C171.122 115.953 171.659 115.642 172.295 115.578C172.932 115.513 173.51 115.712 174.028 116.174C174.566 116.613 174.87 117.183 174.94 117.883C175.011 118.584 174.828 119.214 174.391 119.772C173.974 120.308 173.446 120.607 172.81 120.672ZM134.808 172.431C133.934 170.996 132.647 169.711 130.945 168.575L130.833 167.461C131.544 167.711 132.17 167.969 132.712 168.236C133.251 168.482 133.706 168.736 134.076 168.999L132.202 150.437L133.539 150.302L135.413 168.864C135.744 168.53 136.149 168.189 136.628 167.841C137.105 167.471 137.657 167.093 138.283 166.709L138.395 167.823C136.977 169.274 135.972 170.791 135.381 172.373L134.808 172.431Z" fill="black"/>
</g>
</svg>
