<svg width="335" height="71" viewBox="0 0 335 71" fill="none" xmlns="http://www.w3.org/2000/svg">
<g filter="url(#filter0_i_185_168)">
<path d="M0.8 69V67.56L6.56 66.12V4.68L0.8 3.23999V1.8H28.16V3.23999L22.4 4.68V34.44H43.04V4.68L37.28 3.23999V1.8H64.64V3.23999L58.88 4.68V66.12L64.64 67.56V69H37.28V67.56L43.04 66.12V36.84H22.4V66.12L28.16 67.56V69H0.8ZM107.326 70.44C97.8543 70.44 90.6863 68.232 85.8223 63.816C80.9583 59.336 78.5263 53.064 78.5263 45V4.68L72.7663 3.23999V1.8H100.126V3.23999L94.3663 4.68V45C94.3663 53.256 95.6463 59.176 98.2063 62.76C100.766 66.28 104.446 68.04 109.246 68.04C112.19 68.04 114.974 67.112 117.598 65.256C120.286 63.336 122.43 60.648 124.03 57.192C125.694 53.672 126.526 49.608 126.526 45V6.12L118.846 3.23999V1.8H137.086V3.23999L129.406 6.12V45C129.406 50.184 128.446 54.696 126.526 58.536C124.606 62.376 121.982 65.32 118.654 67.368C115.326 69.416 111.55 70.44 107.326 70.44ZM130.861 67.56L138.541 64.68L164.941 0.839996H167.821L195.181 66.12L199.981 67.56V69H188.461C185.133 69 182.413 68.264 180.301 66.792C178.189 65.256 176.621 63.272 175.597 60.84L170.701 49.32H147.757L141.421 64.68L148.621 67.56V69H130.861V67.56ZM148.717 46.92H169.741L159.181 21.672L148.717 46.92ZM211.471 18.12V64.68L219.151 67.56V69H200.911V67.56L208.591 64.68V5.16L201.871 3.23999V1.8H211.951C215.343 1.8 217.999 2.408 219.919 3.62399C221.839 4.83999 223.663 6.47199 225.391 8.51999L256.111 44.52V6.12L248.431 3.23999V1.8H266.671V3.23999L258.991 6.12V70.44H256.111L211.471 18.12ZM300.294 70.44C295.43 70.44 290.95 69.064 286.854 66.312C282.758 63.56 279.494 59.56 277.062 54.312C274.63 49 273.414 42.696 273.414 35.4C273.414 28.04 274.662 21.736 277.158 16.488C279.718 11.176 283.27 7.17599 287.814 4.488C292.422 1.736 297.734 0.359997 303.75 0.359997C307.398 0.359997 311.078 1.416 314.79 3.528C316.198 4.296 317.606 5.32 319.014 6.6C320.102 4.936 321.222 3.62399 322.374 2.664C323.526 1.832 324.166 1.384 324.294 1.32H326.694V19.56H322.854C322.022 16.488 320.774 13.704 319.11 11.208C317.574 8.776 315.654 6.76 313.35 5.16C311.11 3.56 308.518 2.75999 305.574 2.75999C301.158 2.75999 297.478 5.32 294.534 10.44C291.654 15.56 290.214 23.88 290.214 35.4C290.214 46.92 291.494 55.08 294.054 59.88C296.678 64.68 300.038 67.08 304.134 67.08C306.502 67.08 308.646 65.8 310.566 63.24C311.27 62.28 312.006 61 312.774 59.4V37.32L307.014 35.88V34.44H334.374V35.88L328.614 37.32V69.48H327.174C322.502 69.48 318.95 68.2 316.518 65.64C315.43 64.488 314.662 63.208 314.214 61.8C313.318 63.4 312.262 64.84 311.046 66.12C308.166 69 304.582 70.44 300.294 70.44Z" fill="#27A2BB"/>
</g>
<defs>
<filter id="filter0_i_185_168" x="0.799805" y="0.360001" width="337.574" height="74.08" filterUnits="userSpaceOnUse" color-interpolation-filters="sRGB">
<feFlood flood-opacity="0" result="BackgroundImageFix"/>
<feBlend mode="normal" in="SourceGraphic" in2="BackgroundImageFix" result="shape"/>
<feColorMatrix in="SourceAlpha" type="matrix" values="0 0 0 0 0 0 0 0 0 0 0 0 0 0 0 0 0 0 127 0" result="hardAlpha"/>
<feOffset dx="4" dy="4"/>
<feGaussianBlur stdDeviation="5"/>
<feComposite in2="hardAlpha" operator="arithmetic" k2="-1" k3="1"/>
<feColorMatrix type="matrix" values="0 0 0 0 0 0 0 0 0 0 0 0 0 0 0 0 0 0 0.25 0"/>
<feBlend mode="normal" in2="shape" result="effect1_innerShadow_185_168"/>
</filter>
</defs>
</svg>
