<svg width="321" height="70" viewBox="0 0 321 70" fill="none" xmlns="http://www.w3.org/2000/svg">
<g filter="url(#filter0_i_185_167)">
<path d="M17.76 69.44C11.872 69.44 7.424 68.416 4.416 66.368C1.472 64.32 0 61.824 0 58.88C0 56.704 0.64 54.976 1.92 53.696C3.264 52.352 5.024 51.68 7.2 51.68C7.712 51.68 8.224 51.744 8.736 51.872C9.248 51.936 9.6 51.968 9.792 51.968L11.04 52.16V66.56C11.488 66.816 11.936 66.976 12.384 67.04C13.472 67.36 14.624 67.52 15.84 67.52C23.52 67.52 27.36 61.28 27.36 48.8V3.68L21.6 2.23999V0.799995H48.96V2.23999L43.2 3.68V48.8C43.2 55.456 41.12 60.576 36.96 64.16C32.8 67.68 26.4 69.44 17.76 69.44ZM57.5813 66.56L63.3413 65.12V3.68L57.5813 2.23999V0.799995H108.941V18.08H106.061C104.845 17.12 103.789 15.904 102.893 14.432C100.845 10.976 99.8213 7.232 99.8213 3.2H79.1813V33.44H90.2213C90.6693 31.008 91.5013 28.736 92.7173 26.624C93.2293 25.664 93.8373 24.736 94.5413 23.84H97.4213V45.44H94.5413C93.8373 44.544 93.2293 43.616 92.7173 42.656C91.5013 40.544 90.6693 38.272 90.2213 35.84H79.1813V65.6H101.741C101.741 61.568 102.765 57.824 104.813 54.368C105.709 52.896 106.765 51.68 107.981 50.72H110.861V68H57.5813V66.56ZM128.096 17.12V63.68L135.776 66.56V68H117.536V66.56L125.216 63.68V4.16L118.496 2.23999V0.799995H128.576C131.968 0.799995 134.624 1.408 136.544 2.62399C138.464 3.83999 140.288 5.47199 142.016 7.51999L172.736 43.52V5.12L165.056 2.23999V0.799995H183.296V2.23999L175.616 5.12V69.44H172.736L128.096 17.12ZM198.221 17.12V63.68L205.901 66.56V68H187.661V66.56L195.341 63.68V4.16L188.621 2.23999V0.799995H198.701C202.093 0.799995 204.749 1.408 206.669 2.62399C208.589 3.83999 210.413 5.47199 212.141 7.51999L242.861 43.52V5.12L235.181 2.23999V0.799995H253.421V2.23999L245.741 5.12V69.44H242.861L198.221 17.12ZM274.564 66.56L280.324 65.12V43.04L260.644 3.68L255.844 2.23999V0.799995H267.844C271.172 0.799995 273.828 1.504 275.812 2.912C277.86 4.32 279.524 6.336 280.804 8.96L295.012 37.28L309.604 5.12L302.404 2.23999V0.799995H320.644V2.23999L312.964 5.12L296.164 42.08V65.12L301.924 66.56V68H274.564V66.56Z" fill="#27A2BB"/>
</g>
<defs>
<filter id="filter0_i_185_167" x="0" y="0.799995" width="324.644" height="72.64" filterUnits="userSpaceOnUse" color-interpolation-filters="sRGB">
<feFlood flood-opacity="0" result="BackgroundImageFix"/>
<feBlend mode="normal" in="SourceGraphic" in2="BackgroundImageFix" result="shape"/>
<feColorMatrix in="SourceAlpha" type="matrix" values="0 0 0 0 0 0 0 0 0 0 0 0 0 0 0 0 0 0 127 0" result="hardAlpha"/>
<feOffset dx="4" dy="4"/>
<feGaussianBlur stdDeviation="5"/>
<feComposite in2="hardAlpha" operator="arithmetic" k2="-1" k3="1"/>
<feColorMatrix type="matrix" values="0 0 0 0 0 0 0 0 0 0 0 0 0 0 0 0 0 0 0.25 0"/>
<feBlend mode="normal" in2="shape" result="effect1_innerShadow_185_167"/>
</filter>
</defs>
</svg>
