<svg width="250" height="250" viewBox="0 0 250 250" fill="none" xmlns="http://www.w3.org/2000/svg">
<circle cx="125" cy="125" r="120.5" stroke="#27A2BB" stroke-width="9"/>
<path d="M99.2 81.64L100.64 81.28V65.92L99.2 65.56V65.2H105.56C108.28 65.2 110.24 65.616 111.44 66.448C112.64 67.264 113.24 68.408 113.24 69.88C113.24 70.872 112.976 71.68 112.448 72.304C111.92 72.912 111.24 73.368 110.408 73.672C109.528 74.008 108.592 74.184 107.6 74.2V74.32C108.192 74.352 108.712 74.44 109.16 74.584C110.28 74.936 111.04 75.568 111.44 76.48L113.6 81.28L114.8 81.64V82H111.44C110.128 82 109.168 81.32 108.56 79.96L106.16 74.56H104.6V81.28L106.28 81.64V82H99.2V81.64ZM105.56 73.96C106.68 73.96 107.56 73.608 108.2 72.904C108.84 72.2 109.16 71.192 109.16 69.88C109.16 68.568 108.84 67.56 108.2 66.856C107.56 66.152 106.68 65.8 105.56 65.8H104.6V73.96H105.56ZM122.125 82.36C120.141 82.36 118.581 81.8 117.445 80.68C116.325 79.544 115.765 77.984 115.765 76C115.765 74.016 116.325 72.464 117.445 71.344C118.581 70.208 120.141 69.64 122.125 69.64C124.109 69.64 125.661 70.208 126.781 71.344C127.917 72.464 128.485 74.016 128.485 76C128.485 77.984 127.917 79.544 126.781 80.68C125.661 81.8 124.109 82.36 122.125 82.36ZM122.125 81.88C122.765 81.88 123.301 81.432 123.733 80.536C124.181 79.64 124.405 78.128 124.405 76C124.405 73.872 124.181 72.36 123.733 71.464C123.301 70.568 122.765 70.12 122.125 70.12C121.485 70.12 120.941 70.568 120.493 71.464C120.061 72.36 119.845 73.872 119.845 76C119.845 78.128 120.061 79.64 120.493 80.536C120.941 81.432 121.485 81.88 122.125 81.88ZM130.413 81.64L131.853 81.28V65.92L130.413 65.56V65.2H133.533C134.973 65.2 135.693 65.92 135.693 67.36V81.28L137.133 81.64V82H130.413V81.64ZM145.049 82.36C143.001 82.36 141.409 81.8 140.273 80.68C139.137 79.544 138.569 77.984 138.569 76C138.569 74.704 138.817 73.576 139.313 72.616C139.809 71.656 140.497 70.92 141.377 70.408C142.273 69.896 143.297 69.64 144.449 69.64C145.601 69.64 146.609 69.856 147.473 70.288C148.353 70.72 149.025 71.304 149.489 72.04C149.969 72.76 150.209 73.56 150.209 74.44C150.209 74.84 150.169 75.184 150.089 75.472L149.969 75.88C149.281 76.024 148.537 76.144 147.737 76.24C146.057 76.48 144.361 76.6 142.649 76.6C142.649 78.456 142.905 79.784 143.417 80.584C143.929 81.368 144.633 81.76 145.529 81.76C146.153 81.76 146.729 81.616 147.257 81.328C147.801 81.024 148.225 80.632 148.529 80.152C148.849 79.656 149.009 79.152 149.009 78.64H149.609C149.609 79.28 149.417 79.888 149.033 80.464C148.649 81.04 148.113 81.504 147.425 81.856C146.737 82.192 145.945 82.36 145.049 82.36ZM142.649 76C143.673 76 144.505 75.96 145.145 75.88C145.417 75.864 145.705 75.824 146.009 75.76C146.025 75.68 146.065 75.504 146.129 75.232C146.209 74.832 146.249 74.408 146.249 73.96C146.249 72.632 146.073 71.664 145.721 71.056C145.369 70.432 144.945 70.12 144.449 70.12C143.249 70.12 142.649 72.08 142.649 76Z" fill="#505050"/>
<path d="M68.9 145.16C67.06 145.16 65.6133 144.633 64.56 143.58C63.5067 142.527 62.98 140.987 62.98 138.96V131H64.98V138.88C64.98 140.44 65.32 141.58 66 142.3C66.6933 143.02 67.6667 143.38 68.92 143.38C70.1867 143.38 71.16 143.02 71.84 142.3C72.5333 141.58 72.88 140.44 72.88 138.88V131H74.82V138.96C74.82 140.987 74.2933 142.527 73.24 143.58C72.2 144.633 70.7533 145.16 68.9 145.16ZM76.885 145L82.705 137.06V138.6L77.205 131H79.485L83.845 136.98L82.945 137L87.285 131H89.465L84.005 138.48V137.04L89.825 145H87.525L82.885 138.62H83.765L79.185 145H76.885ZM97.5531 145V131H103.453C104.946 131 106.26 131.293 107.393 131.88C108.54 132.467 109.426 133.287 110.053 134.34C110.693 135.393 111.013 136.613 111.013 138C111.013 139.387 110.693 140.607 110.053 141.66C109.426 142.713 108.54 143.533 107.393 144.12C106.26 144.707 104.946 145 103.453 145H97.5531ZM99.5531 143.26H103.333C104.493 143.26 105.493 143.04 106.333 142.6C107.186 142.16 107.846 141.547 108.313 140.76C108.78 139.96 109.013 139.04 109.013 138C109.013 136.947 108.78 136.027 108.313 135.24C107.846 134.453 107.186 133.84 106.333 133.4C105.493 132.96 104.493 132.74 103.333 132.74H99.5531V143.26ZM118.517 145.12C117.383 145.12 116.383 144.887 115.517 144.42C114.663 143.953 113.997 143.313 113.517 142.5C113.05 141.687 112.817 140.753 112.817 139.7C112.817 138.647 113.043 137.713 113.497 136.9C113.963 136.087 114.597 135.453 115.397 135C116.21 134.533 117.123 134.3 118.137 134.3C119.163 134.3 120.07 134.527 120.857 134.98C121.643 135.433 122.257 136.073 122.697 136.9C123.15 137.713 123.377 138.667 123.377 139.76C123.377 139.84 123.37 139.933 123.357 140.04C123.357 140.147 123.35 140.247 123.337 140.34H114.317V138.96H122.337L121.557 139.44C121.57 138.76 121.43 138.153 121.137 137.62C120.843 137.087 120.437 136.673 119.917 136.38C119.41 136.073 118.817 135.92 118.137 135.92C117.47 135.92 116.877 136.073 116.357 136.38C115.837 136.673 115.43 137.093 115.137 137.64C114.843 138.173 114.697 138.787 114.697 139.48V139.8C114.697 140.507 114.857 141.14 115.177 141.7C115.51 142.247 115.97 142.673 116.557 142.98C117.143 143.287 117.817 143.44 118.577 143.44C119.203 143.44 119.77 143.333 120.277 143.12C120.797 142.907 121.25 142.587 121.637 142.16L122.697 143.4C122.217 143.96 121.617 144.387 120.897 144.68C120.19 144.973 119.397 145.12 118.517 145.12ZM129.083 145.12C128.203 145.12 127.363 145 126.563 144.76C125.776 144.52 125.156 144.227 124.703 143.88L125.503 142.36C125.956 142.667 126.516 142.927 127.183 143.14C127.849 143.353 128.529 143.46 129.223 143.46C130.116 143.46 130.756 143.333 131.143 143.08C131.543 142.827 131.743 142.473 131.743 142.02C131.743 141.687 131.623 141.427 131.383 141.24C131.143 141.053 130.823 140.913 130.423 140.82C130.036 140.727 129.603 140.647 129.123 140.58C128.643 140.5 128.163 140.407 127.683 140.3C127.203 140.18 126.763 140.02 126.363 139.82C125.963 139.607 125.643 139.32 125.403 138.96C125.163 138.587 125.043 138.093 125.043 137.48C125.043 136.84 125.223 136.28 125.583 135.8C125.943 135.32 126.449 134.953 127.103 134.7C127.769 134.433 128.556 134.3 129.463 134.3C130.156 134.3 130.856 134.387 131.563 134.56C132.283 134.72 132.869 134.953 133.323 135.26L132.503 136.78C132.023 136.46 131.523 136.24 131.003 136.12C130.483 136 129.963 135.94 129.443 135.94C128.603 135.94 127.976 136.08 127.563 136.36C127.149 136.627 126.943 136.973 126.943 137.4C126.943 137.76 127.063 138.04 127.303 138.24C127.556 138.427 127.876 138.573 128.263 138.68C128.663 138.787 129.103 138.88 129.583 138.96C130.063 139.027 130.543 139.12 131.023 139.24C131.503 139.347 131.936 139.5 132.323 139.7C132.723 139.9 133.043 140.18 133.283 140.54C133.536 140.9 133.663 141.38 133.663 141.98C133.663 142.62 133.476 143.173 133.103 143.64C132.729 144.107 132.203 144.473 131.523 144.74C130.843 144.993 130.029 145.12 129.083 145.12ZM136.062 145V134.4H137.982V145H136.062ZM137.022 132.36C136.649 132.36 136.336 132.24 136.082 132C135.842 131.76 135.722 131.467 135.722 131.12C135.722 130.76 135.842 130.46 136.082 130.22C136.336 129.98 136.649 129.86 137.022 129.86C137.396 129.86 137.702 129.98 137.942 130.22C138.196 130.447 138.322 130.733 138.322 131.08C138.322 131.44 138.202 131.747 137.962 132C137.722 132.24 137.409 132.36 137.022 132.36ZM146.288 149C145.315 149 144.368 148.86 143.448 148.58C142.541 148.313 141.801 147.927 141.228 147.42L142.148 145.94C142.641 146.367 143.248 146.7 143.968 146.94C144.688 147.193 145.441 147.32 146.228 147.32C147.481 147.32 148.401 147.027 148.988 146.44C149.575 145.853 149.868 144.96 149.868 143.76V141.52L150.068 139.42L149.968 137.3V134.4H151.788V143.56C151.788 145.427 151.321 146.8 150.388 147.68C149.455 148.56 148.088 149 146.288 149ZM146.048 144.56C145.021 144.56 144.101 144.347 143.288 143.92C142.488 143.48 141.848 142.873 141.368 142.1C140.901 141.327 140.668 140.433 140.668 139.42C140.668 138.393 140.901 137.5 141.368 136.74C141.848 135.967 142.488 135.367 143.288 134.94C144.101 134.513 145.021 134.3 146.048 134.3C146.955 134.3 147.781 134.487 148.528 134.86C149.275 135.22 149.868 135.78 150.308 136.54C150.761 137.3 150.988 138.26 150.988 139.42C150.988 140.567 150.761 141.52 150.308 142.28C149.868 143.04 149.275 143.613 148.528 144C147.781 144.373 146.955 144.56 146.048 144.56ZM146.268 142.88C146.975 142.88 147.601 142.733 148.148 142.44C148.695 142.147 149.121 141.74 149.428 141.22C149.748 140.7 149.908 140.1 149.908 139.42C149.908 138.74 149.748 138.14 149.428 137.62C149.121 137.1 148.695 136.7 148.148 136.42C147.601 136.127 146.975 135.98 146.268 135.98C145.561 135.98 144.928 136.127 144.368 136.42C143.821 136.7 143.388 137.1 143.068 137.62C142.761 138.14 142.608 138.74 142.608 139.42C142.608 140.1 142.761 140.7 143.068 141.22C143.388 141.74 143.821 142.147 144.368 142.44C144.928 142.733 145.561 142.88 146.268 142.88ZM161.117 134.3C161.983 134.3 162.743 134.467 163.397 134.8C164.063 135.133 164.583 135.64 164.957 136.32C165.33 137 165.517 137.86 165.517 138.9V145H163.597V139.12C163.597 138.093 163.343 137.32 162.837 136.8C162.343 136.28 161.643 136.02 160.737 136.02C160.057 136.02 159.463 136.153 158.957 136.42C158.45 136.687 158.057 137.08 157.777 137.6C157.51 138.12 157.377 138.767 157.377 139.54V145H155.457V134.4H157.297V137.26L156.997 136.5C157.343 135.807 157.877 135.267 158.597 134.88C159.317 134.493 160.157 134.3 161.117 134.3ZM173.79 145.12C172.657 145.12 171.657 144.887 170.79 144.42C169.937 143.953 169.27 143.313 168.79 142.5C168.323 141.687 168.09 140.753 168.09 139.7C168.09 138.647 168.317 137.713 168.77 136.9C169.237 136.087 169.87 135.453 170.67 135C171.483 134.533 172.397 134.3 173.41 134.3C174.437 134.3 175.343 134.527 176.13 134.98C176.917 135.433 177.53 136.073 177.97 136.9C178.423 137.713 178.65 138.667 178.65 139.76C178.65 139.84 178.643 139.933 178.63 140.04C178.63 140.147 178.623 140.247 178.61 140.34H169.59V138.96H177.61L176.83 139.44C176.843 138.76 176.703 138.153 176.41 137.62C176.117 137.087 175.71 136.673 175.19 136.38C174.683 136.073 174.09 135.92 173.41 135.92C172.743 135.92 172.15 136.073 171.63 136.38C171.11 136.673 170.703 137.093 170.41 137.64C170.117 138.173 169.97 138.787 169.97 139.48V139.8C169.97 140.507 170.13 141.14 170.45 141.7C170.783 142.247 171.243 142.673 171.83 142.98C172.417 143.287 173.09 143.44 173.85 143.44C174.477 143.44 175.043 143.333 175.55 143.12C176.07 142.907 176.523 142.587 176.91 142.16L177.97 143.4C177.49 143.96 176.89 144.387 176.17 144.68C175.463 144.973 174.67 145.12 173.79 145.12ZM181.316 145V134.4H183.156V137.28L182.976 136.56C183.269 135.827 183.763 135.267 184.456 134.88C185.149 134.493 186.003 134.3 187.016 134.3V136.16C186.936 136.147 186.856 136.14 186.776 136.14C186.709 136.14 186.643 136.14 186.576 136.14C185.549 136.14 184.736 136.447 184.136 137.06C183.536 137.673 183.236 138.56 183.236 139.72V145H181.316Z" fill="#505050"/>
</svg>
