<svg width="250" height="250" viewBox="0 0 250 250" fill="none" xmlns="http://www.w3.org/2000/svg">
<circle cx="125" cy="125" r="120.5" stroke="#85BFCD" stroke-width="9"/>
<path d="M72.2 87.64L73.64 87.28V71.92L72.2 71.56V71.2H78.32C81.184 71.2 83.376 71.936 84.896 73.408C86.432 74.88 87.2 76.944 87.2 79.6C87.2 82.256 86.432 84.32 84.896 85.792C83.376 87.264 81.184 88 78.32 88H72.2V87.64ZM78.32 87.4C79.808 87.4 80.96 86.8 81.776 85.6C82.592 84.384 83 82.384 83 79.6C83 76.816 82.592 74.824 81.776 73.624C80.96 72.408 79.808 71.8 78.32 71.8H77.6V87.4H78.32ZM94.8763 88.36C93.9803 88.36 93.1723 88.176 92.4523 87.808C91.7483 87.424 91.1963 86.928 90.7963 86.32C90.3963 85.712 90.1963 85.072 90.1963 84.4V76.72L88.7563 76.36V76H91.8763C93.3163 76 94.0363 76.72 94.0363 78.16V84.4C94.0363 85.408 94.2123 86.184 94.5643 86.728C94.9323 87.256 95.3563 87.52 95.8363 87.52C96.4283 87.52 96.9643 87.2 97.4443 86.56C97.6203 86.32 97.8043 86 97.9963 85.6V76.72L96.5563 76.36V76H103.276V76.36L101.836 76.72V88.12H101.596C100.428 88.12 99.5403 87.8 98.9323 87.16C98.6603 86.872 98.4683 86.552 98.3563 86.2C98.1323 86.6 97.8683 86.96 97.5643 87.28C96.8443 88 95.9483 88.36 94.8763 88.36ZM104.726 87.64L106.166 87.28V76.72L104.726 76.36V76H106.886C107.83 76 108.574 76.304 109.118 76.912C109.326 77.152 109.502 77.448 109.646 77.8C109.886 77.448 110.182 77.128 110.534 76.84C111.334 76.2 112.23 75.88 113.222 75.88C114.07 75.88 114.702 76.08 115.118 76.48C115.55 76.864 115.766 77.424 115.766 78.16C115.766 78.704 115.598 79.144 115.262 79.48C114.942 79.8 114.51 79.96 113.966 79.96C113.742 79.96 113.518 79.944 113.294 79.912L113.006 79.84V76.48C112.19 76.48 111.446 76.8 110.774 77.44C110.454 77.76 110.198 78.08 110.006 78.4V87.28L111.446 87.64V88H104.726V87.64ZM121.054 88.36C119.63 88.36 118.534 88.056 117.766 87.448C116.998 86.84 116.614 86.064 116.614 85.12C116.614 84.496 116.75 83.88 117.022 83.272C117.134 82.984 117.278 82.72 117.454 82.48C118.11 82.32 118.822 82.176 119.59 82.048C121.318 81.76 122.846 81.584 124.174 81.52V80.8C124.174 79.024 123.958 77.8 123.526 77.128C123.094 76.456 122.43 76.12 121.534 76.12C121.198 76.12 120.91 76.16 120.67 76.24L120.334 76.36V79.96L120.022 80.032C119.766 80.064 119.55 80.08 119.374 80.08C118.83 80.08 118.39 79.92 118.054 79.6C117.734 79.264 117.574 78.824 117.574 78.28C117.574 77.544 117.942 76.92 118.678 76.408C119.43 75.896 120.542 75.64 122.014 75.64C123.262 75.64 124.334 75.864 125.23 76.312C126.142 76.744 126.83 77.352 127.294 78.136C127.774 78.904 128.014 79.792 128.014 80.8V87.28L129.454 87.64V88H127.294C126.334 88 125.59 87.704 125.062 87.112C124.838 86.872 124.662 86.568 124.534 86.2C124.31 86.6 124.046 86.96 123.742 87.28C123.022 88 122.126 88.36 121.054 88.36ZM122.014 87.52C122.606 87.52 123.142 87.2 123.622 86.56C123.798 86.32 123.982 86 124.174 85.6V82.12C123.438 82.12 122.734 82.16 122.062 82.24C121.566 82.304 121.23 82.344 121.054 82.36C120.974 82.536 120.894 82.776 120.814 83.08C120.654 83.688 120.574 84.288 120.574 84.88C120.574 85.776 120.71 86.44 120.982 86.872C121.254 87.304 121.598 87.52 122.014 87.52ZM137.145 88.36C136.089 88.36 135.169 88.168 134.385 87.784C133.617 87.4 133.025 86.872 132.609 86.2C132.193 85.528 131.985 84.768 131.985 83.92V76.6H130.305V76H131.985V74.8C131.985 73.36 132.705 72.64 134.145 72.64H135.825V76H139.185V76.6H135.825V83.92C135.825 85.392 135.977 86.4 136.281 86.944C136.585 87.488 137.033 87.76 137.625 87.76C138.201 87.76 138.705 87.48 139.137 86.92C139.569 86.36 139.785 85.6 139.785 84.64H140.385C140.385 85.824 140.089 86.744 139.497 87.4C138.905 88.04 138.121 88.36 137.145 88.36ZM141.71 87.64L143.15 87.28V76.72L141.71 76.36V76H144.83C146.27 76 146.99 76.72 146.99 78.16V87.28L148.43 87.64V88H141.71V87.64ZM144.83 74.56C144.35 74.56 143.95 74.4 143.63 74.08C143.31 73.76 143.15 73.36 143.15 72.88C143.15 72.4 143.31 72 143.63 71.68C143.95 71.36 144.35 71.2 144.83 71.2C145.31 71.2 145.71 71.36 146.03 71.68C146.35 72 146.51 72.4 146.51 72.88C146.51 73.36 146.35 73.76 146.03 74.08C145.71 74.4 145.31 74.56 144.83 74.56ZM156.226 88.36C154.242 88.36 152.682 87.8 151.546 86.68C150.426 85.544 149.866 83.984 149.866 82C149.866 80.016 150.426 78.464 151.546 77.344C152.682 76.208 154.242 75.64 156.226 75.64C158.21 75.64 159.762 76.208 160.882 77.344C162.018 78.464 162.586 80.016 162.586 82C162.586 83.984 162.018 85.544 160.882 86.68C159.762 87.8 158.21 88.36 156.226 88.36ZM156.226 87.88C156.866 87.88 157.402 87.432 157.834 86.536C158.282 85.64 158.506 84.128 158.506 82C158.506 79.872 158.282 78.36 157.834 77.464C157.402 76.568 156.866 76.12 156.226 76.12C155.586 76.12 155.042 76.568 154.594 77.464C154.162 78.36 153.946 79.872 153.946 82C153.946 84.128 154.162 85.64 154.594 86.536C155.042 87.432 155.586 87.88 156.226 87.88ZM164.515 87.64L165.955 87.28V76.72L164.515 76.36V76H166.675C167.619 76 168.363 76.304 168.907 76.912C169.115 77.152 169.291 77.448 169.435 77.8C169.659 77.384 169.923 77.024 170.227 76.72C170.947 76 171.843 75.64 172.915 75.64C173.811 75.64 174.611 75.832 175.315 76.216C176.035 76.584 176.595 77.072 176.995 77.68C177.395 78.288 177.595 78.928 177.595 79.6V87.28L179.035 87.64V88H175.915C174.475 88 173.755 87.28 173.755 85.84V79.6C173.755 78.592 173.571 77.824 173.203 77.296C172.851 76.752 172.435 76.48 171.955 76.48C171.347 76.48 170.803 76.8 170.323 77.44C170.115 77.712 169.939 78.032 169.795 78.4V87.28L171.235 87.64V88H164.515V87.64Z" fill="#505050"/>
<path d="M77.2073 133.56V132.16L84.3673 123H86.5273L79.4273 132.16L78.4073 131.84H89.5873V133.56H77.2073ZM84.9873 137V133.56L85.0473 131.84V128.8H86.9273V137H84.9873ZM110.277 126.3C111.131 126.3 111.884 126.467 112.537 126.8C113.191 127.133 113.697 127.64 114.057 128.32C114.431 129 114.617 129.86 114.617 130.9V137H112.697V131.12C112.697 130.093 112.457 129.32 111.977 128.8C111.497 128.28 110.824 128.02 109.957 128.02C109.317 128.02 108.757 128.153 108.277 128.42C107.797 128.687 107.424 129.08 107.157 129.6C106.904 130.12 106.777 130.767 106.777 131.54V137H104.857V131.12C104.857 130.093 104.617 129.32 104.137 128.8C103.671 128.28 102.997 128.02 102.117 128.02C101.491 128.02 100.937 128.153 100.457 128.42C99.9773 128.687 99.6039 129.08 99.3373 129.6C99.0706 130.12 98.9373 130.767 98.9373 131.54V137H97.0173V126.4H98.8573V129.22L98.5573 128.5C98.8906 127.807 99.4039 127.267 100.097 126.88C100.791 126.493 101.597 126.3 102.517 126.3C103.531 126.3 104.404 126.553 105.137 127.06C105.871 127.553 106.351 128.307 106.577 129.32L105.797 129C106.117 128.187 106.677 127.533 107.477 127.04C108.277 126.547 109.211 126.3 110.277 126.3ZM122.69 137.12C121.623 137.12 120.677 136.887 119.85 136.42C119.023 135.953 118.37 135.313 117.89 134.5C117.41 133.673 117.17 132.74 117.17 131.7C117.17 130.647 117.41 129.713 117.89 128.9C118.37 128.087 119.023 127.453 119.85 127C120.677 126.533 121.623 126.3 122.69 126.3C123.743 126.3 124.683 126.533 125.51 127C126.35 127.453 127.003 128.087 127.47 128.9C127.95 129.7 128.19 130.633 128.19 131.7C128.19 132.753 127.95 133.687 127.47 134.5C127.003 135.313 126.35 135.953 125.51 136.42C124.683 136.887 123.743 137.12 122.69 137.12ZM122.69 135.44C123.37 135.44 123.977 135.287 124.51 134.98C125.057 134.673 125.483 134.24 125.79 133.68C126.097 133.107 126.25 132.447 126.25 131.7C126.25 130.94 126.097 130.287 125.79 129.74C125.483 129.18 125.057 128.747 124.51 128.44C123.977 128.133 123.37 127.98 122.69 127.98C122.01 127.98 121.403 128.133 120.87 128.44C120.337 128.747 119.91 129.18 119.59 129.74C119.27 130.287 119.11 130.94 119.11 131.7C119.11 132.447 119.27 133.107 119.59 133.68C119.91 134.24 120.337 134.673 120.87 134.98C121.403 135.287 122.01 135.44 122.69 135.44ZM136.505 126.3C137.372 126.3 138.132 126.467 138.785 126.8C139.452 127.133 139.972 127.64 140.345 128.32C140.719 129 140.905 129.86 140.905 130.9V137H138.985V131.12C138.985 130.093 138.732 129.32 138.225 128.8C137.732 128.28 137.032 128.02 136.125 128.02C135.445 128.02 134.852 128.153 134.345 128.42C133.839 128.687 133.445 129.08 133.165 129.6C132.899 130.12 132.765 130.767 132.765 131.54V137H130.845V126.4H132.685V129.26L132.385 128.5C132.732 127.807 133.265 127.267 133.985 126.88C134.705 126.493 135.545 126.3 136.505 126.3ZM148.099 137.12C147.032 137.12 146.205 136.833 145.619 136.26C145.032 135.687 144.739 134.867 144.739 133.8V124.08H146.659V133.72C146.659 134.293 146.799 134.733 147.079 135.04C147.372 135.347 147.785 135.5 148.319 135.5C148.919 135.5 149.419 135.333 149.819 135L150.419 136.38C150.125 136.633 149.772 136.82 149.359 136.94C148.959 137.06 148.539 137.12 148.099 137.12ZM142.939 127.98V126.4H149.699V127.98H142.939ZM158.4 126.3C159.267 126.3 160.027 126.467 160.68 126.8C161.347 127.133 161.867 127.64 162.24 128.32C162.613 129 162.8 129.86 162.8 130.9V137H160.88V131.12C160.88 130.093 160.627 129.32 160.12 128.8C159.627 128.28 158.927 128.02 158.02 128.02C157.34 128.02 156.747 128.153 156.24 128.42C155.733 128.687 155.34 129.08 155.06 129.6C154.793 130.12 154.66 130.767 154.66 131.54V137H152.74V122.16H154.66V129.26L154.28 128.5C154.627 127.807 155.16 127.267 155.88 126.88C156.6 126.493 157.44 126.3 158.4 126.3ZM169.393 137.12C168.513 137.12 167.673 137 166.873 136.76C166.087 136.52 165.467 136.227 165.013 135.88L165.813 134.36C166.267 134.667 166.827 134.927 167.493 135.14C168.16 135.353 168.84 135.46 169.533 135.46C170.427 135.46 171.067 135.333 171.453 135.08C171.853 134.827 172.053 134.473 172.053 134.02C172.053 133.687 171.933 133.427 171.693 133.24C171.453 133.053 171.133 132.913 170.733 132.82C170.347 132.727 169.913 132.647 169.433 132.58C168.953 132.5 168.473 132.407 167.993 132.3C167.513 132.18 167.073 132.02 166.673 131.82C166.273 131.607 165.953 131.32 165.713 130.96C165.473 130.587 165.353 130.093 165.353 129.48C165.353 128.84 165.533 128.28 165.893 127.8C166.253 127.32 166.76 126.953 167.413 126.7C168.08 126.433 168.867 126.3 169.773 126.3C170.467 126.3 171.167 126.387 171.873 126.56C172.593 126.72 173.18 126.953 173.633 127.26L172.813 128.78C172.333 128.46 171.833 128.24 171.313 128.12C170.793 128 170.273 127.94 169.753 127.94C168.913 127.94 168.287 128.08 167.873 128.36C167.46 128.627 167.253 128.973 167.253 129.4C167.253 129.76 167.373 130.04 167.613 130.24C167.867 130.427 168.187 130.573 168.573 130.68C168.973 130.787 169.413 130.88 169.893 130.96C170.373 131.027 170.853 131.12 171.333 131.24C171.813 131.347 172.247 131.5 172.633 131.7C173.033 131.9 173.353 132.18 173.593 132.54C173.847 132.9 173.973 133.38 173.973 133.98C173.973 134.62 173.787 135.173 173.413 135.64C173.04 136.107 172.513 136.473 171.833 136.74C171.153 136.993 170.34 137.12 169.393 137.12ZM48.8865 167V165.64L54.5865 160.14C55.0932 159.66 55.4665 159.24 55.7065 158.88C55.9598 158.507 56.1265 158.167 56.2065 157.86C56.2998 157.54 56.3465 157.233 56.3465 156.94C56.3465 156.22 56.0932 155.653 55.5865 155.24C55.0798 154.827 54.3398 154.62 53.3665 154.62C52.6198 154.62 51.9465 154.747 51.3465 155C50.7465 155.24 50.2265 155.62 49.7865 156.14L48.4265 154.96C48.9598 154.28 49.6732 153.76 50.5665 153.4C51.4732 153.027 52.4665 152.84 53.5465 152.84C54.5198 152.84 55.3665 153 56.0865 153.32C56.8065 153.627 57.3598 154.073 57.7465 154.66C58.1465 155.247 58.3465 155.94 58.3465 156.74C58.3465 157.193 58.2865 157.64 58.1665 158.08C58.0465 158.52 57.8198 158.987 57.4865 159.48C57.1532 159.973 56.6732 160.527 56.0465 161.14L50.9665 166.04L50.4865 165.26H58.9465V167H48.8865ZM66.2913 167.16C65.198 167.16 64.218 166.88 63.3513 166.32C62.498 165.76 61.818 164.947 61.3113 163.88C60.818 162.813 60.5713 161.52 60.5713 160C60.5713 158.48 60.818 157.187 61.3113 156.12C61.818 155.053 62.498 154.24 63.3513 153.68C64.218 153.12 65.198 152.84 66.2913 152.84C67.3713 152.84 68.3447 153.12 69.2113 153.68C70.078 154.24 70.758 155.053 71.2513 156.12C71.7447 157.187 71.9913 158.48 71.9913 160C71.9913 161.52 71.7447 162.813 71.2513 163.88C70.758 164.947 70.078 165.76 69.2113 166.32C68.3447 166.88 67.3713 167.16 66.2913 167.16ZM66.2913 165.38C67.0247 165.38 67.6647 165.18 68.2113 164.78C68.7713 164.38 69.2047 163.78 69.5113 162.98C69.8313 162.18 69.9913 161.187 69.9913 160C69.9913 158.813 69.8313 157.82 69.5113 157.02C69.2047 156.22 68.7713 155.62 68.2113 155.22C67.6647 154.82 67.0247 154.62 66.2913 154.62C65.558 154.62 64.9113 154.82 64.3513 155.22C63.7913 155.62 63.3513 156.22 63.0313 157.02C62.7247 157.82 62.5713 158.813 62.5713 160C62.5713 161.187 62.7247 162.18 63.0313 162.98C63.3513 163.78 63.7913 164.38 64.3513 164.78C64.9113 165.18 65.558 165.38 66.2913 165.38ZM76.2712 167V153.8L77.1312 154.74H73.1112V153H78.2512V167H76.2712ZM85.8535 152.84C87.1202 152.84 88.1868 153.113 89.0535 153.66C89.9335 154.207 90.6002 155 91.0535 156.04C91.5068 157.067 91.7335 158.327 91.7335 159.82C91.7335 161.407 91.4535 162.747 90.8935 163.84C90.3335 164.933 89.5602 165.76 88.5735 166.32C87.5868 166.88 86.4335 167.16 85.1135 167.16C84.4602 167.16 83.8268 167.093 83.2135 166.96C82.6135 166.827 82.0868 166.62 81.6335 166.34L82.3935 164.78C82.7668 165.02 83.1802 165.193 83.6335 165.3C84.1002 165.393 84.5868 165.44 85.0935 165.44C86.5068 165.44 87.6335 165 88.4735 164.12C89.3135 163.227 89.7335 161.907 89.7335 160.16C89.7335 159.88 89.7202 159.547 89.6935 159.16C89.6668 158.773 89.6068 158.393 89.5135 158.02L90.1735 158.7C89.9868 159.313 89.6735 159.833 89.2335 160.26C88.8068 160.673 88.2868 160.987 87.6735 161.2C87.0735 161.4 86.4135 161.5 85.6935 161.5C84.7735 161.5 83.9535 161.327 83.2335 160.98C82.5135 160.633 81.9468 160.147 81.5335 159.52C81.1202 158.88 80.9135 158.127 80.9135 157.26C80.9135 156.353 81.1268 155.573 81.5535 154.92C81.9935 154.253 82.5868 153.74 83.3335 153.38C84.0935 153.02 84.9335 152.84 85.8535 152.84ZM85.9335 154.46C85.3335 154.46 84.8002 154.573 84.3335 154.8C83.8668 155.027 83.5002 155.34 83.2335 155.74C82.9802 156.14 82.8535 156.62 82.8535 157.18C82.8535 158.007 83.1402 158.667 83.7135 159.16C84.2868 159.64 85.0602 159.88 86.0335 159.88C86.6735 159.88 87.2335 159.76 87.7135 159.52C88.2068 159.28 88.5868 158.953 88.8535 158.54C89.1335 158.127 89.2735 157.667 89.2735 157.16C89.2735 156.667 89.1468 156.22 88.8935 155.82C88.6402 155.42 88.2668 155.093 87.7735 154.84C87.2802 154.587 86.6668 154.46 85.9335 154.46ZM91.7466 169L98.3466 150.16H100.087L93.4866 169H91.7466ZM105.627 167.16C104.534 167.16 103.554 166.88 102.687 166.32C101.834 165.76 101.154 164.947 100.647 163.88C100.154 162.813 99.9073 161.52 99.9073 160C99.9073 158.48 100.154 157.187 100.647 156.12C101.154 155.053 101.834 154.24 102.687 153.68C103.554 153.12 104.534 152.84 105.627 152.84C106.707 152.84 107.681 153.12 108.547 153.68C109.414 154.24 110.094 155.053 110.587 156.12C111.081 157.187 111.327 158.48 111.327 160C111.327 161.52 111.081 162.813 110.587 163.88C110.094 164.947 109.414 165.76 108.547 166.32C107.681 166.88 106.707 167.16 105.627 167.16ZM105.627 165.38C106.361 165.38 107.001 165.18 107.547 164.78C108.107 164.38 108.541 163.78 108.847 162.98C109.167 162.18 109.327 161.187 109.327 160C109.327 158.813 109.167 157.82 108.847 157.02C108.541 156.22 108.107 155.62 107.547 155.22C107.001 154.82 106.361 154.62 105.627 154.62C104.894 154.62 104.247 154.82 103.687 155.22C103.127 155.62 102.687 156.22 102.367 157.02C102.061 157.82 101.907 158.813 101.907 160C101.907 161.187 102.061 162.18 102.367 162.98C102.687 163.78 103.127 164.38 103.687 164.78C104.247 165.18 104.894 165.38 105.627 165.38ZM117.787 152.84C119.054 152.84 120.12 153.113 120.987 153.66C121.867 154.207 122.534 155 122.987 156.04C123.44 157.067 123.667 158.327 123.667 159.82C123.667 161.407 123.387 162.747 122.827 163.84C122.267 164.933 121.494 165.76 120.507 166.32C119.52 166.88 118.367 167.16 117.047 167.16C116.394 167.16 115.76 167.093 115.147 166.96C114.547 166.827 114.02 166.62 113.567 166.34L114.327 164.78C114.7 165.02 115.114 165.193 115.567 165.3C116.034 165.393 116.52 165.44 117.027 165.44C118.44 165.44 119.567 165 120.407 164.12C121.247 163.227 121.667 161.907 121.667 160.16C121.667 159.88 121.654 159.547 121.627 159.16C121.6 158.773 121.54 158.393 121.447 158.02L122.107 158.7C121.92 159.313 121.607 159.833 121.167 160.26C120.74 160.673 120.22 160.987 119.607 161.2C119.007 161.4 118.347 161.5 117.627 161.5C116.707 161.5 115.887 161.327 115.167 160.98C114.447 160.633 113.88 160.147 113.467 159.52C113.054 158.88 112.847 158.127 112.847 157.26C112.847 156.353 113.06 155.573 113.487 154.92C113.927 154.253 114.52 153.74 115.267 153.38C116.027 153.02 116.867 152.84 117.787 152.84ZM117.867 154.46C117.267 154.46 116.734 154.573 116.267 154.8C115.8 155.027 115.434 155.34 115.167 155.74C114.914 156.14 114.787 156.62 114.787 157.18C114.787 158.007 115.074 158.667 115.647 159.16C116.22 159.64 116.994 159.88 117.967 159.88C118.607 159.88 119.167 159.76 119.647 159.52C120.14 159.28 120.52 158.953 120.787 158.54C121.067 158.127 121.207 157.667 121.207 157.16C121.207 156.667 121.08 156.22 120.827 155.82C120.574 155.42 120.2 155.093 119.707 154.84C119.214 154.587 118.6 154.46 117.867 154.46ZM125.908 162.34V160.68H131.288V162.34H125.908ZM132.91 167V165.64L138.61 160.14C139.117 159.66 139.49 159.24 139.73 158.88C139.983 158.507 140.15 158.167 140.23 157.86C140.323 157.54 140.37 157.233 140.37 156.94C140.37 156.22 140.117 155.653 139.61 155.24C139.103 154.827 138.363 154.62 137.39 154.62C136.643 154.62 135.97 154.747 135.37 155C134.77 155.24 134.25 155.62 133.81 156.14L132.45 154.96C132.983 154.28 133.697 153.76 134.59 153.4C135.497 153.027 136.49 152.84 137.57 152.84C138.543 152.84 139.39 153 140.11 153.32C140.83 153.627 141.383 154.073 141.77 154.66C142.17 155.247 142.37 155.94 142.37 156.74C142.37 157.193 142.31 157.64 142.19 158.08C142.07 158.52 141.843 158.987 141.51 159.48C141.177 159.973 140.697 160.527 140.07 161.14L134.99 166.04L134.51 165.26H142.97V167H132.91ZM150.315 167.16C149.221 167.16 148.241 166.88 147.375 166.32C146.521 165.76 145.841 164.947 145.335 163.88C144.841 162.813 144.595 161.52 144.595 160C144.595 158.48 144.841 157.187 145.335 156.12C145.841 155.053 146.521 154.24 147.375 153.68C148.241 153.12 149.221 152.84 150.315 152.84C151.395 152.84 152.368 153.12 153.235 153.68C154.101 154.24 154.781 155.053 155.275 156.12C155.768 157.187 156.015 158.48 156.015 160C156.015 161.52 155.768 162.813 155.275 163.88C154.781 164.947 154.101 165.76 153.235 166.32C152.368 166.88 151.395 167.16 150.315 167.16ZM150.315 165.38C151.048 165.38 151.688 165.18 152.235 164.78C152.795 164.38 153.228 163.78 153.535 162.98C153.855 162.18 154.015 161.187 154.015 160C154.015 158.813 153.855 157.82 153.535 157.02C153.228 156.22 152.795 155.62 152.235 155.22C151.688 154.82 151.048 154.62 150.315 154.62C149.581 154.62 148.935 154.82 148.375 155.22C147.815 155.62 147.375 156.22 147.055 157.02C146.748 157.82 146.595 158.813 146.595 160C146.595 161.187 146.748 162.18 147.055 162.98C147.375 163.78 147.815 164.38 148.375 164.78C148.935 165.18 149.581 165.38 150.315 165.38ZM160.295 167V153.8L161.155 154.74H157.135V153H162.275V167H160.295ZM169.877 152.84C171.144 152.84 172.21 153.113 173.077 153.66C173.957 154.207 174.624 155 175.077 156.04C175.53 157.067 175.757 158.327 175.757 159.82C175.757 161.407 175.477 162.747 174.917 163.84C174.357 164.933 173.584 165.76 172.597 166.32C171.61 166.88 170.457 167.16 169.137 167.16C168.484 167.16 167.85 167.093 167.237 166.96C166.637 166.827 166.11 166.62 165.657 166.34L166.417 164.78C166.79 165.02 167.204 165.193 167.657 165.3C168.124 165.393 168.61 165.44 169.117 165.44C170.53 165.44 171.657 165 172.497 164.12C173.337 163.227 173.757 161.907 173.757 160.16C173.757 159.88 173.744 159.547 173.717 159.16C173.69 158.773 173.63 158.393 173.537 158.02L174.197 158.7C174.01 159.313 173.697 159.833 173.257 160.26C172.83 160.673 172.31 160.987 171.697 161.2C171.097 161.4 170.437 161.5 169.717 161.5C168.797 161.5 167.977 161.327 167.257 160.98C166.537 160.633 165.97 160.147 165.557 159.52C165.144 158.88 164.937 158.127 164.937 157.26C164.937 156.353 165.15 155.573 165.577 154.92C166.017 154.253 166.61 153.74 167.357 153.38C168.117 153.02 168.957 152.84 169.877 152.84ZM169.957 154.46C169.357 154.46 168.824 154.573 168.357 154.8C167.89 155.027 167.524 155.34 167.257 155.74C167.004 156.14 166.877 156.62 166.877 157.18C166.877 158.007 167.164 158.667 167.737 159.16C168.31 159.64 169.084 159.88 170.057 159.88C170.697 159.88 171.257 159.76 171.737 159.52C172.23 159.28 172.61 158.953 172.877 158.54C173.157 158.127 173.297 157.667 173.297 157.16C173.297 156.667 173.17 156.22 172.917 155.82C172.664 155.42 172.29 155.093 171.797 154.84C171.304 154.587 170.69 154.46 169.957 154.46ZM175.77 169L182.37 150.16H184.11L177.51 169H175.77ZM187.287 167V153.8L188.147 154.74H184.127V153H189.267V167H187.287ZM192.109 167V165.64L197.809 160.14C198.316 159.66 198.689 159.24 198.929 158.88C199.182 158.507 199.349 158.167 199.429 157.86C199.522 157.54 199.569 157.233 199.569 156.94C199.569 156.22 199.316 155.653 198.809 155.24C198.302 154.827 197.562 154.62 196.589 154.62C195.842 154.62 195.169 154.747 194.569 155C193.969 155.24 193.449 155.62 193.009 156.14L191.649 154.96C192.182 154.28 192.896 153.76 193.789 153.4C194.696 153.027 195.689 152.84 196.769 152.84C197.742 152.84 198.589 153 199.309 153.32C200.029 153.627 200.582 154.073 200.969 154.66C201.369 155.247 201.569 155.94 201.569 156.74C201.569 157.193 201.509 157.64 201.389 158.08C201.269 158.52 201.042 158.987 200.709 159.48C200.376 159.973 199.896 160.527 199.269 161.14L194.189 166.04L193.709 165.26H202.169V167H192.109Z" fill="#505050"/>
</svg>
