<svg width="250" height="250" viewBox="0 0 250 250" fill="none" xmlns="http://www.w3.org/2000/svg">
<circle cx="125" cy="125" r="120.5" stroke="#F4B076" stroke-width="9"/>
<path d="M97.2 87.64L98.64 87.28V71.8H95.88C95.88 72.776 95.616 73.712 95.088 74.608C94.864 74.976 94.608 75.28 94.32 75.52H93.6V71.2H107.64V75.52H106.92C106.616 75.28 106.352 74.976 106.128 74.608C105.616 73.744 105.36 72.808 105.36 71.8H102.6V87.28L104.04 87.64V88H97.2V87.64ZM114.359 88.36C112.375 88.36 110.815 87.8 109.679 86.68C108.559 85.544 107.999 83.984 107.999 82C107.999 80.016 108.559 78.464 109.679 77.344C110.815 76.208 112.375 75.64 114.359 75.64C116.343 75.64 117.895 76.208 119.015 77.344C120.151 78.464 120.719 80.016 120.719 82C120.719 83.984 120.151 85.544 119.015 86.68C117.895 87.8 116.343 88.36 114.359 88.36ZM114.359 87.88C114.999 87.88 115.535 87.432 115.967 86.536C116.415 85.64 116.639 84.128 116.639 82C116.639 79.872 116.415 78.36 115.967 77.464C115.535 76.568 114.999 76.12 114.359 76.12C113.719 76.12 113.175 76.568 112.727 77.464C112.295 78.36 112.079 79.872 112.079 82C112.079 84.128 112.295 85.64 112.727 86.536C113.175 87.432 113.719 87.88 114.359 87.88ZM129.008 88.36C127.024 88.36 125.464 87.8 124.328 86.68C123.208 85.544 122.648 83.984 122.648 82C122.648 80.016 123.208 78.464 124.328 77.344C125.464 76.208 127.024 75.64 129.008 75.64C130.992 75.64 132.544 76.208 133.664 77.344C134.8 78.464 135.368 80.016 135.368 82C135.368 83.984 134.8 85.544 133.664 86.68C132.544 87.8 130.992 88.36 129.008 88.36ZM129.008 87.88C129.648 87.88 130.184 87.432 130.616 86.536C131.064 85.64 131.288 84.128 131.288 82C131.288 79.872 131.064 78.36 130.616 77.464C130.184 76.568 129.648 76.12 129.008 76.12C128.368 76.12 127.824 76.568 127.376 77.464C126.944 78.36 126.728 79.872 126.728 82C126.728 84.128 126.944 85.64 127.376 86.536C127.824 87.432 128.368 87.88 129.008 87.88ZM137.296 87.64L138.736 87.28V71.92L137.296 71.56V71.2H140.416C141.856 71.2 142.576 71.92 142.576 73.36V87.28L144.016 87.64V88H137.296V87.64ZM151.092 88.36C150.1 88.36 149.212 88.144 148.428 87.712C148.044 87.504 147.732 87.28 147.492 87.04C147.236 87.392 146.956 87.664 146.652 87.856C146.508 87.952 146.348 88.04 146.172 88.12H145.572V84.04H146.532C146.74 84.712 147.044 85.336 147.444 85.912C148.292 87.144 149.348 87.76 150.612 87.76C151.284 87.76 151.788 87.6 152.124 87.28C152.476 86.944 152.652 86.464 152.652 85.84C152.652 85.312 152.412 84.872 151.932 84.52C151.468 84.152 150.732 83.704 149.724 83.176C148.86 82.744 148.156 82.36 147.612 82.024C147.084 81.672 146.628 81.24 146.244 80.728C145.876 80.2 145.692 79.584 145.692 78.88C145.692 77.92 146.1 77.144 146.916 76.552C147.748 75.944 149.02 75.64 150.732 75.64C151.58 75.64 152.364 75.864 153.084 76.312C153.436 76.52 153.74 76.736 153.996 76.96C154.204 76.672 154.484 76.4 154.836 76.144C155.108 75.984 155.268 75.896 155.316 75.88H155.916V79.96H154.956C154.716 79.272 154.42 78.656 154.068 78.112C153.268 76.864 152.316 76.24 151.212 76.24C150.78 76.24 150.412 76.4 150.108 76.72C149.804 77.04 149.652 77.44 149.652 77.92C149.652 78.528 149.908 79.04 150.42 79.456C150.932 79.856 151.708 80.32 152.748 80.848C153.596 81.28 154.268 81.664 154.764 82C155.276 82.32 155.708 82.72 156.06 83.2C156.428 83.68 156.612 84.24 156.612 84.88C156.612 87.2 154.772 88.36 151.092 88.36Z" fill="#505050"/>
<path d="M74.1597 137L80.4997 123H82.4797L88.8397 137H86.7397L81.0797 124.12H81.8797L76.2197 137H74.1597ZM76.8597 133.5L77.3997 131.9H85.2797L85.8597 133.5H76.8597ZM94.9305 137.12C93.9038 137.12 92.9838 136.893 92.1705 136.44C91.3705 135.987 90.7371 135.353 90.2705 134.54C89.8038 133.727 89.5705 132.78 89.5705 131.7C89.5705 130.62 89.8038 129.68 90.2705 128.88C90.7371 128.067 91.3705 127.433 92.1705 126.98C92.9838 126.527 93.9038 126.3 94.9305 126.3C95.8238 126.3 96.6305 126.5 97.3505 126.9C98.0705 127.3 98.6438 127.9 99.0705 128.7C99.5105 129.5 99.7305 130.5 99.7305 131.7C99.7305 132.9 99.5171 133.9 99.0905 134.7C98.6771 135.5 98.1105 136.107 97.3905 136.52C96.6705 136.92 95.8505 137.12 94.9305 137.12ZM95.0905 135.44C95.7571 135.44 96.3571 135.287 96.8905 134.98C97.4371 134.673 97.8638 134.24 98.1705 133.68C98.4905 133.107 98.6505 132.447 98.6505 131.7C98.6505 130.94 98.4905 130.287 98.1705 129.74C97.8638 129.18 97.4371 128.747 96.8905 128.44C96.3571 128.133 95.7571 127.98 95.0905 127.98C94.4105 127.98 93.8038 128.133 93.2705 128.44C92.7371 128.747 92.3105 129.18 91.9905 129.74C91.6705 130.287 91.5105 130.94 91.5105 131.7C91.5105 132.447 91.6705 133.107 91.9905 133.68C92.3105 134.24 92.7371 134.673 93.2705 134.98C93.8038 135.287 94.4105 135.44 95.0905 135.44ZM98.7105 137V134.14L98.8305 131.68L98.6305 129.22V122.16H100.55V137H98.7105ZM108.723 137.12C107.657 137.12 106.71 136.887 105.883 136.42C105.057 135.953 104.403 135.313 103.923 134.5C103.443 133.673 103.203 132.74 103.203 131.7C103.203 130.647 103.443 129.713 103.923 128.9C104.403 128.087 105.057 127.453 105.883 127C106.71 126.533 107.657 126.3 108.723 126.3C109.777 126.3 110.717 126.533 111.543 127C112.383 127.453 113.037 128.087 113.503 128.9C113.983 129.7 114.223 130.633 114.223 131.7C114.223 132.753 113.983 133.687 113.503 134.5C113.037 135.313 112.383 135.953 111.543 136.42C110.717 136.887 109.777 137.12 108.723 137.12ZM108.723 135.44C109.403 135.44 110.01 135.287 110.543 134.98C111.09 134.673 111.517 134.24 111.823 133.68C112.13 133.107 112.283 132.447 112.283 131.7C112.283 130.94 112.13 130.287 111.823 129.74C111.517 129.18 111.09 128.747 110.543 128.44C110.01 128.133 109.403 127.98 108.723 127.98C108.043 127.98 107.437 128.133 106.903 128.44C106.37 128.747 105.943 129.18 105.623 129.74C105.303 130.287 105.143 130.94 105.143 131.7C105.143 132.447 105.303 133.107 105.623 133.68C105.943 134.24 106.37 134.673 106.903 134.98C107.437 135.287 108.043 135.44 108.723 135.44ZM122.499 137.12C121.592 137.12 120.772 136.92 120.039 136.52C119.319 136.107 118.745 135.5 118.319 134.7C117.905 133.9 117.699 132.9 117.699 131.7C117.699 130.5 117.912 129.5 118.339 128.7C118.779 127.9 119.359 127.3 120.079 126.9C120.812 126.5 121.619 126.3 122.499 126.3C123.539 126.3 124.459 126.527 125.259 126.98C126.059 127.433 126.692 128.067 127.159 128.88C127.625 129.68 127.859 130.62 127.859 131.7C127.859 132.78 127.625 133.727 127.159 134.54C126.692 135.353 126.059 135.987 125.259 136.44C124.459 136.893 123.539 137.12 122.499 137.12ZM116.879 137V122.16H118.799V129.22L118.599 131.68L118.719 134.14V137H116.879ZM122.339 135.44C123.019 135.44 123.625 135.287 124.159 134.98C124.705 134.673 125.132 134.24 125.439 133.68C125.759 133.107 125.919 132.447 125.919 131.7C125.919 130.94 125.759 130.287 125.439 129.74C125.132 129.18 124.705 128.747 124.159 128.44C123.625 128.133 123.019 127.98 122.339 127.98C121.672 127.98 121.065 128.133 120.519 128.44C119.985 128.747 119.559 129.18 119.239 129.74C118.932 130.287 118.779 130.94 118.779 131.7C118.779 132.447 118.932 133.107 119.239 133.68C119.559 134.24 119.985 134.673 120.519 134.98C121.065 135.287 121.672 135.44 122.339 135.44ZM135.231 137.12C134.098 137.12 133.098 136.887 132.231 136.42C131.378 135.953 130.711 135.313 130.231 134.5C129.765 133.687 129.531 132.753 129.531 131.7C129.531 130.647 129.758 129.713 130.211 128.9C130.678 128.087 131.311 127.453 132.111 127C132.925 126.533 133.838 126.3 134.851 126.3C135.878 126.3 136.785 126.527 137.571 126.98C138.358 127.433 138.971 128.073 139.411 128.9C139.865 129.713 140.091 130.667 140.091 131.76C140.091 131.84 140.085 131.933 140.071 132.04C140.071 132.147 140.065 132.247 140.051 132.34H131.031V130.96H139.051L138.271 131.44C138.285 130.76 138.145 130.153 137.851 129.62C137.558 129.087 137.151 128.673 136.631 128.38C136.125 128.073 135.531 127.92 134.851 127.92C134.185 127.92 133.591 128.073 133.071 128.38C132.551 128.673 132.145 129.093 131.851 129.64C131.558 130.173 131.411 130.787 131.411 131.48V131.8C131.411 132.507 131.571 133.14 131.891 133.7C132.225 134.247 132.685 134.673 133.271 134.98C133.858 135.287 134.531 135.44 135.291 135.44C135.918 135.44 136.485 135.333 136.991 135.12C137.511 134.907 137.965 134.587 138.351 134.16L139.411 135.4C138.931 135.96 138.331 136.387 137.611 136.68C136.905 136.973 136.111 137.12 135.231 137.12ZM146.569 137L152.389 129.06V130.6L146.889 123H149.169L153.529 128.98L152.629 129L156.969 123H159.149L153.689 130.48V129.04L159.509 137H157.209L152.569 130.62H153.449L148.869 137H146.569ZM161.397 137V123H167.297C168.79 123 170.104 123.293 171.237 123.88C172.384 124.467 173.27 125.287 173.897 126.34C174.537 127.393 174.857 128.613 174.857 130C174.857 131.387 174.537 132.607 173.897 133.66C173.27 134.713 172.384 135.533 171.237 136.12C170.104 136.707 168.79 137 167.297 137H161.397ZM163.397 135.26H167.177C168.337 135.26 169.337 135.04 170.177 134.6C171.03 134.16 171.69 133.547 172.157 132.76C172.624 131.96 172.857 131.04 172.857 130C172.857 128.947 172.624 128.027 172.157 127.24C171.69 126.453 171.03 125.84 170.177 125.4C169.337 124.96 168.337 124.74 167.177 124.74H163.397V135.26ZM60.3422 167V153H65.8022C67.0289 153 68.0755 153.193 68.9422 153.58C69.8089 153.967 70.4755 154.527 70.9422 155.26C71.4089 155.993 71.6422 156.867 71.6422 157.88C71.6422 158.893 71.4089 159.767 70.9422 160.5C70.4755 161.22 69.8089 161.78 68.9422 162.18C68.0755 162.567 67.0289 162.76 65.8022 162.76H61.4422L62.3422 161.82V167H60.3422ZM62.3422 162.02L61.4422 161.02H65.7422C67.0222 161.02 67.9889 160.747 68.6422 160.2C69.3089 159.653 69.6422 158.88 69.6422 157.88C69.6422 156.88 69.3089 156.107 68.6422 155.56C67.9889 155.013 67.0222 154.74 65.7422 154.74H61.4422L62.3422 153.74V162.02ZM74.1052 167V156.4H75.9452V159.28L75.7652 158.56C76.0585 157.827 76.5518 157.267 77.2452 156.88C77.9385 156.493 78.7918 156.3 79.8052 156.3V158.16C79.7252 158.147 79.6452 158.14 79.5652 158.14C79.4985 158.14 79.4318 158.14 79.3652 158.14C78.3385 158.14 77.5252 158.447 76.9252 159.06C76.3252 159.673 76.0252 160.56 76.0252 161.72V167H74.1052ZM86.7939 167.12C85.6606 167.12 84.6606 166.887 83.7939 166.42C82.9406 165.953 82.2739 165.313 81.7939 164.5C81.3272 163.687 81.0939 162.753 81.0939 161.7C81.0939 160.647 81.3206 159.713 81.7739 158.9C82.2406 158.087 82.8739 157.453 83.6739 157C84.4872 156.533 85.4006 156.3 86.4139 156.3C87.4406 156.3 88.3472 156.527 89.1339 156.98C89.9206 157.433 90.5339 158.073 90.9739 158.9C91.4272 159.713 91.6539 160.667 91.6539 161.76C91.6539 161.84 91.6472 161.933 91.6339 162.04C91.6339 162.147 91.6272 162.247 91.6139 162.34H82.5939V160.96H90.6139L89.8339 161.44C89.8472 160.76 89.7072 160.153 89.4139 159.62C89.1206 159.087 88.7139 158.673 88.1939 158.38C87.6872 158.073 87.0939 157.92 86.4139 157.92C85.7472 157.92 85.1539 158.073 84.6339 158.38C84.1139 158.673 83.7072 159.093 83.4139 159.64C83.1206 160.173 82.9739 160.787 82.9739 161.48V161.8C82.9739 162.507 83.1339 163.14 83.4539 163.7C83.7872 164.247 84.2472 164.673 84.8339 164.98C85.4206 165.287 86.0939 165.44 86.8539 165.44C87.4806 165.44 88.0472 165.333 88.5539 165.12C89.0739 164.907 89.5272 164.587 89.9139 164.16L90.9739 165.4C90.4939 165.96 89.8939 166.387 89.1739 166.68C88.4672 166.973 87.6739 167.12 86.7939 167.12ZM107.58 156.3C108.433 156.3 109.187 156.467 109.84 156.8C110.493 157.133 111 157.64 111.36 158.32C111.733 159 111.92 159.86 111.92 160.9V167H110V161.12C110 160.093 109.76 159.32 109.28 158.8C108.8 158.28 108.127 158.02 107.26 158.02C106.62 158.02 106.06 158.153 105.58 158.42C105.1 158.687 104.727 159.08 104.46 159.6C104.207 160.12 104.08 160.767 104.08 161.54V167H102.16V161.12C102.16 160.093 101.92 159.32 101.44 158.8C100.973 158.28 100.3 158.02 99.42 158.02C98.7933 158.02 98.24 158.153 97.76 158.42C97.28 158.687 96.9067 159.08 96.64 159.6C96.3733 160.12 96.24 160.767 96.24 161.54V167H94.32V156.4H96.16V159.22L95.86 158.5C96.1933 157.807 96.7067 157.267 97.4 156.88C98.0933 156.493 98.9 156.3 99.82 156.3C100.833 156.3 101.707 156.553 102.44 157.06C103.173 157.553 103.653 158.307 103.88 159.32L103.1 159C103.42 158.187 103.98 157.533 104.78 157.04C105.58 156.547 106.513 156.3 107.58 156.3ZM115.453 167V156.4H117.373V167H115.453ZM116.413 154.36C116.039 154.36 115.726 154.24 115.473 154C115.233 153.76 115.113 153.467 115.113 153.12C115.113 152.76 115.233 152.46 115.473 152.22C115.726 151.98 116.039 151.86 116.413 151.86C116.786 151.86 117.093 151.98 117.333 152.22C117.586 152.447 117.713 152.733 117.713 153.08C117.713 153.44 117.593 153.747 117.353 154C117.113 154.24 116.799 154.36 116.413 154.36ZM125.759 167.12C124.625 167.12 123.625 166.887 122.759 166.42C121.905 165.953 121.239 165.313 120.759 164.5C120.292 163.687 120.059 162.753 120.059 161.7C120.059 160.647 120.285 159.713 120.739 158.9C121.205 158.087 121.839 157.453 122.639 157C123.452 156.533 124.365 156.3 125.379 156.3C126.405 156.3 127.312 156.527 128.099 156.98C128.885 157.433 129.499 158.073 129.939 158.9C130.392 159.713 130.619 160.667 130.619 161.76C130.619 161.84 130.612 161.933 130.599 162.04C130.599 162.147 130.592 162.247 130.579 162.34H121.559V160.96H129.579L128.799 161.44C128.812 160.76 128.672 160.153 128.379 159.62C128.085 159.087 127.679 158.673 127.159 158.38C126.652 158.073 126.059 157.92 125.379 157.92C124.712 157.92 124.119 158.073 123.599 158.38C123.079 158.673 122.672 159.093 122.379 159.64C122.085 160.173 121.939 160.787 121.939 161.48V161.8C121.939 162.507 122.099 163.14 122.419 163.7C122.752 164.247 123.212 164.673 123.799 164.98C124.385 165.287 125.059 165.44 125.819 165.44C126.445 165.44 127.012 165.333 127.519 165.12C128.039 164.907 128.492 164.587 128.879 164.16L129.939 165.4C129.459 165.96 128.859 166.387 128.139 166.68C127.432 166.973 126.639 167.12 125.759 167.12ZM133.285 167V156.4H135.125V159.28L134.945 158.56C135.238 157.827 135.732 157.267 136.425 156.88C137.118 156.493 137.972 156.3 138.985 156.3V158.16C138.905 158.147 138.825 158.14 138.745 158.14C138.678 158.14 138.612 158.14 138.545 158.14C137.518 158.14 136.705 158.447 136.105 159.06C135.505 159.673 135.205 160.56 135.205 161.72V167H133.285ZM145.974 167.12C144.84 167.12 143.84 166.887 142.974 166.42C142.12 165.953 141.454 165.313 140.974 164.5C140.507 163.687 140.274 162.753 140.274 161.7C140.274 160.647 140.5 159.713 140.954 158.9C141.42 158.087 142.054 157.453 142.854 157C143.667 156.533 144.58 156.3 145.594 156.3C146.62 156.3 147.527 156.527 148.314 156.98C149.1 157.433 149.714 158.073 150.154 158.9C150.607 159.713 150.834 160.667 150.834 161.76C150.834 161.84 150.827 161.933 150.814 162.04C150.814 162.147 150.807 162.247 150.794 162.34H141.774V160.96H149.794L149.014 161.44C149.027 160.76 148.887 160.153 148.594 159.62C148.3 159.087 147.894 158.673 147.374 158.38C146.867 158.073 146.274 157.92 145.594 157.92C144.927 157.92 144.334 158.073 143.814 158.38C143.294 158.673 142.887 159.093 142.594 159.64C142.3 160.173 142.154 160.787 142.154 161.48V161.8C142.154 162.507 142.314 163.14 142.634 163.7C142.967 164.247 143.427 164.673 144.014 164.98C144.6 165.287 145.274 165.44 146.034 165.44C146.66 165.44 147.227 165.333 147.734 165.12C148.254 164.907 148.707 164.587 149.094 164.16L150.154 165.4C149.674 165.96 149.074 166.387 148.354 166.68C147.647 166.973 146.854 167.12 145.974 167.12ZM159.151 167V153H164.611C165.837 153 166.884 153.193 167.751 153.58C168.617 153.967 169.284 154.527 169.751 155.26C170.217 155.993 170.451 156.867 170.451 157.88C170.451 158.893 170.217 159.767 169.751 160.5C169.284 161.22 168.617 161.78 167.751 162.18C166.884 162.567 165.837 162.76 164.611 162.76H160.251L161.151 161.82V167H159.151ZM161.151 162.02L160.251 161.02H164.551C165.831 161.02 166.797 160.747 167.451 160.2C168.117 159.653 168.451 158.88 168.451 157.88C168.451 156.88 168.117 156.107 167.451 155.56C166.797 155.013 165.831 154.74 164.551 154.74H160.251L161.151 153.74V162.02ZM172.914 167V156.4H174.754V159.28L174.574 158.56C174.867 157.827 175.36 157.267 176.054 156.88C176.747 156.493 177.6 156.3 178.614 156.3V158.16C178.534 158.147 178.454 158.14 178.374 158.14C178.307 158.14 178.24 158.14 178.174 158.14C177.147 158.14 176.334 158.447 175.734 159.06C175.134 159.673 174.834 160.56 174.834 161.72V167H172.914ZM185.423 167.12C184.356 167.12 183.409 166.887 182.583 166.42C181.756 165.953 181.103 165.313 180.623 164.5C180.143 163.673 179.903 162.74 179.903 161.7C179.903 160.647 180.143 159.713 180.623 158.9C181.103 158.087 181.756 157.453 182.583 157C183.409 156.533 184.356 156.3 185.423 156.3C186.476 156.3 187.416 156.533 188.243 157C189.083 157.453 189.736 158.087 190.203 158.9C190.683 159.7 190.923 160.633 190.923 161.7C190.923 162.753 190.683 163.687 190.203 164.5C189.736 165.313 189.083 165.953 188.243 166.42C187.416 166.887 186.476 167.12 185.423 167.12ZM185.423 165.44C186.103 165.44 186.709 165.287 187.243 164.98C187.789 164.673 188.216 164.24 188.523 163.68C188.829 163.107 188.983 162.447 188.983 161.7C188.983 160.94 188.829 160.287 188.523 159.74C188.216 159.18 187.789 158.747 187.243 158.44C186.709 158.133 186.103 157.98 185.423 157.98C184.743 157.98 184.136 158.133 183.603 158.44C183.069 158.747 182.643 159.18 182.323 159.74C182.003 160.287 181.843 160.94 181.843 161.7C181.843 162.447 182.003 163.107 182.323 163.68C182.643 164.24 183.069 164.673 183.603 164.98C184.136 165.287 184.743 165.44 185.423 165.44Z" fill="#505050"/>
</svg>
