<svg width="441" height="878" viewBox="0 0 441 878" fill="none" xmlns="http://www.w3.org/2000/svg">
<g filter="url(#filter0_d_101_129)">
<rect width="375" height="812" transform="translate(19 19)" fill="white"/>
<circle r="5.5" transform="matrix(1 0 0 -1 180.5 794.5)" fill="#D9D9D9"/>
<circle r="5.5" transform="matrix(1 0 0 -1 206.5 794.5)" fill="#C5EBFF"/>
<circle r="5.5" transform="matrix(1 0 0 -1 232.5 794.5)" fill="#D9D9D9"/>
<path d="M166.36 331.22C165.68 333.14 164.5 334.96 163.14 336.14C163.48 336.36 164.04 336.84 164.26 337.1C165.66 335.74 166.96 333.7 167.74 331.56L166.36 331.22ZM166.28 336.26C165.74 337.66 164.84 339.06 163.8 340.02C164.14 340.2 164.74 340.58 165.02 340.8C166.02 339.76 167.06 338.2 167.68 336.62L166.28 336.26ZM166.16 333.18L165.64 334.5H174.84V333.18H166.16ZM169.1 334.08V341.04C169.1 341.26 169.04 341.32 168.78 341.34C168.52 341.36 167.68 341.36 166.74 341.32C166.96 341.7 167.16 342.26 167.24 342.66C168.5 342.66 169.32 342.64 169.84 342.42C170.4 342.2 170.54 341.8 170.54 341.04V334.08H169.1ZM171.64 336.7C172.58 338 173.56 339.82 173.96 341L175.26 340.38C174.84 339.22 173.86 337.46 172.88 336.16L171.64 336.7ZM174.42 333.18V333.4C174.04 334.52 173.5 335.9 173.04 336.74L174.34 337C174.82 336.12 175.44 334.66 175.94 333.4L174.9 333.14L174.66 333.18H174.42ZM162.98 343.64V347.26C162.98 348.84 163.52 349.26 165.6 349.26C166.04 349.26 169.02 349.26 169.48 349.26C171.2 349.26 171.66 348.66 171.84 346.24C171.42 346.14 170.82 345.92 170.5 345.66C170.4 347.64 170.26 347.9 169.38 347.9C168.72 347.9 166.22 347.9 165.72 347.9C164.66 347.9 164.46 347.8 164.46 347.26V343.64H162.98ZM164.7 343.04C166 343.68 167.48 344.76 168.16 345.56L169.24 344.58C168.52 343.78 166.98 342.76 165.7 342.14L164.7 343.04ZM171.28 344.26C172.78 345.54 174.26 347.42 174.84 348.74L176.18 347.98C175.56 346.62 174 344.82 172.52 343.56L171.28 344.26ZM160.54 343.88C160.12 345.56 159.26 347.16 157.78 348.1L159.02 348.96C160.6 347.9 161.38 346.12 161.88 344.32L160.54 343.88ZM162.46 331.2C161.32 333.4 159.44 335.6 157.56 337.02C157.86 337.28 158.36 337.88 158.54 338.18C160.48 336.6 162.5 334.14 163.8 331.66L162.46 331.2ZM160.62 334.96V342.64H162.06V333.56L162.04 333.54L160.62 334.96ZM179.62 334.42V335.76H184.3V346.14H179.62V347.5H185.7V334.42H179.62ZM178.72 334.42V349.1H180.12V334.42H178.72ZM179.52 339.98V341.32H185.04V339.98H179.52ZM181.78 331.16C181.62 332.2 181.24 333.72 180.9 334.68L182.1 334.98C182.5 334.08 183 332.7 183.4 331.46L181.78 331.16ZM188.54 334.36V335.76H194.68V334.36H188.54ZM194.16 334.36V334.68C193.88 343.5 193.56 346.82 192.9 347.54C192.68 347.8 192.44 347.86 192.04 347.86C191.58 347.86 190.38 347.84 189.08 347.74C189.36 348.14 189.54 348.76 189.58 349.2C190.7 349.26 191.88 349.3 192.56 349.22C193.26 349.16 193.72 348.98 194.16 348.4C194.96 347.42 195.24 344.32 195.56 335.14C195.56 334.92 195.56 334.36 195.56 334.36H194.16ZM188.96 331.12C188.32 333.9 187.22 336.66 185.86 338.42C186.22 338.62 186.84 339.04 187.1 339.28C188.48 337.38 189.66 334.44 190.4 331.46L188.96 331.12ZM188.04 339.56C189.14 341.02 190.48 343 191.08 344.22L192.36 343.42C191.72 342.24 190.34 340.3 189.2 338.88L188.04 339.56ZM202.16 336.36V337.52H211.64V336.36H202.16ZM202.16 339.38V340.54H211.64V339.38H202.16ZM210.98 333.2V347.52C210.98 347.92 210.84 348.06 210.4 348.06C209.96 348.08 208.46 348.1 206.88 348.02C207.1 348.48 207.36 349.18 207.44 349.62C209.48 349.62 210.78 349.6 211.54 349.34C212.28 349.08 212.52 348.58 212.52 347.52V333.2H210.98ZM198.08 342.86L198.3 344.36C201.78 344.12 206.88 343.72 211.68 343.32L211.7 342.06C206.72 342.38 201.38 342.7 198.08 342.86ZM214.4 337.64C210.94 342.82 204.88 346.24 197.9 348.08C198.2 348.4 198.7 349.1 198.9 349.46C205.84 347.4 212.02 343.9 215.82 338.36L214.4 337.64ZM206.14 331.16C205.9 331.98 205.38 333.16 204.94 333.96L206.28 334.28C206.78 333.56 207.42 332.46 207.94 331.44L206.14 331.16ZM201.22 333.2V343.46H202.7V334.52H211.48V333.2H201.22ZM218.3 333.12V334.42H235.68V333.12H218.3ZM226.12 331.2V333.74H227.66V331.2H226.12ZM219.18 340.94V349.62H220.64V342.22H234.04V340.94H219.18ZM233.42 340.94V347.78C233.42 348.06 233.34 348.16 233 348.16C232.66 348.2 231.54 348.2 230.22 348.16C230.44 348.56 230.66 349.16 230.72 349.58C232.38 349.58 233.46 349.56 234.1 349.34C234.74 349.08 234.92 348.64 234.92 347.82V340.94H233.42ZM223.18 343.52V348.76H224.52V343.52H223.18ZM223.9 343.52V344.6H229.46V346.66H223.9V347.74H230.82V343.52H223.9ZM223.06 336.64H230.88V338.58H223.06V336.64ZM221.62 335.54V339.68H232.4V335.54H221.62ZM245.88 343.18H247.52C247 340.18 251.78 339.56 251.78 336.54C251.78 334.24 249.96 332.78 247.14 332.78C244.98 332.78 243.42 333.72 242.1 335.12L243.16 336.1C244.32 334.9 245.58 334.3 246.96 334.3C249 334.3 249.98 335.3 249.98 336.68C249.98 338.96 245.28 339.84 245.88 343.18ZM246.74 348.1C247.44 348.1 248.02 347.6 248.02 346.8C248.02 346 247.44 345.46 246.74 345.46C246.04 345.46 245.46 346 245.46 346.8C245.46 347.6 246.02 348.1 246.74 348.1Z" fill="black"/>
<path d="M166.36 446.22C165.68 448.14 164.5 449.96 163.14 451.14C163.48 451.36 164.04 451.84 164.26 452.1C165.66 450.74 166.96 448.7 167.74 446.56L166.36 446.22ZM166.28 451.26C165.74 452.66 164.84 454.06 163.8 455.02C164.14 455.2 164.74 455.58 165.02 455.8C166.02 454.76 167.06 453.2 167.68 451.62L166.28 451.26ZM166.16 448.18L165.64 449.5H174.84V448.18H166.16ZM169.1 449.08V456.04C169.1 456.26 169.04 456.32 168.78 456.34C168.52 456.36 167.68 456.36 166.74 456.32C166.96 456.7 167.16 457.26 167.24 457.66C168.5 457.66 169.32 457.64 169.84 457.42C170.4 457.2 170.54 456.8 170.54 456.04V449.08H169.1ZM171.64 451.7C172.58 453 173.56 454.82 173.96 456L175.26 455.38C174.84 454.22 173.86 452.46 172.88 451.16L171.64 451.7ZM174.42 448.18V448.4C174.04 449.52 173.5 450.9 173.04 451.74L174.34 452C174.82 451.12 175.44 449.66 175.94 448.4L174.9 448.14L174.66 448.18H174.42ZM162.98 458.64V462.26C162.98 463.84 163.52 464.26 165.6 464.26C166.04 464.26 169.02 464.26 169.48 464.26C171.2 464.26 171.66 463.66 171.84 461.24C171.42 461.14 170.82 460.92 170.5 460.66C170.4 462.64 170.26 462.9 169.38 462.9C168.72 462.9 166.22 462.9 165.72 462.9C164.66 462.9 164.46 462.8 164.46 462.26V458.64H162.98ZM164.7 458.04C166 458.68 167.48 459.76 168.16 460.56L169.24 459.58C168.52 458.78 166.98 457.76 165.7 457.14L164.7 458.04ZM171.28 459.26C172.78 460.54 174.26 462.42 174.84 463.74L176.18 462.98C175.56 461.62 174 459.82 172.52 458.56L171.28 459.26ZM160.54 458.88C160.12 460.56 159.26 462.16 157.78 463.1L159.02 463.96C160.6 462.9 161.38 461.12 161.88 459.32L160.54 458.88ZM162.46 446.2C161.32 448.4 159.44 450.6 157.56 452.02C157.86 452.28 158.36 452.88 158.54 453.18C160.48 451.6 162.5 449.14 163.8 446.66L162.46 446.2ZM160.62 449.96V457.64H162.06V448.56L162.04 448.54L160.62 449.96ZM179.62 449.42V450.76H184.3V461.14H179.62V462.5H185.7V449.42H179.62ZM178.72 449.42V464.1H180.12V449.42H178.72ZM179.52 454.98V456.32H185.04V454.98H179.52ZM181.78 446.16C181.62 447.2 181.24 448.72 180.9 449.68L182.1 449.98C182.5 449.08 183 447.7 183.4 446.46L181.78 446.16ZM188.54 449.36V450.76H194.68V449.36H188.54ZM194.16 449.36V449.68C193.88 458.5 193.56 461.82 192.9 462.54C192.68 462.8 192.44 462.86 192.04 462.86C191.58 462.86 190.38 462.84 189.08 462.74C189.36 463.14 189.54 463.76 189.58 464.2C190.7 464.26 191.88 464.3 192.56 464.22C193.26 464.16 193.72 463.98 194.16 463.4C194.96 462.42 195.24 459.32 195.56 450.14C195.56 449.92 195.56 449.36 195.56 449.36H194.16ZM188.96 446.12C188.32 448.9 187.22 451.66 185.86 453.42C186.22 453.62 186.84 454.04 187.1 454.28C188.48 452.38 189.66 449.44 190.4 446.46L188.96 446.12ZM188.04 454.56C189.14 456.02 190.48 458 191.08 459.22L192.36 458.42C191.72 457.24 190.34 455.3 189.2 453.88L188.04 454.56ZM206.26 454.9V456H216.1V454.9H206.26ZM205.9 463.1V464.24H216.24V463.1H205.9ZM209.24 446.22V448.72H210.38V446.22H209.24ZM211.8 446.22V448.72H212.94V446.22H211.8ZM208.5 457.94H213.74V459.7H208.5V457.94ZM207.26 456.96V460.68H215.04V456.96H207.26ZM208.04 451.46H214.2V452.84H208.04V451.46ZM208.04 449.1H214.2V450.46H208.04V449.1ZM206.86 448.06V453.9H215.42V448.06H206.86ZM208.2 461.08C208.6 461.8 208.92 462.78 209.02 463.44L210.18 463.02C210.06 462.36 209.72 461.42 209.28 460.72L208.2 461.08ZM212.84 460.7C212.64 461.36 212.24 462.38 211.92 463.06L212.9 463.4C213.24 462.78 213.7 461.88 214.12 461.06L212.84 460.7ZM200.08 457.42V458.5H204.54V457.42H200.08ZM200.08 459.98V461.08H204.54V459.98H200.08ZM199.38 454.9V464.62H200.66V456H204.48V454.9H199.38ZM203.68 454.9V463.18C203.68 463.38 203.6 463.44 203.4 463.44C203.22 463.46 202.58 463.46 201.88 463.44C202.04 463.76 202.22 464.26 202.28 464.6C203.34 464.6 204 464.6 204.42 464.38C204.86 464.18 204.98 463.84 204.98 463.2V454.9H203.68ZM199.36 446.92V453H200.52V448.06H203.82V453H205V446.92H199.36ZM198.22 452.48V455.36H199.36V453.58H205V455.36H206.18V452.48H198.22ZM201.56 449.36V452.9H202.52V450.32H204.58V449.36H201.56ZM209.44 448.46V453.38H210.38V448.46H209.44ZM211.8 448.46V453.38H212.74V448.46H211.8ZM218.04 462.74V463.98H235.98V462.74H218.04ZM218.14 449.76V451H235.86V449.76H218.14ZM219.52 459.82V461.02H234.7V459.82H219.52ZM226.16 447.74V463.34H227.66V447.74H226.16ZM233.12 446.32C229.96 446.9 224.3 447.26 219.64 447.38C219.78 447.7 219.96 448.22 219.96 448.58C224.64 448.48 230.34 448.14 233.92 447.48L233.12 446.32ZM221.62 455.8H232.44V457.34H221.62V455.8ZM221.62 453.28H232.44V454.8H221.62V453.28ZM220.16 452.2V458.42H233.96V452.2H220.16ZM245.88 458.18H247.52C247 455.18 251.78 454.56 251.78 451.54C251.78 449.24 249.96 447.78 247.14 447.78C244.98 447.78 243.42 448.72 242.1 450.12L243.16 451.1C244.32 449.9 245.58 449.3 246.96 449.3C249 449.3 249.98 450.3 249.98 451.68C249.98 453.96 245.28 454.84 245.88 458.18ZM246.74 463.1C247.44 463.1 248.02 462.6 248.02 461.8C248.02 461 247.44 460.46 246.74 460.46C246.04 460.46 245.46 461 245.46 461.8C245.46 462.6 246.02 463.1 246.74 463.1Z" fill="black"/>
<line x1="99" y1="396.5" x2="314" y2="396.5" stroke="black"/>
<line x1="99" y1="519.5" x2="314" y2="519.5" stroke="black"/>
<g filter="url(#filter1_d_101_129)">
<rect x="109" y="685" width="194" height="49" rx="24.5" fill="#C5EBFF"/>
</g>
<path d="M177.1 700.68V702.2H194.9V700.68H177.1ZM184.8 701.88V717.58H186.38V701.88H184.8ZM185.68 706.62C188.1 707.86 191.22 709.76 192.76 711L193.82 709.64C192.22 708.44 189.06 706.62 186.66 705.46L185.68 706.62ZM196.88 707.38V709.02H215.18V707.38H196.88ZM225.26 706.56V711.32C225.26 711.54 225.18 711.6 224.9 711.62C224.6 711.64 223.62 711.64 222.56 711.6C222.76 712 222.98 712.54 223.04 712.94C224.46 712.94 225.4 712.94 226 712.72C226.6 712.5 226.76 712.12 226.76 711.34V706.56H225.26ZM221.26 707.38C220.26 708.88 218.62 710.36 217.04 711.32C217.42 711.56 218.04 712.04 218.34 712.32C219.88 711.26 221.64 709.58 222.8 707.9L221.26 707.38ZM231.34 707.94C229.62 712.98 225.74 715.36 218.52 716.24C218.84 716.6 219.14 717.2 219.3 717.64C226.8 716.56 230.92 713.94 232.84 708.46L231.34 707.94ZM217.06 705.26V706.7H234.94V705.26H217.06ZM226.14 701.58V702.98H232.92V701.58H226.14ZM225.24 699.22V706.1H226.78V699.22H225.24ZM220.06 700.76V706.02H221.58V700.76H220.06Z" fill="black" fill-opacity="0.52"/>
<path d="M76.976 135.52V136.912H90.776V135.52H76.976ZM77.432 143.248V144.472H90.464V143.248H77.432ZM77.84 145.72V146.92H90.032V145.72H77.84ZM76.688 148.264V149.608H90.92V148.264H76.688ZM82.856 133.84V136.216H84.68V133.84H82.856ZM80.36 141.928V148.864H81.992V141.928H80.36ZM85.616 141.928V148.864H87.248V141.928H85.616ZM82.688 148.6C81.368 149.944 78.704 150.976 76.304 151.624C76.592 151.888 77.048 152.512 77.216 152.824C79.688 152.008 82.544 150.712 84.056 149.032L82.688 148.6ZM85.064 148.84L83.696 149.152C84.776 152.44 87.008 154.888 90.248 155.968C90.464 155.56 90.92 154.984 91.28 154.672C88.208 153.832 86.024 151.624 85.064 148.84ZM89.576 149.992C88.688 150.616 87.128 151.528 86.048 152.032L86.912 152.92C88.016 152.44 89.48 151.72 90.56 150.928L89.576 149.992ZM79.28 139H81.824V140.848H79.28V139ZM77.912 137.872V141.952H83.264V137.872H77.912ZM85.928 139H88.544V140.848H85.928V139ZM84.536 137.872V141.952H89.984V137.872H84.536ZM69.896 141.112V142.552H76.064V141.112H69.896ZM70.04 134.704V136.144H75.992V134.704H70.04ZM69.896 144.328V145.768H76.064V144.328H69.896ZM68.912 137.848V139.336H76.664V137.848H68.912ZM70.736 147.568V149.056H74.528V153.064H70.736V154.552H76.04V147.568H70.736ZM69.848 147.568V155.68H71.336V147.568H69.848ZM77.72 154.288L78.176 155.752C80.288 155.368 83 154.888 85.64 154.384L85.544 153.04C82.664 153.52 79.736 154 77.72 154.288ZM79.952 150.952V154.552H81.512V150.352L80.816 150.088L79.952 150.952ZM104.164 154V133.375H109.613C110.754 133.375 111.656 133.629 112.32 134.137C112.992 134.645 113.473 135.367 113.762 136.305C114.051 137.242 114.195 138.359 114.195 139.656C114.195 140.906 114.074 141.996 113.832 142.926C113.59 143.848 113.156 144.562 112.531 145.07C111.914 145.578 111.035 145.832 109.895 145.832H108.219V154H104.164ZM108.219 142.129H108.453C109.219 142.129 109.688 141.914 109.859 141.484C110.031 141.055 110.117 140.422 110.117 139.586C110.117 138.805 110.031 138.203 109.859 137.781C109.695 137.352 109.301 137.137 108.676 137.137H108.219V142.129ZM120.547 154.188C117.047 154.188 115.297 152.371 115.297 148.738V141.684C115.297 140.027 115.762 138.707 116.691 137.723C117.621 136.73 118.906 136.234 120.547 136.234C122.195 136.234 123.484 136.73 124.414 137.723C125.344 138.707 125.809 140.027 125.809 141.684V148.738C125.809 152.371 124.055 154.188 120.547 154.188ZM120.547 150.953C120.898 150.953 121.148 150.828 121.297 150.578C121.453 150.32 121.531 149.996 121.531 149.605V141.016C121.531 139.992 121.203 139.48 120.547 139.48C119.891 139.48 119.562 139.992 119.562 141.016V149.605C119.562 149.996 119.637 150.32 119.785 150.578C119.941 150.828 120.195 150.953 120.547 150.953ZM132.652 154.188C130.684 154.188 129.285 153.684 128.457 152.676C127.637 151.668 127.227 150.188 127.227 148.234V142.82C127.227 141.352 127.383 140.129 127.695 139.152C128.008 138.176 128.555 137.445 129.336 136.961C130.117 136.477 131.203 136.234 132.594 136.234C133.562 136.234 134.43 136.406 135.195 136.75C135.969 137.094 136.578 137.598 137.023 138.262C137.469 138.926 137.691 139.738 137.691 140.699V143.383H133.414V140.922C133.414 140.516 133.355 140.176 133.238 139.902C133.121 139.621 132.867 139.48 132.477 139.48C131.789 139.48 131.445 139.969 131.445 140.945V149.465C131.445 149.824 131.523 150.156 131.68 150.461C131.836 150.758 132.094 150.906 132.453 150.906C132.82 150.906 133.074 150.762 133.215 150.473C133.363 150.176 133.438 149.832 133.438 149.441V146.488H137.691V149.559C137.691 150.527 137.473 151.359 137.035 152.055C136.605 152.742 136.012 153.27 135.254 153.637C134.496 154.004 133.629 154.188 132.652 154.188ZM139.156 154V133.375H143.305V142.48L145.32 136.422H149.668L147.031 144.062L150.383 154H145.918L143.305 145.715V154H139.156ZM155.867 154.188C154.617 154.188 153.621 153.953 152.879 153.484C152.137 153.016 151.605 152.34 151.285 151.457C150.965 150.574 150.805 149.512 150.805 148.27V141.203C150.805 139.57 151.273 138.336 152.211 137.5C153.148 136.656 154.438 136.234 156.078 136.234C159.453 136.234 161.141 137.891 161.141 141.203V142.48C161.141 144.027 161.125 145.066 161.094 145.598H155V148.996C155 149.309 155.02 149.617 155.059 149.922C155.098 150.219 155.184 150.465 155.316 150.66C155.457 150.855 155.68 150.953 155.984 150.953C156.422 150.953 156.695 150.766 156.805 150.391C156.914 150.008 156.969 149.512 156.969 148.902V147.215H161.141V148.211C161.141 149.523 160.977 150.625 160.648 151.516C160.328 152.398 159.781 153.066 159.008 153.52C158.242 153.965 157.195 154.188 155.867 154.188ZM154.977 143.512H156.969V141.145C156.969 140.512 156.891 140.059 156.734 139.785C156.578 139.504 156.344 139.363 156.031 139.363C155.695 139.363 155.434 139.496 155.246 139.762C155.066 140.027 154.977 140.488 154.977 141.145V143.512ZM166.273 154.188C165.141 154.188 164.375 153.949 163.977 153.473C163.586 152.988 163.391 152.25 163.391 151.258V140.301H162.207V137.102H163.391V133.375H167.469V137.102H168.652V140.301H167.469V150.273C167.469 150.562 167.516 150.766 167.609 150.883C167.703 151 167.883 151.059 168.148 151.059C168.336 151.059 168.504 151.043 168.652 151.012V153.871C168.559 153.902 168.266 153.961 167.773 154.047C167.281 154.141 166.781 154.188 166.273 154.188ZM177.465 154V137.336H175.016V133.375H184.039V137.336H181.59V154H177.465ZM185.117 154V136.422H189.383V138.379C189.586 137.699 189.945 137.168 190.461 136.785C190.977 136.402 191.625 136.211 192.406 136.211V139.715C192.062 139.715 191.652 139.754 191.176 139.832C190.699 139.902 190.281 140.004 189.922 140.137C189.562 140.262 189.383 140.402 189.383 140.559V154H185.117ZM196.637 154.188C195.66 154.188 194.914 153.961 194.398 153.508C193.891 153.055 193.543 152.434 193.355 151.645C193.168 150.855 193.074 149.961 193.074 148.961C193.074 147.891 193.18 147.016 193.391 146.336C193.602 145.648 193.961 145.086 194.469 144.648C194.984 144.211 195.691 143.84 196.59 143.535L199.191 142.645V140.84C199.191 139.895 198.883 139.422 198.266 139.422C197.703 139.422 197.422 139.805 197.422 140.57V141.625H193.344C193.336 141.562 193.332 141.484 193.332 141.391C193.332 141.289 193.332 141.176 193.332 141.051C193.332 139.301 193.742 138.062 194.562 137.336C195.391 136.602 196.699 136.234 198.488 136.234C199.426 136.234 200.266 136.402 201.008 136.738C201.75 137.066 202.336 137.555 202.766 138.203C203.203 138.852 203.422 139.652 203.422 140.605V154H199.25V151.914C199.047 152.648 198.711 153.211 198.242 153.602C197.773 153.992 197.238 154.188 196.637 154.188ZM198.289 150.93C198.633 150.93 198.867 150.785 198.992 150.496C199.117 150.207 199.18 149.895 199.18 149.559V144.66C198.602 144.895 198.152 145.191 197.832 145.551C197.512 145.902 197.352 146.422 197.352 147.109V149.371C197.352 150.41 197.664 150.93 198.289 150.93ZM205.016 135.344V131.852H209.211V135.344H205.016ZM205.016 154V136.422H209.211V154H205.016ZM210.875 154V136.422H215.07V138.66C215.227 137.988 215.516 137.418 215.938 136.949C216.367 136.473 216.961 136.234 217.719 136.234C218.938 136.234 219.82 136.609 220.367 137.359C220.922 138.109 221.199 139.137 221.199 140.441V154H217.062V140.875C217.062 140.531 216.992 140.215 216.852 139.926C216.711 139.629 216.469 139.48 216.125 139.48C215.805 139.48 215.566 139.594 215.41 139.82C215.262 140.039 215.168 140.316 215.129 140.652C215.09 140.98 215.07 141.309 215.07 141.637V154H210.875ZM227.773 154.188C226.523 154.188 225.527 153.953 224.785 153.484C224.043 153.016 223.512 152.34 223.191 151.457C222.871 150.574 222.711 149.512 222.711 148.27V141.203C222.711 139.57 223.18 138.336 224.117 137.5C225.055 136.656 226.344 136.234 227.984 136.234C231.359 136.234 233.047 137.891 233.047 141.203V142.48C233.047 144.027 233.031 145.066 233 145.598H226.906V148.996C226.906 149.309 226.926 149.617 226.965 149.922C227.004 150.219 227.09 150.465 227.223 150.66C227.363 150.855 227.586 150.953 227.891 150.953C228.328 150.953 228.602 150.766 228.711 150.391C228.82 150.008 228.875 149.512 228.875 148.902V147.215H233.047V148.211C233.047 149.523 232.883 150.625 232.555 151.516C232.234 152.398 231.688 153.066 230.914 153.52C230.148 153.965 229.102 154.188 227.773 154.188ZM226.883 143.512H228.875V141.145C228.875 140.512 228.797 140.059 228.641 139.785C228.484 139.504 228.25 139.363 227.938 139.363C227.602 139.363 227.34 139.496 227.152 139.762C226.973 140.027 226.883 140.488 226.883 141.145V143.512ZM234.57 154V136.422H238.836V138.379C239.039 137.699 239.398 137.168 239.914 136.785C240.43 136.402 241.078 136.211 241.859 136.211V139.715C241.516 139.715 241.105 139.754 240.629 139.832C240.152 139.902 239.734 140.004 239.375 140.137C239.016 140.262 238.836 140.402 238.836 140.559V154H234.57ZM258.76 142.024V153.568C258.76 154 258.592 154.144 258.064 154.168C257.512 154.192 255.664 154.192 253.672 154.12C253.96 154.648 254.296 155.416 254.416 155.944C256.84 155.944 258.448 155.92 259.384 155.632C260.32 155.368 260.632 154.816 260.632 153.616V142.024H258.76ZM250.024 135.736V137.488H267.352V135.736H250.024ZM266.704 135.736V136.168C265.192 138.16 262.024 140.92 259.288 142.432C259.672 142.696 260.248 143.296 260.512 143.68C263.488 142 266.872 139.168 269.008 136.624L267.616 135.616L267.184 135.736H266.704ZM274.984 139.936V141.352H281.92V139.936H274.984ZM274.984 144.016V145.384H281.92V144.016H274.984ZM274.984 148.192V149.608H281.92V148.192H274.984ZM285.208 145.216V146.776H294.352V145.216H285.208ZM276.232 136V137.416H280.216V136H276.232ZM283.672 135.064V136.6H293.056V135.064H283.672ZM283.384 149.704V151.312H294.76V149.704H283.384ZM288.448 142.744V155.824H290.176V142.744H288.448ZM277.96 140.632V148.792H279.256V140.632H277.96ZM292.48 135.064V135.304C292.312 139.072 292.12 140.464 291.808 140.824C291.664 141.016 291.448 141.064 291.112 141.04C290.776 141.04 289.912 141.04 288.952 140.944C289.168 141.352 289.336 141.976 289.36 142.456C290.368 142.504 291.376 142.504 291.856 142.456C292.48 142.408 292.84 142.264 293.176 141.856C293.68 141.304 293.92 139.744 294.088 135.736C294.112 135.52 294.112 135.064 294.112 135.064H292.48ZM285.304 142.96C284.896 145 284.152 147.016 283.12 148.36C283.504 148.552 284.224 148.912 284.536 149.128C285.544 147.688 286.384 145.504 286.864 143.272L285.304 142.96ZM276.184 133.84C275.464 136.792 274.12 139.648 272.416 141.496C272.8 141.736 273.496 142.288 273.784 142.576C275.488 140.536 276.952 137.44 277.84 134.2L276.184 133.84ZM274.288 139.936V146.32C274.288 149.032 274.12 152.608 272.488 155.152C272.848 155.32 273.52 155.728 273.784 155.968C275.488 153.304 275.776 149.248 275.776 146.32V139.936H274.288ZM281.44 139.936V153.952C281.44 154.264 281.296 154.36 280.984 154.384C280.648 154.408 279.568 154.408 278.344 154.36C278.56 154.792 278.824 155.488 278.896 155.896C280.552 155.896 281.536 155.872 282.136 155.608C282.76 155.344 282.952 154.84 282.952 153.952V139.936H281.44ZM287.08 135.568C286.744 138.28 285.88 140.656 282.928 141.904C283.288 142.168 283.72 142.744 283.936 143.128C287.296 141.616 288.328 138.88 288.736 135.568H287.08ZM279.784 136V136.288C279.424 137.488 278.752 139.216 278.152 140.296C278.488 140.44 279.016 140.752 279.304 140.992C280.024 139.864 280.936 138.088 281.44 136.6L280.384 135.904L280.144 136H279.784ZM306.832 133.96C306.04 137.488 304.648 140.944 302.872 143.176C303.28 143.44 304 144.016 304.312 144.328C306.16 141.88 307.672 138.184 308.608 134.344L306.832 133.96ZM306.424 144.136C305.752 147.016 304.6 149.872 303.112 151.72C303.544 151.936 304.312 152.416 304.672 152.704C306.136 150.688 307.432 147.64 308.176 144.496L306.424 144.136ZM306.616 138.472L305.92 140.152H317.416V138.472H306.616ZM310.336 139.168V153.736C310.336 154.048 310.24 154.144 309.928 154.144C309.592 154.144 308.56 154.168 307.432 154.12C307.696 154.648 307.96 155.44 308.08 155.944C309.568 155.944 310.6 155.896 311.248 155.584C311.92 155.296 312.136 154.768 312.136 153.736V139.168H310.336ZM313.864 144.496C315.184 147.016 316.384 150.4 316.768 152.608L318.472 152.032C318.064 149.8 316.864 146.488 315.472 143.968L313.864 144.496ZM316.888 138.472V138.736C316.648 140.32 316.336 142.336 316.072 143.536L317.632 143.824C317.944 142.528 318.352 140.464 318.688 138.688L317.44 138.424L317.128 138.472H316.888ZM302.008 133.936C300.664 137.584 298.408 141.184 296.032 143.512C296.368 143.92 296.872 144.88 297.064 145.288C299.656 142.6 302.128 138.544 303.712 134.464L302.008 133.936ZM299.512 140.128V155.896H301.24V138.448L301.192 138.424L299.512 140.128ZM330.88 148.216H332.44L332.92 138.904L332.992 136.048H330.328L330.4 138.904L330.88 148.216ZM331.672 154.12C332.512 154.12 333.208 153.52 333.208 152.56C333.208 151.6 332.512 150.952 331.672 150.952C330.808 150.952 330.112 151.6 330.112 152.56C330.112 153.52 330.808 154.12 331.672 154.12Z" fill="black"/>
</g>
<defs>
<filter id="filter0_d_101_129" x="0" y="0" width="441" height="878" filterUnits="userSpaceOnUse" color-interpolation-filters="sRGB">
<feFlood flood-opacity="0" result="BackgroundImageFix"/>
<feColorMatrix in="SourceAlpha" type="matrix" values="0 0 0 0 0 0 0 0 0 0 0 0 0 0 0 0 0 0 127 0" result="hardAlpha"/>
<feOffset dx="14" dy="14"/>
<feGaussianBlur stdDeviation="16.5"/>
<feComposite in2="hardAlpha" operator="out"/>
<feColorMatrix type="matrix" values="0 0 0 0 0 0 0 0 0 0 0 0 0 0 0 0 0 0 0.25 0"/>
<feBlend mode="normal" in2="BackgroundImageFix" result="effect1_dropShadow_101_129"/>
<feBlend mode="normal" in="SourceGraphic" in2="effect1_dropShadow_101_129" result="shape"/>
</filter>
<filter id="filter1_d_101_129" x="105" y="685" width="202" height="57" filterUnits="userSpaceOnUse" color-interpolation-filters="sRGB">
<feFlood flood-opacity="0" result="BackgroundImageFix"/>
<feColorMatrix in="SourceAlpha" type="matrix" values="0 0 0 0 0 0 0 0 0 0 0 0 0 0 0 0 0 0 127 0" result="hardAlpha"/>
<feOffset dy="4"/>
<feGaussianBlur stdDeviation="2"/>
<feComposite in2="hardAlpha" operator="out"/>
<feColorMatrix type="matrix" values="0 0 0 0 0 0 0 0 0 0 0 0 0 0 0 0 0 0 0.25 0"/>
<feBlend mode="normal" in2="BackgroundImageFix" result="effect1_dropShadow_101_129"/>
<feBlend mode="normal" in="SourceGraphic" in2="effect1_dropShadow_101_129" result="shape"/>
</filter>
</defs>
</svg>
