<svg width="441" height="878" viewBox="0 0 441 878" fill="none" xmlns="http://www.w3.org/2000/svg">
<g filter="url(#filter0_d_101_104)">
<rect width="375" height="812" transform="translate(19 19)" fill="white"/>
<path d="M155.36 203.22C154.68 205.14 153.5 206.96 152.14 208.14C152.48 208.36 153.04 208.84 153.26 209.1C154.66 207.74 155.96 205.7 156.74 203.56L155.36 203.22ZM155.28 208.26C154.74 209.66 153.84 211.06 152.8 212.02C153.14 212.2 153.74 212.58 154.02 212.8C155.02 211.76 156.06 210.2 156.68 208.62L155.28 208.26ZM155.16 205.18L154.64 206.5H163.84V205.18H155.16ZM158.1 206.08V213.04C158.1 213.26 158.04 213.32 157.78 213.34C157.52 213.36 156.68 213.36 155.74 213.32C155.96 213.7 156.16 214.26 156.24 214.66C157.5 214.66 158.32 214.64 158.84 214.42C159.4 214.2 159.54 213.8 159.54 213.04V206.08H158.1ZM160.64 208.7C161.58 210 162.56 211.82 162.96 213L164.26 212.38C163.84 211.22 162.86 209.46 161.88 208.16L160.64 208.7ZM163.42 205.18V205.4C163.04 206.52 162.5 207.9 162.04 208.74L163.34 209C163.82 208.12 164.44 206.66 164.94 205.4L163.9 205.14L163.66 205.18H163.42ZM151.98 215.64V219.26C151.98 220.84 152.52 221.26 154.6 221.26C155.04 221.26 158.02 221.26 158.48 221.26C160.2 221.26 160.66 220.66 160.84 218.24C160.42 218.14 159.82 217.92 159.5 217.66C159.4 219.64 159.26 219.9 158.38 219.9C157.72 219.9 155.22 219.9 154.72 219.9C153.66 219.9 153.46 219.8 153.46 219.26V215.64H151.98ZM153.7 215.04C155 215.68 156.48 216.76 157.16 217.56L158.24 216.58C157.52 215.78 155.98 214.76 154.7 214.14L153.7 215.04ZM160.28 216.26C161.78 217.54 163.26 219.42 163.84 220.74L165.18 219.98C164.56 218.62 163 216.82 161.52 215.56L160.28 216.26ZM149.54 215.88C149.12 217.56 148.26 219.16 146.78 220.1L148.02 220.96C149.6 219.9 150.38 218.12 150.88 216.32L149.54 215.88ZM151.46 203.2C150.32 205.4 148.44 207.6 146.56 209.02C146.86 209.28 147.36 209.88 147.54 210.18C149.48 208.6 151.5 206.14 152.8 203.66L151.46 203.2ZM149.62 206.96V214.64H151.06V205.56L151.04 205.54L149.62 206.96ZM168.62 206.42V207.76H173.3V218.14H168.62V219.5H174.7V206.42H168.62ZM167.72 206.42V221.1H169.12V206.42H167.72ZM168.52 211.98V213.32H174.04V211.98H168.52ZM170.78 203.16C170.62 204.2 170.24 205.72 169.9 206.68L171.1 206.98C171.5 206.08 172 204.7 172.4 203.46L170.78 203.16ZM177.54 206.36V207.76H183.68V206.36H177.54ZM183.16 206.36V206.68C182.88 215.5 182.56 218.82 181.9 219.54C181.68 219.8 181.44 219.86 181.04 219.86C180.58 219.86 179.38 219.84 178.08 219.74C178.36 220.14 178.54 220.76 178.58 221.2C179.7 221.26 180.88 221.3 181.56 221.22C182.26 221.16 182.72 220.98 183.16 220.4C183.96 219.42 184.24 216.32 184.56 207.14C184.56 206.92 184.56 206.36 184.56 206.36H183.16ZM177.96 203.12C177.32 205.9 176.22 208.66 174.86 210.42C175.22 210.62 175.84 211.04 176.1 211.28C177.48 209.38 178.66 206.44 179.4 203.46L177.96 203.12ZM177.04 211.56C178.14 213.02 179.48 215 180.08 216.22L181.36 215.42C180.72 214.24 179.34 212.3 178.2 210.88L177.04 211.56ZM190.9 211.1H186.92V212.5H189.46V218.18H190.9V211.1ZM190.9 217.58H189.6C188.66 218.44 187.58 219.34 186.7 219.98L187.48 221.44C188.48 220.56 189.4 219.7 190.28 218.84C191.52 220.42 193.34 221.12 195.98 221.22C198.22 221.32 202.5 221.28 204.76 221.18C204.82 220.74 205.06 220.04 205.24 219.7C202.82 219.86 198.2 219.92 195.98 219.82C193.6 219.74 191.84 219.06 190.9 217.58ZM187.1 204.54C188.32 205.52 189.7 206.92 190.26 207.92L191.5 206.98C190.88 206 189.48 204.62 188.24 203.72L187.1 204.54ZM197.62 205.54V219.28H199.06V205.54H197.62ZM194.56 212.62H202.18V213.98H194.56V212.62ZM194.56 210.32H202.18V211.64H194.56V210.32ZM193.26 209.3V215H203.54V209.3H193.26ZM192.2 203.92V206.52H193.54V205.06H203.2V206.52H204.6V203.92H192.2ZM192.62 206.96V208.08H204.12V206.96H192.62ZM191.86 216.2V217.38H204.96V216.2H191.86ZM207.38 216.28V217.42H216.5V216.28H207.38ZM206.84 206.64V207.8H216.82V206.64H206.84ZM211.18 204.82V219.54H212.56V204.82H211.18ZM206.82 219.58L207.04 220.88C209.58 220.62 213.2 220.2 216.6 219.8L216.58 218.62C213 219 209.26 219.36 206.82 219.58ZM208.68 212.54H215.16V214.02H208.68V212.54ZM208.68 210.1H215.16V211.54H208.68V210.1ZM207.42 209.06V215.06H216.44V209.06H207.42ZM215.72 203.4C213.66 203.88 210.02 204.24 207.04 204.4C207.2 204.7 207.34 205.2 207.4 205.52C210.4 205.42 214.12 205.08 216.48 204.56L215.72 203.4ZM216.68 207.88V209.28H223.9V207.88H216.68ZM223.32 207.88V208.24C223.1 216.34 222.88 219.22 222.38 219.84C222.2 220.1 222 220.16 221.68 220.16C221.28 220.16 220.4 220.14 219.42 220.06C219.66 220.46 219.82 221.08 219.86 221.5C220.78 221.56 221.74 221.56 222.3 221.5C222.9 221.44 223.3 221.26 223.66 220.74C224.32 219.88 224.52 217.08 224.74 208.64C224.74 208.44 224.76 207.88 224.76 207.88H223.32ZM219.1 203.46C219.08 211.02 219.18 217.36 214.6 220.64C214.96 220.88 215.48 221.36 215.72 221.72C220.5 218.14 220.52 211.42 220.54 203.46H219.1ZM231.84 205.72V207H235.64V205.72H231.84ZM226.8 209.24V210.6H236.14V209.24H226.8ZM231.12 203.3V209.92H232.46V203.3H231.12ZM228.22 204.78V210.14H229.46V204.78H228.22ZM234.08 214.56C233.02 217.58 230.66 219.52 227.04 220.46C227.38 220.78 227.74 221.28 227.88 221.68C231.74 220.5 234.24 218.34 235.38 214.96L234.08 214.56ZM233.56 211.76C234.18 212.78 234.8 214.18 235.04 215.04L236.26 214.54C236 213.7 235.34 212.36 234.72 211.36L233.56 211.76ZM231.12 210.2V215.42C231.12 215.6 231.06 215.64 230.86 215.66C230.68 215.68 230.06 215.68 229.38 215.66C229.54 216.02 229.72 216.52 229.76 216.88C230.76 216.88 231.44 216.88 231.88 216.68C232.36 216.46 232.46 216.1 232.46 215.44V210.2H231.12ZM228.56 211.4C228.18 212.82 227.52 214.28 226.7 215.26C227.04 215.4 227.62 215.74 227.9 215.94C228.7 214.9 229.46 213.28 229.88 211.7L228.56 211.4ZM235.98 204.14V205.44H245.08V204.14H235.98ZM237.94 211.62H243.26V213.54H237.94V211.62ZM237.94 214.68H243.26V216.64H237.94V214.68ZM237.94 208.56H243.26V210.48H237.94V208.56ZM236.6 207.38V217.82H244.62V207.38H236.6ZM239.86 204.78C239.74 205.7 239.44 207.06 239.22 207.94L240.46 208.2C240.78 207.36 241.12 206.12 241.44 204.98L239.86 204.78ZM238.4 218.16C237.64 219.04 236.02 220.1 234.56 220.68C234.9 220.94 235.36 221.36 235.58 221.66C237.02 221.04 238.7 219.96 239.72 218.92L238.4 218.16ZM241.2 219C242.3 219.78 243.68 220.9 244.34 221.64L245.5 220.82C244.82 220.06 243.42 218.98 242.34 218.26L241.2 219ZM255.16 203.22V206.02H256.7V203.22H255.16ZM255.16 214.64V221.68H256.7V214.64H255.16ZM247.06 216.2V217.58H264.94V216.2H247.06ZM247.68 205.46V206.84H264.38V205.46H247.68ZM262.8 207.38C262.04 208.18 260.68 209.26 259.7 209.94L260.78 210.58C261.8 209.94 263.1 209.02 264.12 208.08L262.8 207.38ZM254.84 206.52C254.34 207.38 253.46 208.68 252.76 209.48L253.74 209.94C254.48 209.18 255.38 208.06 256.14 207.02L254.84 206.52ZM257.76 208.04C256.48 209.84 254.32 212.32 252.62 213.82L253.52 214.34C255.22 212.9 257.4 210.56 258.96 208.62L257.76 208.04ZM251.9 209.46C253.08 210.2 254.54 211.3 255.24 212.04L256.02 211.04C255.3 210.32 253.8 209.28 252.66 208.6L251.9 209.46ZM251.66 213.34L251.86 214.64C253.92 214.5 256.66 214.32 259.38 214.1V213C256.5 213.14 253.6 213.28 251.66 213.34ZM257.02 211.54C258 212.66 259.06 214.24 259.5 215.26L260.66 214.66C260.2 213.66 259.1 212.14 258.1 211.04L257.02 211.54ZM246.98 213.76L247.74 214.98C249.06 214.38 250.72 213.6 252.32 212.84L252.04 211.7C250.18 212.48 248.26 213.28 246.98 213.76ZM247.7 208.5C248.82 209.14 250.18 210.1 250.86 210.76L251.9 209.82C251.2 209.18 249.8 208.26 248.7 207.68L247.7 208.5ZM259.32 212.32C260.88 213.12 262.88 214.36 263.86 215.18L264.96 214.22C263.92 213.4 261.9 212.24 260.36 211.48L259.32 212.32ZM274.88 215.18H276.52C276 212.18 280.78 211.56 280.78 208.54C280.78 206.24 278.96 204.78 276.14 204.78C273.98 204.78 272.42 205.72 271.1 207.12L272.16 208.1C273.32 206.9 274.58 206.3 275.96 206.3C278 206.3 278.98 207.3 278.98 208.68C278.98 210.96 274.28 211.84 274.88 215.18ZM275.74 220.1C276.44 220.1 277.02 219.6 277.02 218.8C277.02 218 276.44 217.46 275.74 217.46C275.04 217.46 274.46 218 274.46 218.8C274.46 219.6 275.02 220.1 275.74 220.1Z" fill="black"/>
<path d="M146.36 444.22C145.68 446.14 144.5 447.96 143.14 449.14C143.48 449.36 144.04 449.84 144.26 450.1C145.66 448.74 146.96 446.7 147.74 444.56L146.36 444.22ZM146.28 449.26C145.74 450.66 144.84 452.06 143.8 453.02C144.14 453.2 144.74 453.58 145.02 453.8C146.02 452.76 147.06 451.2 147.68 449.62L146.28 449.26ZM146.16 446.18L145.64 447.5H154.84V446.18H146.16ZM149.1 447.08V454.04C149.1 454.26 149.04 454.32 148.78 454.34C148.52 454.36 147.68 454.36 146.74 454.32C146.96 454.7 147.16 455.26 147.24 455.66C148.5 455.66 149.32 455.64 149.84 455.42C150.4 455.2 150.54 454.8 150.54 454.04V447.08H149.1ZM151.64 449.7C152.58 451 153.56 452.82 153.96 454L155.26 453.38C154.84 452.22 153.86 450.46 152.88 449.16L151.64 449.7ZM154.42 446.18V446.4C154.04 447.52 153.5 448.9 153.04 449.74L154.34 450C154.82 449.12 155.44 447.66 155.94 446.4L154.9 446.14L154.66 446.18H154.42ZM142.98 456.64V460.26C142.98 461.84 143.52 462.26 145.6 462.26C146.04 462.26 149.02 462.26 149.48 462.26C151.2 462.26 151.66 461.66 151.84 459.24C151.42 459.14 150.82 458.92 150.5 458.66C150.4 460.64 150.26 460.9 149.38 460.9C148.72 460.9 146.22 460.9 145.72 460.9C144.66 460.9 144.46 460.8 144.46 460.26V456.64H142.98ZM144.7 456.04C146 456.68 147.48 457.76 148.16 458.56L149.24 457.58C148.52 456.78 146.98 455.76 145.7 455.14L144.7 456.04ZM151.28 457.26C152.78 458.54 154.26 460.42 154.84 461.74L156.18 460.98C155.56 459.62 154 457.82 152.52 456.56L151.28 457.26ZM140.54 456.88C140.12 458.56 139.26 460.16 137.78 461.1L139.02 461.96C140.6 460.9 141.38 459.12 141.88 457.32L140.54 456.88ZM142.46 444.2C141.32 446.4 139.44 448.6 137.56 450.02C137.86 450.28 138.36 450.88 138.54 451.18C140.48 449.6 142.5 447.14 143.8 444.66L142.46 444.2ZM140.62 447.96V455.64H142.06V446.56L142.04 446.54L140.62 447.96ZM159.62 447.42V448.76H164.3V459.14H159.62V460.5H165.7V447.42H159.62ZM158.72 447.42V462.1H160.12V447.42H158.72ZM159.52 452.98V454.32H165.04V452.98H159.52ZM161.78 444.16C161.62 445.2 161.24 446.72 160.9 447.68L162.1 447.98C162.5 447.08 163 445.7 163.4 444.46L161.78 444.16ZM168.54 447.36V448.76H174.68V447.36H168.54ZM174.16 447.36V447.68C173.88 456.5 173.56 459.82 172.9 460.54C172.68 460.8 172.44 460.86 172.04 460.86C171.58 460.86 170.38 460.84 169.08 460.74C169.36 461.14 169.54 461.76 169.58 462.2C170.7 462.26 171.88 462.3 172.56 462.22C173.26 462.16 173.72 461.98 174.16 461.4C174.96 460.42 175.24 457.32 175.56 448.14C175.56 447.92 175.56 447.36 175.56 447.36H174.16ZM168.96 444.12C168.32 446.9 167.22 449.66 165.86 451.42C166.22 451.62 166.84 452.04 167.1 452.28C168.48 450.38 169.66 447.44 170.4 444.46L168.96 444.12ZM168.04 452.56C169.14 454.02 170.48 456 171.08 457.22L172.36 456.42C171.72 455.24 170.34 453.3 169.2 451.88L168.04 452.56ZM181.9 452.1H177.92V453.5H180.46V459.18H181.9V452.1ZM181.9 458.58H180.6C179.66 459.44 178.58 460.34 177.7 460.98L178.48 462.44C179.48 461.56 180.4 460.7 181.28 459.84C182.52 461.42 184.34 462.12 186.98 462.22C189.22 462.32 193.5 462.28 195.76 462.18C195.82 461.74 196.06 461.04 196.24 460.7C193.82 460.86 189.2 460.92 186.98 460.82C184.6 460.74 182.84 460.06 181.9 458.58ZM178.1 445.54C179.32 446.52 180.7 447.92 181.26 448.92L182.5 447.98C181.88 447 180.48 445.62 179.24 444.72L178.1 445.54ZM188.62 446.54V460.28H190.06V446.54H188.62ZM185.56 453.62H193.18V454.98H185.56V453.62ZM185.56 451.32H193.18V452.64H185.56V451.32ZM184.26 450.3V456H194.54V450.3H184.26ZM183.2 444.92V447.52H184.54V446.06H194.2V447.52H195.6V444.92H183.2ZM183.62 447.96V449.08H195.12V447.96H183.62ZM182.86 457.2V458.38H195.96V457.2H182.86ZM198.38 457.28V458.42H207.5V457.28H198.38ZM197.84 447.64V448.8H207.82V447.64H197.84ZM202.18 445.82V460.54H203.56V445.82H202.18ZM197.82 460.58L198.04 461.88C200.58 461.62 204.2 461.2 207.6 460.8L207.58 459.62C204 460 200.26 460.36 197.82 460.58ZM199.68 453.54H206.16V455.02H199.68V453.54ZM199.68 451.1H206.16V452.54H199.68V451.1ZM198.42 450.06V456.06H207.44V450.06H198.42ZM206.72 444.4C204.66 444.88 201.02 445.24 198.04 445.4C198.2 445.7 198.34 446.2 198.4 446.52C201.4 446.42 205.12 446.08 207.48 445.56L206.72 444.4ZM207.68 448.88V450.28H214.9V448.88H207.68ZM214.32 448.88V449.24C214.1 457.34 213.88 460.22 213.38 460.84C213.2 461.1 213 461.16 212.68 461.16C212.28 461.16 211.4 461.14 210.42 461.06C210.66 461.46 210.82 462.08 210.86 462.5C211.78 462.56 212.74 462.56 213.3 462.5C213.9 462.44 214.3 462.26 214.66 461.74C215.32 460.88 215.52 458.08 215.74 449.64C215.74 449.44 215.76 448.88 215.76 448.88H214.32ZM210.1 444.46C210.08 452.02 210.18 458.36 205.6 461.64C205.96 461.88 206.48 462.36 206.72 462.72C211.5 459.14 211.52 452.42 211.54 444.46H210.1ZM221.18 450.18V451.6H232.76V450.18H221.18ZM221.18 454.92V456.34H232.76V454.92H221.18ZM221.18 459.68V461.14H232.76V459.68H221.18ZM220.14 445.44V462.5H221.64V446.92H232.16V462.5H233.72V445.44H220.14ZM239.62 447.42V448.76H244.3V459.14H239.62V460.5H245.7V447.42H239.62ZM238.72 447.42V462.1H240.12V447.42H238.72ZM239.52 452.98V454.32H245.04V452.98H239.52ZM241.78 444.16C241.62 445.2 241.24 446.72 240.9 447.68L242.1 447.98C242.5 447.08 243 445.7 243.4 444.46L241.78 444.16ZM248.54 447.36V448.76H254.68V447.36H248.54ZM254.16 447.36V447.68C253.88 456.5 253.56 459.82 252.9 460.54C252.68 460.8 252.44 460.86 252.04 460.86C251.58 460.86 250.38 460.84 249.08 460.74C249.36 461.14 249.54 461.76 249.58 462.2C250.7 462.26 251.88 462.3 252.56 462.22C253.26 462.16 253.72 461.98 254.16 461.4C254.96 460.42 255.24 457.32 255.56 448.14C255.56 447.92 255.56 447.36 255.56 447.36H254.16ZM248.96 444.12C248.32 446.9 247.22 449.66 245.86 451.42C246.22 451.62 246.84 452.04 247.1 452.28C248.48 450.38 249.66 447.44 250.4 444.46L248.96 444.12ZM248.04 452.56C249.14 454.02 250.48 456 251.08 457.22L252.36 456.42C251.72 455.24 250.34 453.3 249.2 451.88L248.04 452.56ZM265.88 456.18H267.52C267 453.18 271.78 452.56 271.78 449.54C271.78 447.24 269.96 445.78 267.14 445.78C264.98 445.78 263.42 446.72 262.1 448.12L263.16 449.1C264.32 447.9 265.58 447.3 266.96 447.3C269 447.3 269.98 448.3 269.98 449.68C269.98 451.96 265.28 452.84 265.88 456.18ZM266.74 461.1C267.44 461.1 268.02 460.6 268.02 459.8C268.02 459 267.44 458.46 266.74 458.46C266.04 458.46 265.46 459 265.46 459.8C265.46 460.6 266.02 461.1 266.74 461.1Z" fill="black"/>
<circle r="5.5" transform="matrix(1 0 0 -1 180.5 794.5)" fill="#D9D9D9"/>
<circle r="5.5" transform="matrix(1 0 0 -1 206.5 794.5)" fill="#D9D9D9"/>
<circle r="5.5" transform="matrix(1 0 0 -1 232.5 794.5)" fill="#C5EBFF"/>
<path d="M78.1074 318.758V320.926C78.1074 322.091 78.0033 323.074 77.7949 323.875C77.5866 324.676 77.2871 325.32 76.8965 325.809C76.5059 326.297 76.0339 326.652 75.4805 326.873C74.9336 327.088 74.3151 327.195 73.625 327.195C73.0781 327.195 72.5736 327.127 72.1113 326.99C71.6491 326.854 71.2324 326.635 70.8613 326.336C70.4967 326.03 70.1842 325.633 69.9238 325.145C69.6634 324.656 69.4648 324.064 69.3281 323.367C69.1914 322.671 69.123 321.857 69.123 320.926V318.758C69.123 317.592 69.2272 316.616 69.4355 315.828C69.6504 315.04 69.9531 314.409 70.3438 313.934C70.7344 313.452 71.2031 313.107 71.75 312.898C72.3034 312.69 72.9219 312.586 73.6055 312.586C74.1589 312.586 74.6667 312.654 75.1289 312.791C75.5977 312.921 76.0143 313.133 76.3789 313.426C76.7435 313.712 77.0527 314.096 77.3066 314.578C77.5671 315.053 77.7656 315.636 77.9023 316.326C78.0391 317.016 78.1074 317.827 78.1074 318.758ZM76.291 321.219V318.455C76.291 317.817 76.252 317.257 76.1738 316.775C76.1022 316.287 75.9948 315.87 75.8516 315.525C75.7083 315.18 75.526 314.9 75.3047 314.686C75.0898 314.471 74.8392 314.314 74.5527 314.217C74.2728 314.113 73.957 314.061 73.6055 314.061C73.1758 314.061 72.7949 314.142 72.4629 314.305C72.1309 314.461 71.8509 314.712 71.623 315.057C71.4017 315.402 71.2324 315.854 71.1152 316.414C70.998 316.974 70.9395 317.654 70.9395 318.455V321.219C70.9395 321.857 70.9753 322.42 71.0469 322.908C71.125 323.396 71.2389 323.82 71.3887 324.178C71.5384 324.529 71.7207 324.819 71.9355 325.047C72.1504 325.275 72.3978 325.444 72.6777 325.555C72.9642 325.659 73.2799 325.711 73.625 325.711C74.0677 325.711 74.4551 325.626 74.7871 325.457C75.1191 325.288 75.3958 325.024 75.6172 324.666C75.8451 324.301 76.0143 323.836 76.125 323.27C76.2357 322.697 76.291 322.013 76.291 321.219ZM84.3867 320.213V321.697H79.6211V320.213H84.3867ZM91.8965 312.703V327H90.0898V314.959L86.4473 316.287V314.656L91.6133 312.703H91.8965ZM104.927 310.26C104.227 313.46 103.007 316.58 101.307 318.54C101.727 318.74 102.447 319.14 102.747 319.38C104.367 317.26 105.687 314 106.487 310.54L104.927 310.26ZM108.227 315.16H107.427V317.84C107.427 319.74 106.387 324.98 100.287 327.38C100.567 327.66 101.027 328.28 101.207 328.6C106.047 326.58 107.867 322.56 108.207 320.66C108.527 322.54 110.227 326.68 114.427 328.6C114.667 328.24 115.127 327.62 115.407 327.26C109.967 324.92 108.987 319.62 108.987 317.84V315.16H108.227ZM96.7673 324.48L97.7473 325.72C99.1073 324.42 100.787 322.68 102.267 321.08L101.447 319.78C99.7473 321.56 97.9273 323.4 96.7673 324.48ZM97.4073 312.62C98.7073 313.52 100.287 314.84 101.047 315.72L102.167 314.5C101.387 313.64 99.7673 312.38 98.4673 311.54L97.4073 312.62ZM104.967 313.82L104.287 315.3H113.967V313.82H104.967ZM113.447 313.82V314.18C113.107 315.72 112.247 317.84 111.587 319.04C111.967 319.2 112.547 319.5 112.867 319.68C113.607 318.34 114.547 316.26 115.067 314.34L113.967 313.72L113.687 313.82H113.447Z" fill="black"/>
<circle cx="92.5" cy="320.5" r="44" stroke="black"/>
<path d="M192.498 325.516V327H183.191V325.701L187.85 320.516C188.423 319.878 188.865 319.337 189.178 318.895C189.497 318.445 189.718 318.045 189.842 317.693C189.972 317.335 190.037 316.971 190.037 316.6C190.037 316.131 189.939 315.708 189.744 315.33C189.555 314.946 189.275 314.64 188.904 314.412C188.533 314.184 188.084 314.07 187.557 314.07C186.925 314.07 186.398 314.194 185.975 314.441C185.558 314.682 185.245 315.021 185.037 315.457C184.829 315.893 184.725 316.395 184.725 316.961H182.918C182.918 316.16 183.094 315.428 183.445 314.764C183.797 314.1 184.318 313.572 185.008 313.182C185.698 312.785 186.548 312.586 187.557 312.586C188.455 312.586 189.223 312.745 189.861 313.064C190.499 313.377 190.988 313.82 191.326 314.393C191.671 314.959 191.844 315.623 191.844 316.385C191.844 316.801 191.772 317.225 191.629 317.654C191.492 318.077 191.3 318.501 191.053 318.924C190.812 319.347 190.529 319.764 190.203 320.174C189.884 320.584 189.542 320.988 189.178 321.385L185.369 325.516H192.498ZM198.387 320.213V321.697H193.621V320.213H198.387ZM209.568 322.215V323.699H199.295V322.635L205.662 312.781H207.137L205.555 315.633L201.346 322.215H209.568ZM207.586 312.781V327H205.779V312.781H207.586ZM215.164 320.213V321.697H210.398V320.213H215.164ZM224.455 310.26C223.755 313.46 222.535 316.58 220.835 318.54C221.255 318.74 221.975 319.14 222.275 319.38C223.895 317.26 225.215 314 226.015 310.54L224.455 310.26ZM227.755 315.16H226.955V317.84C226.955 319.74 225.915 324.98 219.815 327.38C220.095 327.66 220.555 328.28 220.735 328.6C225.575 326.58 227.395 322.56 227.735 320.66C228.055 322.54 229.755 326.68 233.955 328.6C234.195 328.24 234.655 327.62 234.935 327.26C229.495 324.92 228.515 319.62 228.515 317.84V315.16H227.755ZM216.295 324.48L217.275 325.72C218.635 324.42 220.315 322.68 221.795 321.08L220.975 319.78C219.275 321.56 217.455 323.4 216.295 324.48ZM216.935 312.62C218.235 313.52 219.815 314.84 220.575 315.72L221.695 314.5C220.915 313.64 219.295 312.38 217.995 311.54L216.935 312.62ZM224.495 313.82L223.815 315.3H233.495V313.82H224.495ZM232.975 313.82V314.18C232.635 315.72 231.775 317.84 231.115 319.04C231.495 319.2 232.075 319.5 232.395 319.68C233.135 318.34 234.075 316.26 234.595 314.34L233.495 313.72L233.215 313.82H232.975Z" fill="black"/>
<path d="M305.262 320.828L298.318 318.123V316.258L306.658 319.949V321.092L305.262 320.828ZM298.318 323.211L305.281 320.447L306.658 320.242V321.375L298.318 325.076V323.211ZM315.896 320.232L314.451 319.861L315.164 312.781H322.459V314.451H316.697L316.268 318.318C316.528 318.169 316.857 318.029 317.254 317.898C317.658 317.768 318.12 317.703 318.641 317.703C319.298 317.703 319.887 317.817 320.408 318.045C320.929 318.266 321.372 318.585 321.736 319.002C322.107 319.419 322.391 319.92 322.586 320.506C322.781 321.092 322.879 321.746 322.879 322.469C322.879 323.152 322.785 323.781 322.596 324.354C322.413 324.926 322.137 325.428 321.766 325.857C321.395 326.281 320.926 326.609 320.359 326.844C319.799 327.078 319.139 327.195 318.377 327.195C317.804 327.195 317.26 327.117 316.746 326.961C316.238 326.798 315.783 326.554 315.379 326.229C314.982 325.896 314.656 325.486 314.402 324.998C314.155 324.503 313.999 323.924 313.934 323.26H315.652C315.73 323.794 315.887 324.243 316.121 324.607C316.355 324.972 316.661 325.249 317.039 325.438C317.423 325.62 317.869 325.711 318.377 325.711C318.807 325.711 319.188 325.636 319.52 325.486C319.852 325.337 320.132 325.122 320.359 324.842C320.587 324.562 320.76 324.223 320.877 323.826C321.001 323.429 321.062 322.983 321.062 322.488C321.062 322.039 321.001 321.622 320.877 321.238C320.753 320.854 320.568 320.519 320.32 320.232C320.079 319.946 319.783 319.725 319.432 319.568C319.08 319.406 318.676 319.324 318.221 319.324C317.615 319.324 317.156 319.406 316.844 319.568C316.538 319.731 316.222 319.952 315.896 320.232ZM332.58 310.26C331.88 313.46 330.66 316.58 328.96 318.54C329.38 318.74 330.1 319.14 330.4 319.38C332.02 317.26 333.34 314 334.14 310.54L332.58 310.26ZM335.88 315.16H335.08V317.84C335.08 319.74 334.04 324.98 327.94 327.38C328.22 327.66 328.68 328.28 328.86 328.6C333.7 326.58 335.52 322.56 335.86 320.66C336.18 322.54 337.88 326.68 342.08 328.6C342.32 328.24 342.78 327.62 343.06 327.26C337.62 324.92 336.64 319.62 336.64 317.84V315.16H335.88ZM324.42 324.48L325.4 325.72C326.76 324.42 328.44 322.68 329.92 321.08L329.1 319.78C327.4 321.56 325.58 323.4 324.42 324.48ZM325.06 312.62C326.36 313.52 327.94 314.84 328.7 315.72L329.82 314.5C329.04 313.64 327.42 312.38 326.12 311.54L325.06 312.62ZM332.62 313.82L331.94 315.3H341.62V313.82H332.62ZM341.1 313.82V314.18C340.76 315.72 339.9 317.84 339.24 319.04C339.62 319.2 340.2 319.5 340.52 319.68C341.26 318.34 342.2 316.26 342.72 314.34L341.62 313.72L341.34 313.82H341.1Z" fill="black"/>
<circle cx="320.5" cy="320.5" r="44" stroke="black"/>
<circle cx="206.5" cy="320.5" r="44" stroke="black"/>
<path d="M88.36 524.06C89.34 524.7 90.48 525.66 91.02 526.32L91.88 525.44C91.32 524.78 90.16 523.88 89.18 523.3L88.36 524.06ZM82.08 532.1V533.26H84.94V536.32H82.08V537.5H86.02V532.1H82.08ZM90.3 529.54C89.22 534.56 87.04 538.28 83.34 540.46C83.62 540.72 84.14 541.22 84.36 541.48C88.08 539.02 90.4 535.16 91.62 529.78L90.3 529.54ZM79.14 526.4V531.8C79.14 534.52 78.96 538.22 77.16 540.86C77.48 541.02 78.06 541.4 78.3 541.66C80.18 538.86 80.48 534.72 80.48 531.8V526.4H79.14ZM79.96 526.4V527.76H91.94V526.4H79.96ZM81.32 529.36V530.52H86.12V529.36H81.32ZM81.46 532.1V538.72H82.54V532.1H81.46ZM74.7 524.46C75.88 525.04 77.28 525.94 77.96 526.6L78.86 525.4C78.14 524.74 76.72 523.9 75.56 523.4L74.7 524.46ZM73.74 529.88C74.92 530.4 76.36 531.24 77.06 531.88L77.92 530.66C77.2 530.02 75.76 529.24 74.58 528.78L73.74 529.88ZM74.06 540.44L75.4 541.24C76.28 539.32 77.32 536.74 78.08 534.56L76.88 533.76C76.06 536.1 74.88 538.84 74.06 540.44ZM86.38 523.4C86.66 533.52 87.6 541.54 90.62 541.62C91.36 541.62 92.1 540.76 92.5 537.5C92.24 537.38 91.64 537.04 91.4 536.74C91.24 538.74 90.98 539.86 90.62 539.84C89 539.76 87.92 532.12 87.76 523.4H86.38ZM95.56 523.9V525.28H99.74V523.9H95.56ZM95.62 528.6V529.98H99.66V528.6H95.62ZM95.58 533.38V534.8H99.62V533.38H95.58ZM94.94 523.9V531.1C94.94 534.06 94.84 538.08 93.52 540.9C93.86 541.04 94.46 541.38 94.72 541.6C96.1 538.64 96.28 534.2 96.28 531.1V523.9H94.94ZM99.08 523.9V539.76C99.08 540.04 98.98 540.12 98.72 540.14C98.48 540.14 97.68 540.16 96.8 540.12C97 540.52 97.18 541.18 97.22 541.54C98.54 541.54 99.28 541.5 99.8 541.28C100.28 541.02 100.46 540.56 100.46 539.78V523.9H99.08ZM102.24 532.76V541.6H103.66V534.04H109.68V541.52H111.14V532.76H102.24ZM110.06 524.3C108.34 525.2 105.28 526.08 102.62 526.64C102.8 526.96 103.02 527.5 103.1 527.8C105.84 527.26 109.06 526.46 111.16 525.46L110.06 524.3ZM102.84 539.48V540.76H110.42V539.48H102.84ZM102.84 536.1V537.32H110.42V536.1H102.84ZM102.1 523.32V528.92C102.1 530.62 102.7 531.04 104.94 531.04C105.42 531.04 109 531.04 109.52 531.04C111.44 531.04 111.9 530.4 112.12 527.74C111.72 527.64 111.1 527.42 110.78 527.18C110.66 529.36 110.5 529.7 109.42 529.7C108.62 529.7 105.6 529.7 105.02 529.7C103.76 529.7 103.52 529.56 103.52 528.9V523.32H102.1ZM88.36 547.06C89.34 547.7 90.48 548.66 91.02 549.32L91.88 548.44C91.32 547.78 90.16 546.88 89.18 546.3L88.36 547.06ZM82.08 555.1V556.26H84.94V559.32H82.08V560.5H86.02V555.1H82.08ZM90.3 552.54C89.22 557.56 87.04 561.28 83.34 563.46C83.62 563.72 84.14 564.22 84.36 564.48C88.08 562.02 90.4 558.16 91.62 552.78L90.3 552.54ZM79.14 549.4V554.8C79.14 557.52 78.96 561.22 77.16 563.86C77.48 564.02 78.06 564.4 78.3 564.66C80.18 561.86 80.48 557.72 80.48 554.8V549.4H79.14ZM79.96 549.4V550.76H91.94V549.4H79.96ZM81.32 552.36V553.52H86.12V552.36H81.32ZM81.46 555.1V561.72H82.54V555.1H81.46ZM74.7 547.46C75.88 548.04 77.28 548.94 77.96 549.6L78.86 548.4C78.14 547.74 76.72 546.9 75.56 546.4L74.7 547.46ZM73.74 552.88C74.92 553.4 76.36 554.24 77.06 554.88L77.92 553.66C77.2 553.02 75.76 552.24 74.58 551.78L73.74 552.88ZM74.06 563.44L75.4 564.24C76.28 562.32 77.32 559.74 78.08 557.56L76.88 556.76C76.06 559.1 74.88 561.84 74.06 563.44ZM86.38 546.4C86.66 556.52 87.6 564.54 90.62 564.62C91.36 564.62 92.1 563.76 92.5 560.5C92.24 560.38 91.64 560.04 91.4 559.74C91.24 561.74 90.98 562.86 90.62 562.84C89 562.76 87.92 555.12 87.76 546.4H86.38ZM94.04 562.74V563.98H111.98V562.74H94.04ZM94.14 549.76V551H111.86V549.76H94.14ZM95.52 559.82V561.02H110.7V559.82H95.52ZM102.16 547.74V563.34H103.66V547.74H102.16ZM109.12 546.32C105.96 546.9 100.3 547.26 95.64 547.38C95.78 547.7 95.96 548.22 95.96 548.58C100.64 548.48 106.34 548.14 109.92 547.48L109.12 546.32ZM97.62 555.8H108.44V557.34H97.62V555.8ZM97.62 553.28H108.44V554.8H97.62V553.28ZM96.16 552.2V558.42H109.96V552.2H96.16Z" fill="black"/>
<circle cx="92.5" cy="544.5" r="44" stroke="black"/>
<path d="M187.78 533.8L188.22 535.3C190.24 534.72 192.92 533.9 195.44 533.14L195.26 531.74C192.54 532.5 189.68 533.32 187.78 533.8ZM187.96 527.24V528.68H195.24V527.24H187.96ZM190.96 523.22V539.62C190.96 539.9 190.86 540 190.58 540C190.32 540 189.44 540 188.5 539.98C188.7 540.38 188.92 541 188.96 541.4C190.36 541.4 191.18 541.38 191.74 541.12C192.26 540.88 192.46 540.48 192.46 539.62V523.22H190.96ZM195.34 524.9V526.38H206.22V524.9H195.34ZM201.04 525.42V539.4C201.04 539.76 200.92 539.88 200.52 539.9C200.08 539.92 198.64 539.92 197.16 539.86C197.4 540.3 197.68 541.04 197.76 541.5C199.66 541.5 200.92 541.48 201.66 541.2C202.4 540.94 202.64 540.44 202.64 539.4V525.42H201.04ZM215.54 525.72V527.04H225.1V525.72H215.54ZM213.1 529.6V530.9H225.96V529.6H213.1ZM215.88 523.48C215.24 525.34 214.2 527.18 212.94 528.4C213.3 528.58 213.92 528.92 214.22 529.16C215.42 527.84 216.58 525.86 217.28 523.8L215.88 523.48ZM218.8 523.22V530.44H220.28V523.22H218.8ZM212.22 531.1H207.96V532.5H210.76V538.18H212.22V531.1ZM212.22 537.52H210.86C209.84 538.38 208.66 539.26 207.7 539.9L208.5 541.44C209.58 540.56 210.6 539.7 211.56 538.84C212.84 540.42 214.64 541.12 217.24 541.22C219.46 541.3 223.6 541.26 225.8 541.18C225.86 540.72 226.12 540 226.28 539.64C223.92 539.8 219.42 539.86 217.24 539.78C214.94 539.68 213.16 539 212.22 537.52ZM208.18 524.6C209.48 525.48 210.98 526.84 211.62 527.8L212.8 526.82C212.1 525.84 210.6 524.54 209.28 523.7L208.18 524.6ZM216.36 533.72H222.98V536.88H216.36V533.72ZM214.9 532.46V538.14H224.54V532.46H214.9ZM197.82 546.94V548.38H202.72V546.94H197.82ZM197.18 546.94V555.4C197.18 558.12 197.04 561.52 195.24 563.82C195.58 564 196.22 564.44 196.48 564.7C198.4 562.26 198.68 558.32 198.68 555.4V546.94H197.18ZM202 546.94V561.5C202 563.2 202.1 563.56 202.42 563.86C202.74 564.12 203.18 564.26 203.56 564.26C203.8 564.26 204.28 564.26 204.56 564.26C204.96 564.26 205.34 564.16 205.6 563.98C205.88 563.76 206.06 563.42 206.14 562.9C206.22 562.38 206.3 561.04 206.32 559.96C205.9 559.82 205.42 559.58 205.1 559.28C205.1 560.56 205.08 561.56 205.04 562C205 562.42 204.96 562.62 204.86 562.72C204.76 562.8 204.6 562.84 204.44 562.84C204.28 562.84 204.06 562.84 203.92 562.84C203.8 562.84 203.7 562.8 203.6 562.74C203.52 562.66 203.48 562.28 203.48 561.66V546.94H202ZM189.76 546.94V548.34H194.24V546.94H189.76ZM189.76 551.62V553.02H194.28V551.62H189.76ZM189.72 556.42V557.84H194.26V556.42H189.72ZM189.14 546.94V554.14C189.14 557.1 189.04 561.1 187.66 563.92C188.04 564.06 188.64 564.4 188.92 564.64C190.32 561.68 190.54 557.26 190.54 554.14V546.94H189.14ZM193.52 546.94V562.66C193.52 562.92 193.42 563 193.16 563.02C192.92 563.02 192.1 563.04 191.18 563C191.38 563.38 191.58 564.04 191.64 564.44C192.96 564.44 193.74 564.4 194.26 564.14C194.78 563.9 194.94 563.46 194.94 562.66V546.94H193.52ZM216.56 546.28C216.28 550.46 215.62 553.6 211.24 555.22C211.56 555.48 211.98 555.98 212.16 556.34C216.92 554.52 217.8 550.98 218.14 546.28H216.56ZM216.04 552.3C217.96 553.4 220.38 555.06 221.58 556.1L222.6 554.92C221.36 553.9 218.88 552.34 216.98 551.28L216.04 552.3ZM216.42 554.92C215.94 557.3 214.84 559.76 211.18 561C211.5 561.26 211.9 561.76 212.06 562.12C216.06 560.64 217.38 557.9 217.98 554.92H216.42ZM216.16 558C217.94 559.24 220.22 561.02 221.34 562.12L222.44 561.02C221.3 559.94 218.96 558.24 217.2 557.04L216.16 558ZM208.92 549.18V564.62H210.4V550.64H224.2V549.18H208.92ZM223.6 549.18V562.68C223.6 563.02 223.5 563.14 223.14 563.16C222.76 563.16 221.52 563.18 220.2 563.12C220.42 563.54 220.62 564.22 220.7 564.66C222.38 564.66 223.56 564.62 224.22 564.36C224.86 564.12 225.08 563.64 225.08 562.7V549.18H223.6Z" fill="black"/>
<path d="M311.84 527.24H311.32L310.44 528.16V541.62H311.84V528.6H319.88V527.24H311.84ZM311.2 531.18V532.52H319.28V531.18H311.2ZM311.2 535.16V536.5H319.36V535.16H311.2ZM310.96 539.26V540.6H320.26V539.26H310.96ZM314.82 528V539.74H316.18V528H314.82ZM312.02 523.18C311.3 525.52 309.84 528.46 308.16 530.32C308.44 530.58 308.88 531.08 309.12 531.38C310.94 529.32 312.5 526.24 313.46 523.58L312.02 523.18ZM316.38 523.52C316 524.78 315.24 526.58 314.62 527.7L315.86 528.08C316.52 527 317.3 525.34 317.96 523.9L316.38 523.52ZM304.92 523.22C304.4 524.54 303.46 526.5 302.74 527.66L303.76 528.1C304.54 527 305.48 525.2 306.24 523.72L304.92 523.22ZM307.16 525.5C306.06 527.6 304.18 530.58 302.68 532.36L303.6 532.88C305.1 531.14 307.04 528.3 308.42 526.08L307.16 525.5ZM301.72 527.38C302.78 528.4 303.98 529.82 304.48 530.78L305.34 529.66C304.82 528.74 303.6 527.4 302.52 526.42L301.72 527.38ZM306.38 530.08C307.18 531.4 307.96 533.18 308.22 534.3L309.4 533.76C309.12 532.66 308.3 530.94 307.46 529.62L306.38 530.08ZM301.56 532.06L301.72 533.4C303.54 533.28 305.94 533.14 308.32 532.98V531.72C305.8 531.86 303.3 531.98 301.56 532.06ZM306.98 534.92C307.48 536.14 307.92 537.74 308.04 538.8L309.22 538.42C309.1 537.38 308.64 535.8 308.1 534.58L306.98 534.92ZM302.76 534.64C302.54 536.38 302.16 538.18 301.52 539.4C301.82 539.54 302.42 539.8 302.66 539.96C303.3 538.68 303.76 536.76 304.02 534.86L302.76 534.64ZM304.88 532.64V541.6H306.2V532.64H304.88ZM329.26 525.8V527.18H339.24V525.8H329.26ZM328.46 533.32V534.72H340.06V533.32H328.46ZM328.22 529.72V531.1H340.2V529.72H328.22ZM333.52 523.3V530.44H334.94V523.3H333.52ZM336.16 530.8V539.78C336.16 540.06 336.08 540.14 335.76 540.16C335.46 540.18 334.42 540.18 333.3 540.14C333.48 540.56 333.68 541.16 333.74 541.58C335.24 541.58 336.22 541.58 336.8 541.34C337.4 541.12 337.6 540.7 337.6 539.8V530.8H336.16ZM329.94 535.94C330.82 537.02 331.78 538.52 332.14 539.5L333.4 538.72C332.98 537.76 331.98 536.32 331.1 535.26L329.94 535.94ZM321.54 533.84L321.94 535.3C323.64 534.74 325.88 534.02 327.98 533.32L327.78 531.94C325.48 532.68 323.12 533.4 321.54 533.84ZM321.82 527.24V528.64H327.92V527.24H321.82ZM324.4 523.22V539.8C324.4 540.08 324.3 540.16 324.06 540.16C323.82 540.18 323.06 540.18 322.18 540.14C322.38 540.56 322.56 541.18 322.62 541.54C323.88 541.56 324.66 541.5 325.12 541.28C325.62 541.04 325.82 540.62 325.82 539.8V523.22H324.4ZM310.26 554.9V556H320.1V554.9H310.26ZM309.9 563.1V564.24H320.24V563.1H309.9ZM313.24 546.22V548.72H314.38V546.22H313.24ZM315.8 546.22V548.72H316.94V546.22H315.8ZM312.5 557.94H317.74V559.7H312.5V557.94ZM311.26 556.96V560.68H319.04V556.96H311.26ZM312.04 551.46H318.2V552.84H312.04V551.46ZM312.04 549.1H318.2V550.46H312.04V549.1ZM310.86 548.06V553.9H319.42V548.06H310.86ZM312.2 561.08C312.6 561.8 312.92 562.78 313.02 563.44L314.18 563.02C314.06 562.36 313.72 561.42 313.28 560.72L312.2 561.08ZM316.84 560.7C316.64 561.36 316.24 562.38 315.92 563.06L316.9 563.4C317.24 562.78 317.7 561.88 318.12 561.06L316.84 560.7ZM304.08 557.42V558.5H308.54V557.42H304.08ZM304.08 559.98V561.08H308.54V559.98H304.08ZM303.38 554.9V564.62H304.66V556H308.48V554.9H303.38ZM307.68 554.9V563.18C307.68 563.38 307.6 563.44 307.4 563.44C307.22 563.46 306.58 563.46 305.88 563.44C306.04 563.76 306.22 564.26 306.28 564.6C307.34 564.6 308 564.6 308.42 564.38C308.86 564.18 308.98 563.84 308.98 563.2V554.9H307.68ZM303.36 546.92V553H304.52V548.06H307.82V553H309V546.92H303.36ZM302.22 552.48V555.36H303.36V553.58H309V555.36H310.18V552.48H302.22ZM305.56 549.36V552.9H306.52V550.32H308.58V549.36H305.56ZM313.44 548.46V553.38H314.38V548.46H313.44ZM315.8 548.46V553.38H316.74V548.46H315.8ZM327.08 560.16V562.62C327.08 564.04 327.6 564.42 329.7 564.42C330.12 564.42 333.22 564.42 333.68 564.42C335.28 564.42 335.72 563.94 335.9 561.84C335.5 561.76 334.92 561.56 334.6 561.34C334.52 562.94 334.38 563.16 333.52 563.16C332.86 563.16 330.3 563.16 329.8 563.16C328.74 563.16 328.54 563.08 328.54 562.6V560.16H327.08ZM328.8 559.68C329.98 560.2 331.36 561.08 332.04 561.78L332.98 560.84C332.3 560.12 330.9 559.3 329.72 558.82L328.8 559.68ZM335.44 560.56C336.86 561.58 338.34 563.1 338.96 564.22L340.24 563.44C339.56 562.3 338.04 560.84 336.6 559.84L335.44 560.56ZM324.58 560.06C324.12 561.38 323.16 562.7 321.78 563.46L322.96 564.28C324.44 563.42 325.3 561.98 325.86 560.52L324.58 560.06ZM323.22 551.38V559.24H324.56V552.48H329.4V551.38H323.22ZM331.92 546.38V550.56C331.92 552.02 332.38 552.42 334.28 552.42C334.68 552.42 337.32 552.42 337.72 552.42C339.2 552.42 339.6 551.9 339.76 549.92C339.38 549.84 338.82 549.66 338.52 549.44C338.44 550.94 338.3 551.16 337.6 551.16C337.04 551.16 334.8 551.16 334.38 551.16C333.46 551.16 333.3 551.08 333.3 550.54V546.38H331.92ZM331.92 552.88V557.38C331.92 558.86 332.38 559.26 334.28 559.26C334.68 559.26 337.38 559.26 337.8 559.26C339.28 559.26 339.7 558.74 339.86 556.72C339.48 556.66 338.92 556.46 338.6 556.22C338.54 557.78 338.4 558 337.68 558C337.1 558 334.84 558 334.4 558C333.46 558 333.3 557.9 333.3 557.38V552.88H331.92ZM325.26 546.1C324.8 547.14 323.96 548.6 323.3 549.54L324.36 549.94C325.08 549.08 325.98 547.72 326.74 546.54L325.26 546.1ZM327.64 547.72C328.7 548.68 329.84 550.04 330.34 550.98L331.48 550.3C330.96 549.36 329.8 548.04 328.7 547.12L327.64 547.72ZM337.64 546.88C336.5 547.52 334.42 548.22 332.58 548.68C332.74 548.96 332.92 549.4 332.98 549.66C334.94 549.22 337.2 548.56 338.78 547.8L337.64 546.88ZM337.86 553.48C336.66 554.16 334.48 554.86 332.58 555.32C332.74 555.6 332.92 556.04 332.98 556.32C335.02 555.86 337.36 555.18 338.98 554.42L337.86 553.48ZM328.92 551.38V557.78C328.92 557.98 328.84 558.04 328.6 558.04C328.38 558.06 327.64 558.06 326.82 558.04C326.98 558.36 327.18 558.8 327.26 559.16C328.4 559.16 329.18 559.14 329.66 558.94C330.14 558.74 330.28 558.44 330.28 557.78V551.38H328.92ZM322.02 549.12L322.1 550.36C324.2 550.28 327.18 550.16 330.08 550.02L330.1 548.9C327.08 548.98 324.06 549.08 322.02 549.12ZM323.98 553.56V554.52H329.42V553.56H323.98ZM323.98 555.64V556.6H329.42V555.64H323.98Z" fill="black"/>
<circle cx="320.5" cy="544.5" r="44" stroke="black"/>
<circle cx="206.5" cy="544.5" r="44" stroke="black"/>
<g filter="url(#filter1_d_101_104)">
<rect x="109" y="685" width="194" height="49" rx="24.5" fill="#C5EBFF"/>
</g>
<path d="M181.54 705.02V706.38H192.42V705.02H181.54ZM178.12 708.7V710.12H195.86V708.7H178.12ZM183.38 709.68C183.04 712.94 182.18 715.24 177.68 716.36C178 716.66 178.4 717.26 178.56 717.64C183.44 716.28 184.56 713.58 184.98 709.68H183.38ZM188.44 709.56V715.2C188.44 716.8 188.92 717.26 190.76 717.26C191.16 717.26 193.46 717.26 193.86 717.26C195.46 717.26 195.9 716.56 196.06 713.82C195.66 713.7 195.02 713.46 194.7 713.22C194.64 715.52 194.5 715.88 193.74 715.88C193.22 715.88 191.32 715.88 190.92 715.88C190.08 715.88 189.94 715.78 189.94 715.18V709.56H188.44ZM186.16 699.22V702.4H187.74V699.22H186.16ZM178.58 701.36V705.6H180.1V702.78H193.82V705.6H195.4V701.36H178.58ZM200.4 706.7V708.1H205.38V706.7H200.4ZM204.78 706.7V706.96C204.72 711.28 204.62 712.78 204.32 713.14C204.18 713.32 203.98 713.34 203.7 713.34C203.36 713.34 202.48 713.34 201.58 713.26C201.8 713.64 201.96 714.22 202 714.66C202.98 714.7 203.88 714.72 204.4 714.66C204.96 714.6 205.28 714.46 205.6 714.1C206.02 713.54 206.14 711.86 206.24 707.34C206.24 707.14 206.24 706.7 206.24 706.7H204.78ZM210.42 700.22C211.68 700.88 213.22 701.9 213.98 702.6L214.92 701.58C214.14 700.88 212.56 699.92 211.32 699.28L210.42 700.22ZM213.28 705.64C211.78 710.46 208.96 714.12 204.9 716.28C205.22 716.58 205.78 717.2 206 717.5C210.1 715.08 213.08 711.22 214.78 706L213.28 705.64ZM200.52 702.6V704.08H216V702.6H200.52ZM199.56 702.6V708.22C199.56 710.84 199.38 714.28 197.72 716.74C198.08 716.92 198.72 717.44 198.98 717.74C200.8 715.12 201.12 711.08 201.12 708.24V702.6H199.56ZM207.86 699.24C207.94 708.82 209.74 717.46 213.82 717.46C215.34 717.46 215.9 716.48 216.18 713.06C215.78 712.92 215.22 712.58 214.88 712.24C214.76 714.9 214.5 715.94 213.94 715.94C211.34 715.94 209.38 708.44 209.42 699.24H207.86ZM226.34 711.18H227.64L228.04 703.42L228.1 701.04H225.88L225.94 703.42L226.34 711.18ZM227 716.1C227.7 716.1 228.28 715.6 228.28 714.8C228.28 714 227.7 713.46 227 713.46C226.28 713.46 225.7 714 225.7 714.8C225.7 715.6 226.28 716.1 227 716.1Z" fill="black" fill-opacity="0.52"/>
<path d="M194.144 246.88V247.968H202.496V246.88H194.144ZM192.992 254.128V255.2H204.784V254.128H192.992ZM193.6 244.432V245.52H204.736V244.432H193.6ZM202.016 246.88V247.136C201.84 253.376 201.616 255.616 201.2 256.128C201.056 256.32 200.912 256.352 200.608 256.352C200.304 256.368 199.568 256.352 198.752 256.288C198.912 256.56 199.024 256.976 199.04 257.248C199.84 257.296 200.64 257.296 201.12 257.264C201.6 257.216 201.952 257.088 202.256 256.688C202.768 256.016 202.992 253.92 203.184 247.472C203.184 247.312 203.2 246.88 203.2 246.88H202.016ZM193.552 246.88C193.28 249.648 192.704 253.504 192.256 255.728L193.472 255.808C193.872 253.6 194.416 249.744 194.768 246.88H193.552ZM194.32 242.48C193.488 244.512 192.112 246.56 190.64 247.856C190.96 248.032 191.504 248.4 191.76 248.592C193.152 247.184 194.608 245.024 195.568 242.832L194.32 242.48ZM196.24 248.688C197.296 249.152 198.528 249.936 199.136 250.528L199.856 249.776C199.216 249.184 197.968 248.464 196.928 248L196.24 248.688ZM195.84 252.192C196.928 252.752 198.24 253.632 198.88 254.272L199.584 253.504C198.928 252.88 197.6 252.032 196.512 251.52L195.84 252.192ZM190.672 250.464V251.552H193.664V251.52H202.496V251.552H205.344V250.464H202.496V250.496H193.664V250.464H190.672ZM209.824 248.88H206.72V250H208.688V254.544H209.824V248.88ZM209.824 254.064H208.8C208.064 254.768 207.216 255.488 206.528 256.016L207.152 257.152C207.92 256.432 208.64 255.744 209.328 255.056C210.336 256.32 211.792 256.896 213.92 256.976C215.744 257.04 219.232 257.008 221.056 256.928C221.104 256.592 221.296 256.048 221.44 255.792C219.472 255.92 215.712 255.968 213.904 255.888C212 255.808 210.576 255.264 209.824 254.064ZM206.8 243.536C207.728 244.336 208.768 245.488 209.184 246.288L210.192 245.616C209.744 244.8 208.672 243.696 207.728 242.944L206.8 243.536ZM212.272 243.184V244.192H219.776V243.184H212.272ZM213.472 245.648V246.528H218.48V245.648H213.472ZM213.328 247.824V248.704H218.624V247.824H213.328ZM215.376 244.512V248.32H216.4V244.512H215.376ZM211.632 243.184V247.344C211.632 249.392 211.504 252.208 210.256 254.224C210.512 254.336 210.992 254.64 211.2 254.848C212.528 252.704 212.736 249.568 212.736 247.344V243.184H211.632ZM219.248 243.184V253.696C219.248 253.92 219.168 253.984 218.944 254C218.736 254 218 254 217.2 253.984C217.344 254.272 217.504 254.72 217.536 255.024C218.688 255.024 219.376 255.008 219.792 254.832C220.208 254.64 220.352 254.336 220.352 253.712V243.184H219.248ZM214.224 249.6V250.464H217.104V252.256H214.224V253.12H218.064V249.6H214.224ZM213.76 249.6V253.936H214.72V249.6H213.76Z" fill="black" fill-opacity="0.64"/>
<path d="M76.976 135.52V136.912H90.776V135.52H76.976ZM77.432 143.248V144.472H90.464V143.248H77.432ZM77.84 145.72V146.92H90.032V145.72H77.84ZM76.688 148.264V149.608H90.92V148.264H76.688ZM82.856 133.84V136.216H84.68V133.84H82.856ZM80.36 141.928V148.864H81.992V141.928H80.36ZM85.616 141.928V148.864H87.248V141.928H85.616ZM82.688 148.6C81.368 149.944 78.704 150.976 76.304 151.624C76.592 151.888 77.048 152.512 77.216 152.824C79.688 152.008 82.544 150.712 84.056 149.032L82.688 148.6ZM85.064 148.84L83.696 149.152C84.776 152.44 87.008 154.888 90.248 155.968C90.464 155.56 90.92 154.984 91.28 154.672C88.208 153.832 86.024 151.624 85.064 148.84ZM89.576 149.992C88.688 150.616 87.128 151.528 86.048 152.032L86.912 152.92C88.016 152.44 89.48 151.72 90.56 150.928L89.576 149.992ZM79.28 139H81.824V140.848H79.28V139ZM77.912 137.872V141.952H83.264V137.872H77.912ZM85.928 139H88.544V140.848H85.928V139ZM84.536 137.872V141.952H89.984V137.872H84.536ZM69.896 141.112V142.552H76.064V141.112H69.896ZM70.04 134.704V136.144H75.992V134.704H70.04ZM69.896 144.328V145.768H76.064V144.328H69.896ZM68.912 137.848V139.336H76.664V137.848H68.912ZM70.736 147.568V149.056H74.528V153.064H70.736V154.552H76.04V147.568H70.736ZM69.848 147.568V155.68H71.336V147.568H69.848ZM77.72 154.288L78.176 155.752C80.288 155.368 83 154.888 85.64 154.384L85.544 153.04C82.664 153.52 79.736 154 77.72 154.288ZM79.952 150.952V154.552H81.512V150.352L80.816 150.088L79.952 150.952ZM104.164 154V133.375H109.613C110.754 133.375 111.656 133.629 112.32 134.137C112.992 134.645 113.473 135.367 113.762 136.305C114.051 137.242 114.195 138.359 114.195 139.656C114.195 140.906 114.074 141.996 113.832 142.926C113.59 143.848 113.156 144.562 112.531 145.07C111.914 145.578 111.035 145.832 109.895 145.832H108.219V154H104.164ZM108.219 142.129H108.453C109.219 142.129 109.688 141.914 109.859 141.484C110.031 141.055 110.117 140.422 110.117 139.586C110.117 138.805 110.031 138.203 109.859 137.781C109.695 137.352 109.301 137.137 108.676 137.137H108.219V142.129ZM120.547 154.188C117.047 154.188 115.297 152.371 115.297 148.738V141.684C115.297 140.027 115.762 138.707 116.691 137.723C117.621 136.73 118.906 136.234 120.547 136.234C122.195 136.234 123.484 136.73 124.414 137.723C125.344 138.707 125.809 140.027 125.809 141.684V148.738C125.809 152.371 124.055 154.188 120.547 154.188ZM120.547 150.953C120.898 150.953 121.148 150.828 121.297 150.578C121.453 150.32 121.531 149.996 121.531 149.605V141.016C121.531 139.992 121.203 139.48 120.547 139.48C119.891 139.48 119.562 139.992 119.562 141.016V149.605C119.562 149.996 119.637 150.32 119.785 150.578C119.941 150.828 120.195 150.953 120.547 150.953ZM132.652 154.188C130.684 154.188 129.285 153.684 128.457 152.676C127.637 151.668 127.227 150.188 127.227 148.234V142.82C127.227 141.352 127.383 140.129 127.695 139.152C128.008 138.176 128.555 137.445 129.336 136.961C130.117 136.477 131.203 136.234 132.594 136.234C133.562 136.234 134.43 136.406 135.195 136.75C135.969 137.094 136.578 137.598 137.023 138.262C137.469 138.926 137.691 139.738 137.691 140.699V143.383H133.414V140.922C133.414 140.516 133.355 140.176 133.238 139.902C133.121 139.621 132.867 139.48 132.477 139.48C131.789 139.48 131.445 139.969 131.445 140.945V149.465C131.445 149.824 131.523 150.156 131.68 150.461C131.836 150.758 132.094 150.906 132.453 150.906C132.82 150.906 133.074 150.762 133.215 150.473C133.363 150.176 133.438 149.832 133.438 149.441V146.488H137.691V149.559C137.691 150.527 137.473 151.359 137.035 152.055C136.605 152.742 136.012 153.27 135.254 153.637C134.496 154.004 133.629 154.188 132.652 154.188ZM139.156 154V133.375H143.305V142.48L145.32 136.422H149.668L147.031 144.062L150.383 154H145.918L143.305 145.715V154H139.156ZM155.867 154.188C154.617 154.188 153.621 153.953 152.879 153.484C152.137 153.016 151.605 152.34 151.285 151.457C150.965 150.574 150.805 149.512 150.805 148.27V141.203C150.805 139.57 151.273 138.336 152.211 137.5C153.148 136.656 154.438 136.234 156.078 136.234C159.453 136.234 161.141 137.891 161.141 141.203V142.48C161.141 144.027 161.125 145.066 161.094 145.598H155V148.996C155 149.309 155.02 149.617 155.059 149.922C155.098 150.219 155.184 150.465 155.316 150.66C155.457 150.855 155.68 150.953 155.984 150.953C156.422 150.953 156.695 150.766 156.805 150.391C156.914 150.008 156.969 149.512 156.969 148.902V147.215H161.141V148.211C161.141 149.523 160.977 150.625 160.648 151.516C160.328 152.398 159.781 153.066 159.008 153.52C158.242 153.965 157.195 154.188 155.867 154.188ZM154.977 143.512H156.969V141.145C156.969 140.512 156.891 140.059 156.734 139.785C156.578 139.504 156.344 139.363 156.031 139.363C155.695 139.363 155.434 139.496 155.246 139.762C155.066 140.027 154.977 140.488 154.977 141.145V143.512ZM166.273 154.188C165.141 154.188 164.375 153.949 163.977 153.473C163.586 152.988 163.391 152.25 163.391 151.258V140.301H162.207V137.102H163.391V133.375H167.469V137.102H168.652V140.301H167.469V150.273C167.469 150.562 167.516 150.766 167.609 150.883C167.703 151 167.883 151.059 168.148 151.059C168.336 151.059 168.504 151.043 168.652 151.012V153.871C168.559 153.902 168.266 153.961 167.773 154.047C167.281 154.141 166.781 154.188 166.273 154.188ZM177.465 154V137.336H175.016V133.375H184.039V137.336H181.59V154H177.465ZM185.117 154V136.422H189.383V138.379C189.586 137.699 189.945 137.168 190.461 136.785C190.977 136.402 191.625 136.211 192.406 136.211V139.715C192.062 139.715 191.652 139.754 191.176 139.832C190.699 139.902 190.281 140.004 189.922 140.137C189.562 140.262 189.383 140.402 189.383 140.559V154H185.117ZM196.637 154.188C195.66 154.188 194.914 153.961 194.398 153.508C193.891 153.055 193.543 152.434 193.355 151.645C193.168 150.855 193.074 149.961 193.074 148.961C193.074 147.891 193.18 147.016 193.391 146.336C193.602 145.648 193.961 145.086 194.469 144.648C194.984 144.211 195.691 143.84 196.59 143.535L199.191 142.645V140.84C199.191 139.895 198.883 139.422 198.266 139.422C197.703 139.422 197.422 139.805 197.422 140.57V141.625H193.344C193.336 141.562 193.332 141.484 193.332 141.391C193.332 141.289 193.332 141.176 193.332 141.051C193.332 139.301 193.742 138.062 194.562 137.336C195.391 136.602 196.699 136.234 198.488 136.234C199.426 136.234 200.266 136.402 201.008 136.738C201.75 137.066 202.336 137.555 202.766 138.203C203.203 138.852 203.422 139.652 203.422 140.605V154H199.25V151.914C199.047 152.648 198.711 153.211 198.242 153.602C197.773 153.992 197.238 154.188 196.637 154.188ZM198.289 150.93C198.633 150.93 198.867 150.785 198.992 150.496C199.117 150.207 199.18 149.895 199.18 149.559V144.66C198.602 144.895 198.152 145.191 197.832 145.551C197.512 145.902 197.352 146.422 197.352 147.109V149.371C197.352 150.41 197.664 150.93 198.289 150.93ZM205.016 135.344V131.852H209.211V135.344H205.016ZM205.016 154V136.422H209.211V154H205.016ZM210.875 154V136.422H215.07V138.66C215.227 137.988 215.516 137.418 215.938 136.949C216.367 136.473 216.961 136.234 217.719 136.234C218.938 136.234 219.82 136.609 220.367 137.359C220.922 138.109 221.199 139.137 221.199 140.441V154H217.062V140.875C217.062 140.531 216.992 140.215 216.852 139.926C216.711 139.629 216.469 139.48 216.125 139.48C215.805 139.48 215.566 139.594 215.41 139.82C215.262 140.039 215.168 140.316 215.129 140.652C215.09 140.98 215.07 141.309 215.07 141.637V154H210.875ZM227.773 154.188C226.523 154.188 225.527 153.953 224.785 153.484C224.043 153.016 223.512 152.34 223.191 151.457C222.871 150.574 222.711 149.512 222.711 148.27V141.203C222.711 139.57 223.18 138.336 224.117 137.5C225.055 136.656 226.344 136.234 227.984 136.234C231.359 136.234 233.047 137.891 233.047 141.203V142.48C233.047 144.027 233.031 145.066 233 145.598H226.906V148.996C226.906 149.309 226.926 149.617 226.965 149.922C227.004 150.219 227.09 150.465 227.223 150.66C227.363 150.855 227.586 150.953 227.891 150.953C228.328 150.953 228.602 150.766 228.711 150.391C228.82 150.008 228.875 149.512 228.875 148.902V147.215H233.047V148.211C233.047 149.523 232.883 150.625 232.555 151.516C232.234 152.398 231.688 153.066 230.914 153.52C230.148 153.965 229.102 154.188 227.773 154.188ZM226.883 143.512H228.875V141.145C228.875 140.512 228.797 140.059 228.641 139.785C228.484 139.504 228.25 139.363 227.938 139.363C227.602 139.363 227.34 139.496 227.152 139.762C226.973 140.027 226.883 140.488 226.883 141.145V143.512ZM234.57 154V136.422H238.836V138.379C239.039 137.699 239.398 137.168 239.914 136.785C240.43 136.402 241.078 136.211 241.859 136.211V139.715C241.516 139.715 241.105 139.754 240.629 139.832C240.152 139.902 239.734 140.004 239.375 140.137C239.016 140.262 238.836 140.402 238.836 140.559V154H234.57ZM258.76 142.024V153.568C258.76 154 258.592 154.144 258.064 154.168C257.512 154.192 255.664 154.192 253.672 154.12C253.96 154.648 254.296 155.416 254.416 155.944C256.84 155.944 258.448 155.92 259.384 155.632C260.32 155.368 260.632 154.816 260.632 153.616V142.024H258.76ZM250.024 135.736V137.488H267.352V135.736H250.024ZM266.704 135.736V136.168C265.192 138.16 262.024 140.92 259.288 142.432C259.672 142.696 260.248 143.296 260.512 143.68C263.488 142 266.872 139.168 269.008 136.624L267.616 135.616L267.184 135.736H266.704ZM274.984 139.936V141.352H281.92V139.936H274.984ZM274.984 144.016V145.384H281.92V144.016H274.984ZM274.984 148.192V149.608H281.92V148.192H274.984ZM285.208 145.216V146.776H294.352V145.216H285.208ZM276.232 136V137.416H280.216V136H276.232ZM283.672 135.064V136.6H293.056V135.064H283.672ZM283.384 149.704V151.312H294.76V149.704H283.384ZM288.448 142.744V155.824H290.176V142.744H288.448ZM277.96 140.632V148.792H279.256V140.632H277.96ZM292.48 135.064V135.304C292.312 139.072 292.12 140.464 291.808 140.824C291.664 141.016 291.448 141.064 291.112 141.04C290.776 141.04 289.912 141.04 288.952 140.944C289.168 141.352 289.336 141.976 289.36 142.456C290.368 142.504 291.376 142.504 291.856 142.456C292.48 142.408 292.84 142.264 293.176 141.856C293.68 141.304 293.92 139.744 294.088 135.736C294.112 135.52 294.112 135.064 294.112 135.064H292.48ZM285.304 142.96C284.896 145 284.152 147.016 283.12 148.36C283.504 148.552 284.224 148.912 284.536 149.128C285.544 147.688 286.384 145.504 286.864 143.272L285.304 142.96ZM276.184 133.84C275.464 136.792 274.12 139.648 272.416 141.496C272.8 141.736 273.496 142.288 273.784 142.576C275.488 140.536 276.952 137.44 277.84 134.2L276.184 133.84ZM274.288 139.936V146.32C274.288 149.032 274.12 152.608 272.488 155.152C272.848 155.32 273.52 155.728 273.784 155.968C275.488 153.304 275.776 149.248 275.776 146.32V139.936H274.288ZM281.44 139.936V153.952C281.44 154.264 281.296 154.36 280.984 154.384C280.648 154.408 279.568 154.408 278.344 154.36C278.56 154.792 278.824 155.488 278.896 155.896C280.552 155.896 281.536 155.872 282.136 155.608C282.76 155.344 282.952 154.84 282.952 153.952V139.936H281.44ZM287.08 135.568C286.744 138.28 285.88 140.656 282.928 141.904C283.288 142.168 283.72 142.744 283.936 143.128C287.296 141.616 288.328 138.88 288.736 135.568H287.08ZM279.784 136V136.288C279.424 137.488 278.752 139.216 278.152 140.296C278.488 140.44 279.016 140.752 279.304 140.992C280.024 139.864 280.936 138.088 281.44 136.6L280.384 135.904L280.144 136H279.784ZM306.832 133.96C306.04 137.488 304.648 140.944 302.872 143.176C303.28 143.44 304 144.016 304.312 144.328C306.16 141.88 307.672 138.184 308.608 134.344L306.832 133.96ZM306.424 144.136C305.752 147.016 304.6 149.872 303.112 151.72C303.544 151.936 304.312 152.416 304.672 152.704C306.136 150.688 307.432 147.64 308.176 144.496L306.424 144.136ZM306.616 138.472L305.92 140.152H317.416V138.472H306.616ZM310.336 139.168V153.736C310.336 154.048 310.24 154.144 309.928 154.144C309.592 154.144 308.56 154.168 307.432 154.12C307.696 154.648 307.96 155.44 308.08 155.944C309.568 155.944 310.6 155.896 311.248 155.584C311.92 155.296 312.136 154.768 312.136 153.736V139.168H310.336ZM313.864 144.496C315.184 147.016 316.384 150.4 316.768 152.608L318.472 152.032C318.064 149.8 316.864 146.488 315.472 143.968L313.864 144.496ZM316.888 138.472V138.736C316.648 140.32 316.336 142.336 316.072 143.536L317.632 143.824C317.944 142.528 318.352 140.464 318.688 138.688L317.44 138.424L317.128 138.472H316.888ZM302.008 133.936C300.664 137.584 298.408 141.184 296.032 143.512C296.368 143.92 296.872 144.88 297.064 145.288C299.656 142.6 302.128 138.544 303.712 134.464L302.008 133.936ZM299.512 140.128V155.896H301.24V138.448L301.192 138.424L299.512 140.128ZM330.88 148.216H332.44L332.92 138.904L332.992 136.048H330.328L330.4 138.904L330.88 148.216ZM331.672 154.12C332.512 154.12 333.208 153.52 333.208 152.56C333.208 151.6 332.512 150.952 331.672 150.952C330.808 150.952 330.112 151.6 330.112 152.56C330.112 153.52 330.808 154.12 331.672 154.12Z" fill="black"/>
</g>
<defs>
<filter id="filter0_d_101_104" x="0" y="0" width="441" height="878" filterUnits="userSpaceOnUse" color-interpolation-filters="sRGB">
<feFlood flood-opacity="0" result="BackgroundImageFix"/>
<feColorMatrix in="SourceAlpha" type="matrix" values="0 0 0 0 0 0 0 0 0 0 0 0 0 0 0 0 0 0 127 0" result="hardAlpha"/>
<feOffset dx="14" dy="14"/>
<feGaussianBlur stdDeviation="16.5"/>
<feComposite in2="hardAlpha" operator="out"/>
<feColorMatrix type="matrix" values="0 0 0 0 0 0 0 0 0 0 0 0 0 0 0 0 0 0 0.25 0"/>
<feBlend mode="normal" in2="BackgroundImageFix" result="effect1_dropShadow_101_104"/>
<feBlend mode="normal" in="SourceGraphic" in2="effect1_dropShadow_101_104" result="shape"/>
</filter>
<filter id="filter1_d_101_104" x="105" y="685" width="202" height="57" filterUnits="userSpaceOnUse" color-interpolation-filters="sRGB">
<feFlood flood-opacity="0" result="BackgroundImageFix"/>
<feColorMatrix in="SourceAlpha" type="matrix" values="0 0 0 0 0 0 0 0 0 0 0 0 0 0 0 0 0 0 127 0" result="hardAlpha"/>
<feOffset dy="4"/>
<feGaussianBlur stdDeviation="2"/>
<feComposite in2="hardAlpha" operator="out"/>
<feColorMatrix type="matrix" values="0 0 0 0 0 0 0 0 0 0 0 0 0 0 0 0 0 0 0.25 0"/>
<feBlend mode="normal" in2="BackgroundImageFix" result="effect1_dropShadow_101_104"/>
<feBlend mode="normal" in="SourceGraphic" in2="effect1_dropShadow_101_104" result="shape"/>
</filter>
</defs>
</svg>
