<svg width="250" height="250" viewBox="0 0 250 250" fill="none" xmlns="http://www.w3.org/2000/svg">
<circle cx="125" cy="125" r="120.5" stroke="#27A2BB" stroke-width="9"/>
<path d="M97.2 81.64L98.64 81.28V65.92L97.2 65.56V65.2H103.56C106.28 65.2 108.24 65.616 109.44 66.448C110.64 67.264 111.24 68.408 111.24 69.88C111.24 70.872 110.976 71.68 110.448 72.304C109.92 72.912 109.24 73.368 108.408 73.672C107.528 74.008 106.592 74.184 105.6 74.2V74.32C106.192 74.352 106.712 74.44 107.16 74.584C108.28 74.936 109.04 75.568 109.44 76.48L111.6 81.28L112.8 81.64V82H109.44C108.128 82 107.168 81.32 106.56 79.96L104.16 74.56H102.6V81.28L104.28 81.64V82H97.2V81.64ZM103.56 73.96C104.68 73.96 105.56 73.608 106.2 72.904C106.84 72.2 107.16 71.192 107.16 69.88C107.16 68.568 106.84 67.56 106.2 66.856C105.56 66.152 104.68 65.8 103.56 65.8H102.6V73.96H103.56ZM120.125 82.36C118.141 82.36 116.581 81.8 115.445 80.68C114.325 79.544 113.765 77.984 113.765 76C113.765 74.016 114.325 72.464 115.445 71.344C116.581 70.208 118.141 69.64 120.125 69.64C122.109 69.64 123.661 70.208 124.781 71.344C125.917 72.464 126.485 74.016 126.485 76C126.485 77.984 125.917 79.544 124.781 80.68C123.661 81.8 122.109 82.36 120.125 82.36ZM120.125 81.88C120.765 81.88 121.301 81.432 121.733 80.536C122.181 79.64 122.405 78.128 122.405 76C122.405 73.872 122.181 72.36 121.733 71.464C121.301 70.568 120.765 70.12 120.125 70.12C119.485 70.12 118.941 70.568 118.493 71.464C118.061 72.36 117.845 73.872 117.845 76C117.845 78.128 118.061 79.64 118.493 80.536C118.941 81.432 119.485 81.88 120.125 81.88ZM128.413 81.64L129.853 81.28V65.92L128.413 65.56V65.2H131.533C132.973 65.2 133.693 65.92 133.693 67.36V81.28L135.133 81.64V82H128.413V81.64ZM143.049 82.36C141.001 82.36 139.409 81.8 138.273 80.68C137.137 79.544 136.569 77.984 136.569 76C136.569 74.704 136.817 73.576 137.313 72.616C137.809 71.656 138.497 70.92 139.377 70.408C140.273 69.896 141.297 69.64 142.449 69.64C143.601 69.64 144.609 69.856 145.473 70.288C146.353 70.72 147.025 71.304 147.489 72.04C147.969 72.76 148.209 73.56 148.209 74.44C148.209 74.84 148.169 75.184 148.089 75.472L147.969 75.88C147.281 76.024 146.537 76.144 145.737 76.24C144.057 76.48 142.361 76.6 140.649 76.6C140.649 78.456 140.905 79.784 141.417 80.584C141.929 81.368 142.633 81.76 143.529 81.76C144.153 81.76 144.729 81.616 145.257 81.328C145.801 81.024 146.225 80.632 146.529 80.152C146.849 79.656 147.009 79.152 147.009 78.64H147.609C147.609 79.28 147.417 79.888 147.033 80.464C146.649 81.04 146.113 81.504 145.425 81.856C144.737 82.192 143.945 82.36 143.049 82.36ZM140.649 76C141.673 76 142.505 75.96 143.145 75.88C143.417 75.864 143.705 75.824 144.009 75.76C144.025 75.68 144.065 75.504 144.129 75.232C144.209 74.832 144.249 74.408 144.249 73.96C144.249 72.632 144.073 71.664 143.721 71.056C143.369 70.432 142.945 70.12 142.449 70.12C141.249 70.12 140.649 72.08 140.649 76Z" fill="#505050"/>
<path d="M68.9 131.16C67.06 131.16 65.6133 130.633 64.56 129.58C63.5067 128.527 62.98 126.987 62.98 124.96V117H64.98V124.88C64.98 126.44 65.32 127.58 66 128.3C66.6933 129.02 67.6667 129.38 68.92 129.38C70.1867 129.38 71.16 129.02 71.84 128.3C72.5333 127.58 72.88 126.44 72.88 124.88V117H74.82V124.96C74.82 126.987 74.2933 128.527 73.24 129.58C72.2 130.633 70.7533 131.16 68.9 131.16ZM76.885 131L82.705 123.06V124.6L77.205 117H79.485L83.845 122.98L82.945 123L87.285 117H89.465L84.005 124.48V123.04L89.825 131H87.525L82.885 124.62H83.765L79.185 131H76.885ZM101.653 131.12C100.626 131.12 99.7065 130.893 98.8931 130.44C98.0931 129.987 97.4598 129.353 96.9931 128.54C96.5265 127.727 96.2931 126.78 96.2931 125.7C96.2931 124.62 96.5265 123.68 96.9931 122.88C97.4598 122.067 98.0931 121.433 98.8931 120.98C99.7065 120.527 100.626 120.3 101.653 120.3C102.546 120.3 103.353 120.5 104.073 120.9C104.793 121.3 105.366 121.9 105.793 122.7C106.233 123.5 106.453 124.5 106.453 125.7C106.453 126.9 106.24 127.9 105.813 128.7C105.4 129.5 104.833 130.107 104.113 130.52C103.393 130.92 102.573 131.12 101.653 131.12ZM101.813 129.44C102.48 129.44 103.08 129.287 103.613 128.98C104.16 128.673 104.586 128.24 104.893 127.68C105.213 127.107 105.373 126.447 105.373 125.7C105.373 124.94 105.213 124.287 104.893 123.74C104.586 123.18 104.16 122.747 103.613 122.44C103.08 122.133 102.48 121.98 101.813 121.98C101.133 121.98 100.526 122.133 99.9931 122.44C99.4598 122.747 99.0331 123.18 98.7131 123.74C98.3931 124.287 98.2331 124.94 98.2331 125.7C98.2331 126.447 98.3931 127.107 98.7131 127.68C99.0331 128.24 99.4598 128.673 99.9931 128.98C100.526 129.287 101.133 129.44 101.813 129.44ZM105.433 131V128.14L105.553 125.68L105.353 123.22V116.16H107.273V131H105.433ZM115.626 131.12C114.493 131.12 113.493 130.887 112.626 130.42C111.773 129.953 111.106 129.313 110.626 128.5C110.159 127.687 109.926 126.753 109.926 125.7C109.926 124.647 110.153 123.713 110.606 122.9C111.073 122.087 111.706 121.453 112.506 121C113.319 120.533 114.233 120.3 115.246 120.3C116.273 120.3 117.179 120.527 117.966 120.98C118.753 121.433 119.366 122.073 119.806 122.9C120.259 123.713 120.486 124.667 120.486 125.76C120.486 125.84 120.479 125.933 120.466 126.04C120.466 126.147 120.459 126.247 120.446 126.34H111.426V124.96H119.446L118.666 125.44C118.679 124.76 118.539 124.153 118.246 123.62C117.953 123.087 117.546 122.673 117.026 122.38C116.519 122.073 115.926 121.92 115.246 121.92C114.579 121.92 113.986 122.073 113.466 122.38C112.946 122.673 112.539 123.093 112.246 123.64C111.953 124.173 111.806 124.787 111.806 125.48V125.8C111.806 126.507 111.966 127.14 112.286 127.7C112.619 128.247 113.079 128.673 113.666 128.98C114.253 129.287 114.926 129.44 115.686 129.44C116.313 129.44 116.879 129.333 117.386 129.12C117.906 128.907 118.359 128.587 118.746 128.16L119.806 129.4C119.326 129.96 118.726 130.387 118.006 130.68C117.299 130.973 116.506 131.12 115.626 131.12ZM126.192 131.12C125.312 131.12 124.472 131 123.672 130.76C122.885 130.52 122.265 130.227 121.812 129.88L122.612 128.36C123.065 128.667 123.625 128.927 124.292 129.14C124.959 129.353 125.639 129.46 126.332 129.46C127.225 129.46 127.865 129.333 128.252 129.08C128.652 128.827 128.852 128.473 128.852 128.02C128.852 127.687 128.732 127.427 128.492 127.24C128.252 127.053 127.932 126.913 127.532 126.82C127.145 126.727 126.712 126.647 126.232 126.58C125.752 126.5 125.272 126.407 124.792 126.3C124.312 126.18 123.872 126.02 123.472 125.82C123.072 125.607 122.752 125.32 122.512 124.96C122.272 124.587 122.152 124.093 122.152 123.48C122.152 122.84 122.332 122.28 122.692 121.8C123.052 121.32 123.559 120.953 124.212 120.7C124.879 120.433 125.665 120.3 126.572 120.3C127.265 120.3 127.965 120.387 128.672 120.56C129.392 120.72 129.979 120.953 130.432 121.26L129.612 122.78C129.132 122.46 128.632 122.24 128.112 122.12C127.592 122 127.072 121.94 126.552 121.94C125.712 121.94 125.085 122.08 124.672 122.36C124.259 122.627 124.052 122.973 124.052 123.4C124.052 123.76 124.172 124.04 124.412 124.24C124.665 124.427 124.985 124.573 125.372 124.68C125.772 124.787 126.212 124.88 126.692 124.96C127.172 125.027 127.652 125.12 128.132 125.24C128.612 125.347 129.045 125.5 129.432 125.7C129.832 125.9 130.152 126.18 130.392 126.54C130.645 126.9 130.772 127.38 130.772 127.98C130.772 128.62 130.585 129.173 130.212 129.64C129.839 130.107 129.312 130.473 128.632 130.74C127.952 130.993 127.139 131.12 126.192 131.12ZM133.172 131V120.4H135.092V131H133.172ZM134.132 118.36C133.758 118.36 133.445 118.24 133.192 118C132.952 117.76 132.832 117.467 132.832 117.12C132.832 116.76 132.952 116.46 133.192 116.22C133.445 115.98 133.758 115.86 134.132 115.86C134.505 115.86 134.812 115.98 135.052 116.22C135.305 116.447 135.432 116.733 135.432 117.08C135.432 117.44 135.312 117.747 135.072 118C134.832 118.24 134.518 118.36 134.132 118.36ZM143.398 135C142.424 135 141.478 134.86 140.558 134.58C139.651 134.313 138.911 133.927 138.338 133.42L139.258 131.94C139.751 132.367 140.358 132.7 141.078 132.94C141.798 133.193 142.551 133.32 143.338 133.32C144.591 133.32 145.511 133.027 146.098 132.44C146.684 131.853 146.978 130.96 146.978 129.76V127.52L147.178 125.42L147.078 123.3V120.4H148.898V129.56C148.898 131.427 148.431 132.8 147.497 133.68C146.564 134.56 145.198 135 143.398 135ZM143.158 130.56C142.131 130.56 141.211 130.347 140.398 129.92C139.598 129.48 138.958 128.873 138.478 128.1C138.011 127.327 137.778 126.433 137.778 125.42C137.778 124.393 138.011 123.5 138.478 122.74C138.958 121.967 139.598 121.367 140.398 120.94C141.211 120.513 142.131 120.3 143.158 120.3C144.064 120.3 144.891 120.487 145.638 120.86C146.384 121.22 146.978 121.78 147.418 122.54C147.871 123.3 148.098 124.26 148.098 125.42C148.098 126.567 147.871 127.52 147.418 128.28C146.978 129.04 146.384 129.613 145.638 130C144.891 130.373 144.064 130.56 143.158 130.56ZM143.378 128.88C144.084 128.88 144.711 128.733 145.258 128.44C145.804 128.147 146.231 127.74 146.538 127.22C146.858 126.7 147.018 126.1 147.018 125.42C147.018 124.74 146.858 124.14 146.538 123.62C146.231 123.1 145.804 122.7 145.258 122.42C144.711 122.127 144.084 121.98 143.378 121.98C142.671 121.98 142.038 122.127 141.478 122.42C140.931 122.7 140.498 123.1 140.178 123.62C139.871 124.14 139.718 124.74 139.718 125.42C139.718 126.1 139.871 126.7 140.178 127.22C140.498 127.74 140.931 128.147 141.478 128.44C142.038 128.733 142.671 128.88 143.378 128.88ZM158.226 120.3C159.093 120.3 159.853 120.467 160.506 120.8C161.173 121.133 161.693 121.64 162.066 122.32C162.439 123 162.626 123.86 162.626 124.9V131H160.706V125.12C160.706 124.093 160.453 123.32 159.946 122.8C159.453 122.28 158.753 122.02 157.846 122.02C157.166 122.02 156.573 122.153 156.066 122.42C155.559 122.687 155.166 123.08 154.886 123.6C154.619 124.12 154.486 124.767 154.486 125.54V131H152.566V120.4H154.406V123.26L154.106 122.5C154.453 121.807 154.986 121.267 155.706 120.88C156.426 120.493 157.266 120.3 158.226 120.3ZM170.899 131.12C169.766 131.12 168.766 130.887 167.899 130.42C167.046 129.953 166.379 129.313 165.899 128.5C165.433 127.687 165.199 126.753 165.199 125.7C165.199 124.647 165.426 123.713 165.879 122.9C166.346 122.087 166.979 121.453 167.779 121C168.593 120.533 169.506 120.3 170.519 120.3C171.546 120.3 172.453 120.527 173.239 120.98C174.026 121.433 174.639 122.073 175.079 122.9C175.533 123.713 175.759 124.667 175.759 125.76C175.759 125.84 175.753 125.933 175.739 126.04C175.739 126.147 175.733 126.247 175.719 126.34H166.699V124.96H174.719L173.939 125.44C173.953 124.76 173.813 124.153 173.519 123.62C173.226 123.087 172.819 122.673 172.299 122.38C171.793 122.073 171.199 121.92 170.519 121.92C169.853 121.92 169.259 122.073 168.739 122.38C168.219 122.673 167.813 123.093 167.519 123.64C167.226 124.173 167.079 124.787 167.079 125.48V125.8C167.079 126.507 167.239 127.14 167.559 127.7C167.893 128.247 168.353 128.673 168.939 128.98C169.526 129.287 170.199 129.44 170.959 129.44C171.586 129.44 172.153 129.333 172.659 129.12C173.179 128.907 173.633 128.587 174.019 128.16L175.079 129.4C174.599 129.96 173.999 130.387 173.279 130.68C172.573 130.973 171.779 131.12 170.899 131.12ZM178.425 131V120.4H180.265V123.28L180.085 122.56C180.379 121.827 180.872 121.267 181.565 120.88C182.259 120.493 183.112 120.3 184.125 120.3V122.16C184.045 122.147 183.965 122.14 183.885 122.14C183.819 122.14 183.752 122.14 183.685 122.14C182.659 122.14 181.845 122.447 181.245 123.06C180.645 123.673 180.345 124.56 180.345 125.72V131H178.425ZM68.9 161.16C67.06 161.16 65.6133 160.633 64.56 159.58C63.5067 158.527 62.98 156.987 62.98 154.96V147H64.98V154.88C64.98 156.44 65.32 157.58 66 158.3C66.6933 159.02 67.6667 159.38 68.92 159.38C70.1867 159.38 71.16 159.02 71.84 158.3C72.5333 157.58 72.88 156.44 72.88 154.88V147H74.82V154.96C74.82 156.987 74.2933 158.527 73.24 159.58C72.2 160.633 70.7533 161.16 68.9 161.16ZM78.9203 161V147H80.9203V161H78.9203ZM94.5828 161.12C93.5561 161.12 92.6361 160.893 91.8228 160.44C91.0228 159.987 90.3895 159.353 89.9228 158.54C89.4561 157.727 89.2228 156.78 89.2228 155.7C89.2228 154.62 89.4561 153.68 89.9228 152.88C90.3895 152.067 91.0228 151.433 91.8228 150.98C92.6361 150.527 93.5561 150.3 94.5828 150.3C95.4761 150.3 96.2828 150.5 97.0028 150.9C97.7228 151.3 98.2961 151.9 98.7228 152.7C99.1628 153.5 99.3828 154.5 99.3828 155.7C99.3828 156.9 99.1695 157.9 98.7428 158.7C98.3295 159.5 97.7628 160.107 97.0428 160.52C96.3228 160.92 95.5028 161.12 94.5828 161.12ZM94.7428 159.44C95.4095 159.44 96.0095 159.287 96.5428 158.98C97.0895 158.673 97.5161 158.24 97.8228 157.68C98.1428 157.107 98.3028 156.447 98.3028 155.7C98.3028 154.94 98.1428 154.287 97.8228 153.74C97.5161 153.18 97.0895 152.747 96.5428 152.44C96.0095 152.133 95.4095 151.98 94.7428 151.98C94.0628 151.98 93.4561 152.133 92.9228 152.44C92.3895 152.747 91.9628 153.18 91.6428 153.74C91.3228 154.287 91.1628 154.94 91.1628 155.7C91.1628 156.447 91.3228 157.107 91.6428 157.68C91.9628 158.24 92.3895 158.673 92.9228 158.98C93.4561 159.287 94.0628 159.44 94.7428 159.44ZM98.3628 161V158.14L98.4828 155.68L98.2828 153.22V146.16H100.203V161H98.3628ZM108.556 161.12C107.422 161.12 106.422 160.887 105.556 160.42C104.702 159.953 104.036 159.313 103.556 158.5C103.089 157.687 102.856 156.753 102.856 155.7C102.856 154.647 103.082 153.713 103.536 152.9C104.002 152.087 104.636 151.453 105.436 151C106.249 150.533 107.162 150.3 108.176 150.3C109.202 150.3 110.109 150.527 110.896 150.98C111.682 151.433 112.296 152.073 112.736 152.9C113.189 153.713 113.416 154.667 113.416 155.76C113.416 155.84 113.409 155.933 113.396 156.04C113.396 156.147 113.389 156.247 113.376 156.34H104.356V154.96H112.376L111.596 155.44C111.609 154.76 111.469 154.153 111.176 153.62C110.882 153.087 110.476 152.673 109.956 152.38C109.449 152.073 108.856 151.92 108.176 151.92C107.509 151.92 106.916 152.073 106.396 152.38C105.876 152.673 105.469 153.093 105.176 153.64C104.882 154.173 104.736 154.787 104.736 155.48V155.8C104.736 156.507 104.896 157.14 105.216 157.7C105.549 158.247 106.009 158.673 106.596 158.98C107.182 159.287 107.856 159.44 108.616 159.44C109.242 159.44 109.809 159.333 110.316 159.12C110.836 158.907 111.289 158.587 111.676 158.16L112.736 159.4C112.256 159.96 111.656 160.387 110.936 160.68C110.229 160.973 109.436 161.12 108.556 161.12ZM119.122 161.12C118.242 161.12 117.402 161 116.602 160.76C115.815 160.52 115.195 160.227 114.742 159.88L115.542 158.36C115.995 158.667 116.555 158.927 117.222 159.14C117.888 159.353 118.568 159.46 119.262 159.46C120.155 159.46 120.795 159.333 121.182 159.08C121.582 158.827 121.782 158.473 121.782 158.02C121.782 157.687 121.662 157.427 121.422 157.24C121.182 157.053 120.862 156.913 120.462 156.82C120.075 156.727 119.642 156.647 119.162 156.58C118.682 156.5 118.202 156.407 117.722 156.3C117.242 156.18 116.802 156.02 116.402 155.82C116.002 155.607 115.682 155.32 115.442 154.96C115.202 154.587 115.082 154.093 115.082 153.48C115.082 152.84 115.262 152.28 115.622 151.8C115.982 151.32 116.488 150.953 117.142 150.7C117.808 150.433 118.595 150.3 119.502 150.3C120.195 150.3 120.895 150.387 121.602 150.56C122.322 150.72 122.908 150.953 123.362 151.26L122.542 152.78C122.062 152.46 121.562 152.24 121.042 152.12C120.522 152 120.002 151.94 119.482 151.94C118.642 151.94 118.015 152.08 117.602 152.36C117.188 152.627 116.982 152.973 116.982 153.4C116.982 153.76 117.102 154.04 117.342 154.24C117.595 154.427 117.915 154.573 118.302 154.68C118.702 154.787 119.142 154.88 119.622 154.96C120.102 155.027 120.582 155.12 121.062 155.24C121.542 155.347 121.975 155.5 122.362 155.7C122.762 155.9 123.082 156.18 123.322 156.54C123.575 156.9 123.702 157.38 123.702 157.98C123.702 158.62 123.515 159.173 123.142 159.64C122.768 160.107 122.242 160.473 121.562 160.74C120.882 160.993 120.068 161.12 119.122 161.12ZM126.101 161V150.4H128.021V161H126.101ZM127.061 148.36C126.688 148.36 126.375 148.24 126.121 148C125.881 147.76 125.761 147.467 125.761 147.12C125.761 146.76 125.881 146.46 126.121 146.22C126.375 145.98 126.688 145.86 127.061 145.86C127.435 145.86 127.741 145.98 127.981 146.22C128.235 146.447 128.361 146.733 128.361 147.08C128.361 147.44 128.241 147.747 128.001 148C127.761 148.24 127.448 148.36 127.061 148.36ZM136.327 165C135.354 165 134.407 164.86 133.487 164.58C132.581 164.313 131.841 163.927 131.267 163.42L132.187 161.94C132.681 162.367 133.287 162.7 134.007 162.94C134.727 163.193 135.481 163.32 136.267 163.32C137.521 163.32 138.441 163.027 139.027 162.44C139.614 161.853 139.907 160.96 139.907 159.76V157.52L140.107 155.42L140.007 153.3V150.4H141.827V159.56C141.827 161.427 141.361 162.8 140.427 163.68C139.494 164.56 138.127 165 136.327 165ZM136.087 160.56C135.061 160.56 134.141 160.347 133.327 159.92C132.527 159.48 131.887 158.873 131.407 158.1C130.941 157.327 130.707 156.433 130.707 155.42C130.707 154.393 130.941 153.5 131.407 152.74C131.887 151.967 132.527 151.367 133.327 150.94C134.141 150.513 135.061 150.3 136.087 150.3C136.994 150.3 137.821 150.487 138.567 150.86C139.314 151.22 139.907 151.78 140.347 152.54C140.801 153.3 141.027 154.26 141.027 155.42C141.027 156.567 140.801 157.52 140.347 158.28C139.907 159.04 139.314 159.613 138.567 160C137.821 160.373 136.994 160.56 136.087 160.56ZM136.307 158.88C137.014 158.88 137.641 158.733 138.187 158.44C138.734 158.147 139.161 157.74 139.467 157.22C139.787 156.7 139.947 156.1 139.947 155.42C139.947 154.74 139.787 154.14 139.467 153.62C139.161 153.1 138.734 152.7 138.187 152.42C137.641 152.127 137.014 151.98 136.307 151.98C135.601 151.98 134.967 152.127 134.407 152.42C133.861 152.7 133.427 153.1 133.107 153.62C132.801 154.14 132.647 154.74 132.647 155.42C132.647 156.1 132.801 156.7 133.107 157.22C133.427 157.74 133.861 158.147 134.407 158.44C134.967 158.733 135.601 158.88 136.307 158.88ZM151.156 150.3C152.022 150.3 152.782 150.467 153.436 150.8C154.102 151.133 154.622 151.64 154.996 152.32C155.369 153 155.556 153.86 155.556 154.9V161H153.636V155.12C153.636 154.093 153.382 153.32 152.876 152.8C152.382 152.28 151.682 152.02 150.776 152.02C150.096 152.02 149.502 152.153 148.996 152.42C148.489 152.687 148.096 153.08 147.816 153.6C147.549 154.12 147.416 154.767 147.416 155.54V161H145.496V150.4H147.336V153.26L147.036 152.5C147.382 151.807 147.916 151.267 148.636 150.88C149.356 150.493 150.196 150.3 151.156 150.3ZM163.829 161.12C162.696 161.12 161.696 160.887 160.829 160.42C159.976 159.953 159.309 159.313 158.829 158.5C158.362 157.687 158.129 156.753 158.129 155.7C158.129 154.647 158.356 153.713 158.809 152.9C159.276 152.087 159.909 151.453 160.709 151C161.522 150.533 162.436 150.3 163.449 150.3C164.476 150.3 165.382 150.527 166.169 150.98C166.956 151.433 167.569 152.073 168.009 152.9C168.462 153.713 168.689 154.667 168.689 155.76C168.689 155.84 168.682 155.933 168.669 156.04C168.669 156.147 168.662 156.247 168.649 156.34H159.629V154.96H167.649L166.869 155.44C166.882 154.76 166.742 154.153 166.449 153.62C166.156 153.087 165.749 152.673 165.229 152.38C164.722 152.073 164.129 151.92 163.449 151.92C162.782 151.92 162.189 152.073 161.669 152.38C161.149 152.673 160.742 153.093 160.449 153.64C160.156 154.173 160.009 154.787 160.009 155.48V155.8C160.009 156.507 160.169 157.14 160.489 157.7C160.822 158.247 161.282 158.673 161.869 158.98C162.456 159.287 163.129 159.44 163.889 159.44C164.516 159.44 165.082 159.333 165.589 159.12C166.109 158.907 166.562 158.587 166.949 158.16L168.009 159.4C167.529 159.96 166.929 160.387 166.209 160.68C165.502 160.973 164.709 161.12 163.829 161.12ZM171.355 161V150.4H173.195V153.28L173.015 152.56C173.308 151.827 173.802 151.267 174.495 150.88C175.188 150.493 176.042 150.3 177.055 150.3V152.16C176.975 152.147 176.895 152.14 176.815 152.14C176.748 152.14 176.682 152.14 176.615 152.14C175.588 152.14 174.775 152.447 174.175 153.06C173.575 153.673 173.275 154.56 173.275 155.72V161H171.355Z" fill="#505050"/>
</svg>
