<svg width="250" height="250" viewBox="0 0 250 250" fill="none" xmlns="http://www.w3.org/2000/svg">
<circle cx="125" cy="125" r="120.5" stroke="#F4B076" stroke-width="9"/>
<path d="M97.2 87.64L98.64 87.28V71.8H95.88C95.88 72.776 95.616 73.712 95.088 74.608C94.864 74.976 94.608 75.28 94.32 75.52H93.6V71.2H107.64V75.52H106.92C106.616 75.28 106.352 74.976 106.128 74.608C105.616 73.744 105.36 72.808 105.36 71.8H102.6V87.28L104.04 87.64V88H97.2V87.64ZM114.359 88.36C112.375 88.36 110.815 87.8 109.679 86.68C108.559 85.544 107.999 83.984 107.999 82C107.999 80.016 108.559 78.464 109.679 77.344C110.815 76.208 112.375 75.64 114.359 75.64C116.343 75.64 117.895 76.208 119.015 77.344C120.151 78.464 120.719 80.016 120.719 82C120.719 83.984 120.151 85.544 119.015 86.68C117.895 87.8 116.343 88.36 114.359 88.36ZM114.359 87.88C114.999 87.88 115.535 87.432 115.967 86.536C116.415 85.64 116.639 84.128 116.639 82C116.639 79.872 116.415 78.36 115.967 77.464C115.535 76.568 114.999 76.12 114.359 76.12C113.719 76.12 113.175 76.568 112.727 77.464C112.295 78.36 112.079 79.872 112.079 82C112.079 84.128 112.295 85.64 112.727 86.536C113.175 87.432 113.719 87.88 114.359 87.88ZM129.008 88.36C127.024 88.36 125.464 87.8 124.328 86.68C123.208 85.544 122.648 83.984 122.648 82C122.648 80.016 123.208 78.464 124.328 77.344C125.464 76.208 127.024 75.64 129.008 75.64C130.992 75.64 132.544 76.208 133.664 77.344C134.8 78.464 135.368 80.016 135.368 82C135.368 83.984 134.8 85.544 133.664 86.68C132.544 87.8 130.992 88.36 129.008 88.36ZM129.008 87.88C129.648 87.88 130.184 87.432 130.616 86.536C131.064 85.64 131.288 84.128 131.288 82C131.288 79.872 131.064 78.36 130.616 77.464C130.184 76.568 129.648 76.12 129.008 76.12C128.368 76.12 127.824 76.568 127.376 77.464C126.944 78.36 126.728 79.872 126.728 82C126.728 84.128 126.944 85.64 127.376 86.536C127.824 87.432 128.368 87.88 129.008 87.88ZM137.296 87.64L138.736 87.28V71.92L137.296 71.56V71.2H140.416C141.856 71.2 142.576 71.92 142.576 73.36V87.28L144.016 87.64V88H137.296V87.64ZM151.092 88.36C150.1 88.36 149.212 88.144 148.428 87.712C148.044 87.504 147.732 87.28 147.492 87.04C147.236 87.392 146.956 87.664 146.652 87.856C146.508 87.952 146.348 88.04 146.172 88.12H145.572V84.04H146.532C146.74 84.712 147.044 85.336 147.444 85.912C148.292 87.144 149.348 87.76 150.612 87.76C151.284 87.76 151.788 87.6 152.124 87.28C152.476 86.944 152.652 86.464 152.652 85.84C152.652 85.312 152.412 84.872 151.932 84.52C151.468 84.152 150.732 83.704 149.724 83.176C148.86 82.744 148.156 82.36 147.612 82.024C147.084 81.672 146.628 81.24 146.244 80.728C145.876 80.2 145.692 79.584 145.692 78.88C145.692 77.92 146.1 77.144 146.916 76.552C147.748 75.944 149.02 75.64 150.732 75.64C151.58 75.64 152.364 75.864 153.084 76.312C153.436 76.52 153.74 76.736 153.996 76.96C154.204 76.672 154.484 76.4 154.836 76.144C155.108 75.984 155.268 75.896 155.316 75.88H155.916V79.96H154.956C154.716 79.272 154.42 78.656 154.068 78.112C153.268 76.864 152.316 76.24 151.212 76.24C150.78 76.24 150.412 76.4 150.108 76.72C149.804 77.04 149.652 77.44 149.652 77.92C149.652 78.528 149.908 79.04 150.42 79.456C150.932 79.856 151.708 80.32 152.748 80.848C153.596 81.28 154.268 81.664 154.764 82C155.276 82.32 155.708 82.72 156.06 83.2C156.428 83.68 156.612 84.24 156.612 84.88C156.612 87.2 154.772 88.36 151.092 88.36Z" fill="#505050"/>
<path d="M96.3121 129.62H103.532V131.34H96.3121V129.62ZM96.5121 137H94.5121V123H104.392V124.74H96.5121V137ZM106.927 137V126.4H108.847V137H106.927ZM107.887 124.36C107.514 124.36 107.201 124.24 106.947 124C106.707 123.76 106.587 123.467 106.587 123.12C106.587 122.76 106.707 122.46 106.947 122.22C107.201 121.98 107.514 121.86 107.887 121.86C108.261 121.86 108.567 121.98 108.807 122.22C109.061 122.447 109.187 122.733 109.187 123.08C109.187 123.44 109.067 123.747 108.827 124C108.587 124.24 108.274 124.36 107.887 124.36ZM117.153 141C116.18 141 115.233 140.86 114.313 140.58C113.407 140.313 112.667 139.927 112.093 139.42L113.013 137.94C113.507 138.367 114.113 138.7 114.833 138.94C115.553 139.193 116.307 139.32 117.093 139.32C118.347 139.32 119.267 139.027 119.853 138.44C120.44 137.853 120.733 136.96 120.733 135.76V133.52L120.933 131.42L120.833 129.3V126.4H122.653V135.56C122.653 137.427 122.187 138.8 121.253 139.68C120.32 140.56 118.953 141 117.153 141ZM116.913 136.56C115.887 136.56 114.967 136.347 114.153 135.92C113.353 135.48 112.713 134.873 112.233 134.1C111.767 133.327 111.533 132.433 111.533 131.42C111.533 130.393 111.767 129.5 112.233 128.74C112.713 127.967 113.353 127.367 114.153 126.94C114.967 126.513 115.887 126.3 116.913 126.3C117.82 126.3 118.647 126.487 119.393 126.86C120.14 127.22 120.733 127.78 121.173 128.54C121.627 129.3 121.853 130.26 121.853 131.42C121.853 132.567 121.627 133.52 121.173 134.28C120.733 135.04 120.14 135.613 119.393 136C118.647 136.373 117.82 136.56 116.913 136.56ZM117.133 134.88C117.84 134.88 118.467 134.733 119.013 134.44C119.56 134.147 119.987 133.74 120.293 133.22C120.613 132.7 120.773 132.1 120.773 131.42C120.773 130.74 120.613 130.14 120.293 129.62C119.987 129.1 119.56 128.7 119.013 128.42C118.467 128.127 117.84 127.98 117.133 127.98C116.427 127.98 115.793 128.127 115.233 128.42C114.687 128.7 114.253 129.1 113.933 129.62C113.627 130.14 113.473 130.74 113.473 131.42C113.473 132.1 113.627 132.7 113.933 133.22C114.253 133.74 114.687 134.147 115.233 134.44C115.793 134.733 116.427 134.88 117.133 134.88ZM139.582 126.3C140.435 126.3 141.189 126.467 141.842 126.8C142.495 127.133 143.002 127.64 143.362 128.32C143.735 129 143.922 129.86 143.922 130.9V137H142.002V131.12C142.002 130.093 141.762 129.32 141.282 128.8C140.802 128.28 140.129 128.02 139.262 128.02C138.622 128.02 138.062 128.153 137.582 128.42C137.102 128.687 136.729 129.08 136.462 129.6C136.209 130.12 136.082 130.767 136.082 131.54V137H134.162V131.12C134.162 130.093 133.922 129.32 133.442 128.8C132.975 128.28 132.302 128.02 131.422 128.02C130.795 128.02 130.242 128.153 129.762 128.42C129.282 128.687 128.909 129.08 128.642 129.6C128.375 130.12 128.242 130.767 128.242 131.54V137H126.322V126.4H128.162V129.22L127.862 128.5C128.195 127.807 128.709 127.267 129.402 126.88C130.095 126.493 130.902 126.3 131.822 126.3C132.835 126.3 133.709 126.553 134.442 127.06C135.175 127.553 135.655 128.307 135.882 129.32L135.102 129C135.422 128.187 135.982 127.533 136.782 127.04C137.582 126.547 138.515 126.3 139.582 126.3ZM154.035 137V134.76L153.935 134.34V130.52C153.935 129.707 153.695 129.08 153.215 128.64C152.748 128.187 152.041 127.96 151.095 127.96C150.468 127.96 149.855 128.067 149.255 128.28C148.655 128.48 148.148 128.753 147.735 129.1L146.935 127.66C147.481 127.22 148.135 126.887 148.895 126.66C149.668 126.42 150.475 126.3 151.315 126.3C152.768 126.3 153.888 126.653 154.675 127.36C155.461 128.067 155.855 129.147 155.855 130.6V137H154.035ZM150.555 137.12C149.768 137.12 149.075 136.987 148.475 136.72C147.888 136.453 147.435 136.087 147.115 135.62C146.795 135.14 146.635 134.6 146.635 134C146.635 133.427 146.768 132.907 147.035 132.44C147.315 131.973 147.761 131.6 148.375 131.32C149.001 131.04 149.841 130.9 150.895 130.9H154.255V132.28H150.975C150.015 132.28 149.368 132.44 149.035 132.76C148.701 133.08 148.535 133.467 148.535 133.92C148.535 134.44 148.741 134.86 149.155 135.18C149.568 135.487 150.141 135.64 150.875 135.64C151.595 135.64 152.221 135.48 152.755 135.16C153.301 134.84 153.695 134.373 153.935 133.76L154.315 135.08C154.061 135.707 153.615 136.207 152.975 136.58C152.335 136.94 151.528 137.12 150.555 137.12ZM104.424 167V153H106.064L112.344 163.58H111.464L117.664 153H119.304L119.324 167H117.404L117.384 156.02H117.844L112.324 165.3H111.404L105.844 156.02H106.344V167H104.424ZM123.246 167V156.4H125.166V167H123.246ZM124.206 154.36C123.832 154.36 123.519 154.24 123.266 154C123.026 153.76 122.906 153.467 122.906 153.12C122.906 152.76 123.026 152.46 123.266 152.22C123.519 151.98 123.832 151.86 124.206 151.86C124.579 151.86 124.886 151.98 125.126 152.22C125.379 152.447 125.506 152.733 125.506 153.08C125.506 153.44 125.386 153.747 125.146 154C124.906 154.24 124.592 154.36 124.206 154.36ZM128.832 167V156.4H130.672V159.28L130.492 158.56C130.785 157.827 131.278 157.267 131.972 156.88C132.665 156.493 133.518 156.3 134.532 156.3V158.16C134.452 158.147 134.372 158.14 134.292 158.14C134.225 158.14 134.158 158.14 134.092 158.14C133.065 158.14 132.252 158.447 131.652 159.06C131.052 159.673 130.752 160.56 130.752 161.72V167H128.832ZM141.34 167.12C140.274 167.12 139.327 166.887 138.5 166.42C137.674 165.953 137.02 165.313 136.54 164.5C136.06 163.673 135.82 162.74 135.82 161.7C135.82 160.647 136.06 159.713 136.54 158.9C137.02 158.087 137.674 157.453 138.5 157C139.327 156.533 140.274 156.3 141.34 156.3C142.394 156.3 143.334 156.533 144.16 157C145 157.453 145.654 158.087 146.12 158.9C146.6 159.7 146.84 160.633 146.84 161.7C146.84 162.753 146.6 163.687 146.12 164.5C145.654 165.313 145 165.953 144.16 166.42C143.334 166.887 142.394 167.12 141.34 167.12ZM141.34 165.44C142.02 165.44 142.627 165.287 143.16 164.98C143.707 164.673 144.134 164.24 144.44 163.68C144.747 163.107 144.9 162.447 144.9 161.7C144.9 160.94 144.747 160.287 144.44 159.74C144.134 159.18 143.707 158.747 143.16 158.44C142.627 158.133 142.02 157.98 141.34 157.98C140.66 157.98 140.054 158.133 139.52 158.44C138.987 158.747 138.56 159.18 138.24 159.74C137.92 160.287 137.76 160.94 137.76 161.7C137.76 162.447 137.92 163.107 138.24 163.68C138.56 164.24 138.987 164.673 139.52 164.98C140.054 165.287 140.66 165.44 141.34 165.44Z" fill="#505050"/>
</svg>
