<svg width="250" height="250" viewBox="0 0 250 250" fill="none" xmlns="http://www.w3.org/2000/svg">
<circle cx="125" cy="125" r="120.5" stroke="#85BFCD" stroke-width="9"/>
<path d="M72.2 87.64L73.64 87.28V71.92L72.2 71.56V71.2H78.32C81.184 71.2 83.376 71.936 84.896 73.408C86.432 74.88 87.2 76.944 87.2 79.6C87.2 82.256 86.432 84.32 84.896 85.792C83.376 87.264 81.184 88 78.32 88H72.2V87.64ZM78.32 87.4C79.808 87.4 80.96 86.8 81.776 85.6C82.592 84.384 83 82.384 83 79.6C83 76.816 82.592 74.824 81.776 73.624C80.96 72.408 79.808 71.8 78.32 71.8H77.6V87.4H78.32ZM94.8763 88.36C93.9803 88.36 93.1723 88.176 92.4523 87.808C91.7483 87.424 91.1963 86.928 90.7963 86.32C90.3963 85.712 90.1963 85.072 90.1963 84.4V76.72L88.7563 76.36V76H91.8763C93.3163 76 94.0363 76.72 94.0363 78.16V84.4C94.0363 85.408 94.2123 86.184 94.5643 86.728C94.9323 87.256 95.3563 87.52 95.8363 87.52C96.4283 87.52 96.9643 87.2 97.4443 86.56C97.6203 86.32 97.8043 86 97.9963 85.6V76.72L96.5563 76.36V76H103.276V76.36L101.836 76.72V88.12H101.596C100.428 88.12 99.5403 87.8 98.9323 87.16C98.6603 86.872 98.4683 86.552 98.3563 86.2C98.1323 86.6 97.8683 86.96 97.5643 87.28C96.8443 88 95.9483 88.36 94.8763 88.36ZM104.726 87.64L106.166 87.28V76.72L104.726 76.36V76H106.886C107.83 76 108.574 76.304 109.118 76.912C109.326 77.152 109.502 77.448 109.646 77.8C109.886 77.448 110.182 77.128 110.534 76.84C111.334 76.2 112.23 75.88 113.222 75.88C114.07 75.88 114.702 76.08 115.118 76.48C115.55 76.864 115.766 77.424 115.766 78.16C115.766 78.704 115.598 79.144 115.262 79.48C114.942 79.8 114.51 79.96 113.966 79.96C113.742 79.96 113.518 79.944 113.294 79.912L113.006 79.84V76.48C112.19 76.48 111.446 76.8 110.774 77.44C110.454 77.76 110.198 78.08 110.006 78.4V87.28L111.446 87.64V88H104.726V87.64ZM121.054 88.36C119.63 88.36 118.534 88.056 117.766 87.448C116.998 86.84 116.614 86.064 116.614 85.12C116.614 84.496 116.75 83.88 117.022 83.272C117.134 82.984 117.278 82.72 117.454 82.48C118.11 82.32 118.822 82.176 119.59 82.048C121.318 81.76 122.846 81.584 124.174 81.52V80.8C124.174 79.024 123.958 77.8 123.526 77.128C123.094 76.456 122.43 76.12 121.534 76.12C121.198 76.12 120.91 76.16 120.67 76.24L120.334 76.36V79.96L120.022 80.032C119.766 80.064 119.55 80.08 119.374 80.08C118.83 80.08 118.39 79.92 118.054 79.6C117.734 79.264 117.574 78.824 117.574 78.28C117.574 77.544 117.942 76.92 118.678 76.408C119.43 75.896 120.542 75.64 122.014 75.64C123.262 75.64 124.334 75.864 125.23 76.312C126.142 76.744 126.83 77.352 127.294 78.136C127.774 78.904 128.014 79.792 128.014 80.8V87.28L129.454 87.64V88H127.294C126.334 88 125.59 87.704 125.062 87.112C124.838 86.872 124.662 86.568 124.534 86.2C124.31 86.6 124.046 86.96 123.742 87.28C123.022 88 122.126 88.36 121.054 88.36ZM122.014 87.52C122.606 87.52 123.142 87.2 123.622 86.56C123.798 86.32 123.982 86 124.174 85.6V82.12C123.438 82.12 122.734 82.16 122.062 82.24C121.566 82.304 121.23 82.344 121.054 82.36C120.974 82.536 120.894 82.776 120.814 83.08C120.654 83.688 120.574 84.288 120.574 84.88C120.574 85.776 120.71 86.44 120.982 86.872C121.254 87.304 121.598 87.52 122.014 87.52ZM137.145 88.36C136.089 88.36 135.169 88.168 134.385 87.784C133.617 87.4 133.025 86.872 132.609 86.2C132.193 85.528 131.985 84.768 131.985 83.92V76.6H130.305V76H131.985V74.8C131.985 73.36 132.705 72.64 134.145 72.64H135.825V76H139.185V76.6H135.825V83.92C135.825 85.392 135.977 86.4 136.281 86.944C136.585 87.488 137.033 87.76 137.625 87.76C138.201 87.76 138.705 87.48 139.137 86.92C139.569 86.36 139.785 85.6 139.785 84.64H140.385C140.385 85.824 140.089 86.744 139.497 87.4C138.905 88.04 138.121 88.36 137.145 88.36ZM141.71 87.64L143.15 87.28V76.72L141.71 76.36V76H144.83C146.27 76 146.99 76.72 146.99 78.16V87.28L148.43 87.64V88H141.71V87.64ZM144.83 74.56C144.35 74.56 143.95 74.4 143.63 74.08C143.31 73.76 143.15 73.36 143.15 72.88C143.15 72.4 143.31 72 143.63 71.68C143.95 71.36 144.35 71.2 144.83 71.2C145.31 71.2 145.71 71.36 146.03 71.68C146.35 72 146.51 72.4 146.51 72.88C146.51 73.36 146.35 73.76 146.03 74.08C145.71 74.4 145.31 74.56 144.83 74.56ZM156.226 88.36C154.242 88.36 152.682 87.8 151.546 86.68C150.426 85.544 149.866 83.984 149.866 82C149.866 80.016 150.426 78.464 151.546 77.344C152.682 76.208 154.242 75.64 156.226 75.64C158.21 75.64 159.762 76.208 160.882 77.344C162.018 78.464 162.586 80.016 162.586 82C162.586 83.984 162.018 85.544 160.882 86.68C159.762 87.8 158.21 88.36 156.226 88.36ZM156.226 87.88C156.866 87.88 157.402 87.432 157.834 86.536C158.282 85.64 158.506 84.128 158.506 82C158.506 79.872 158.282 78.36 157.834 77.464C157.402 76.568 156.866 76.12 156.226 76.12C155.586 76.12 155.042 76.568 154.594 77.464C154.162 78.36 153.946 79.872 153.946 82C153.946 84.128 154.162 85.64 154.594 86.536C155.042 87.432 155.586 87.88 156.226 87.88ZM164.515 87.64L165.955 87.28V76.72L164.515 76.36V76H166.675C167.619 76 168.363 76.304 168.907 76.912C169.115 77.152 169.291 77.448 169.435 77.8C169.659 77.384 169.923 77.024 170.227 76.72C170.947 76 171.843 75.64 172.915 75.64C173.811 75.64 174.611 75.832 175.315 76.216C176.035 76.584 176.595 77.072 176.995 77.68C177.395 78.288 177.595 78.928 177.595 79.6V87.28L179.035 87.64V88H175.915C174.475 88 173.755 87.28 173.755 85.84V79.6C173.755 78.592 173.571 77.824 173.203 77.296C172.851 76.752 172.435 76.48 171.955 76.48C171.347 76.48 170.803 76.8 170.323 77.44C170.115 77.712 169.939 78.032 169.795 78.4V87.28L171.235 87.64V88H164.515V87.64Z" fill="#505050"/>
<path d="M78.1345 137V135.64L83.8345 130.14C84.3412 129.66 84.7145 129.24 84.9545 128.88C85.2079 128.507 85.3745 128.167 85.4545 127.86C85.5479 127.54 85.5945 127.233 85.5945 126.94C85.5945 126.22 85.3412 125.653 84.8345 125.24C84.3279 124.827 83.5879 124.62 82.6145 124.62C81.8679 124.62 81.1945 124.747 80.5945 125C79.9945 125.24 79.4745 125.62 79.0345 126.14L77.6745 124.96C78.2079 124.28 78.9212 123.76 79.8145 123.4C80.7212 123.027 81.7145 122.84 82.7945 122.84C83.7679 122.84 84.6145 123 85.3345 123.32C86.0545 123.627 86.6079 124.073 86.9945 124.66C87.3945 125.247 87.5945 125.94 87.5945 126.74C87.5945 127.193 87.5345 127.64 87.4145 128.08C87.2945 128.52 87.0679 128.987 86.7345 129.48C86.4012 129.973 85.9212 130.527 85.2945 131.14L80.2145 136.04L79.7345 135.26H88.1945V137H78.1345ZM109.33 126.3C110.183 126.3 110.937 126.467 111.59 126.8C112.243 127.133 112.75 127.64 113.11 128.32C113.483 129 113.67 129.86 113.67 130.9V137H111.75V131.12C111.75 130.093 111.51 129.32 111.03 128.8C110.55 128.28 109.877 128.02 109.01 128.02C108.37 128.02 107.81 128.153 107.33 128.42C106.85 128.687 106.477 129.08 106.21 129.6C105.957 130.12 105.83 130.767 105.83 131.54V137H103.91V131.12C103.91 130.093 103.67 129.32 103.19 128.8C102.723 128.28 102.05 128.02 101.17 128.02C100.543 128.02 99.99 128.153 99.51 128.42C99.03 128.687 98.6567 129.08 98.39 129.6C98.1233 130.12 97.99 130.767 97.99 131.54V137H96.07V126.4H97.91V129.22L97.61 128.5C97.9433 127.807 98.4567 127.267 99.15 126.88C99.8433 126.493 100.65 126.3 101.57 126.3C102.583 126.3 103.457 126.553 104.19 127.06C104.923 127.553 105.403 128.307 105.63 129.32L104.85 129C105.17 128.187 105.73 127.533 106.53 127.04C107.33 126.547 108.263 126.3 109.33 126.3ZM121.743 137.12C120.676 137.12 119.729 136.887 118.903 136.42C118.076 135.953 117.423 135.313 116.943 134.5C116.463 133.673 116.223 132.74 116.223 131.7C116.223 130.647 116.463 129.713 116.943 128.9C117.423 128.087 118.076 127.453 118.903 127C119.729 126.533 120.676 126.3 121.743 126.3C122.796 126.3 123.736 126.533 124.563 127C125.403 127.453 126.056 128.087 126.523 128.9C127.003 129.7 127.243 130.633 127.243 131.7C127.243 132.753 127.003 133.687 126.523 134.5C126.056 135.313 125.403 135.953 124.563 136.42C123.736 136.887 122.796 137.12 121.743 137.12ZM121.743 135.44C122.423 135.44 123.029 135.287 123.563 134.98C124.109 134.673 124.536 134.24 124.843 133.68C125.149 133.107 125.303 132.447 125.303 131.7C125.303 130.94 125.149 130.287 124.843 129.74C124.536 129.18 124.109 128.747 123.563 128.44C123.029 128.133 122.423 127.98 121.743 127.98C121.063 127.98 120.456 128.133 119.923 128.44C119.389 128.747 118.963 129.18 118.643 129.74C118.323 130.287 118.163 130.94 118.163 131.7C118.163 132.447 118.323 133.107 118.643 133.68C118.963 134.24 119.389 134.673 119.923 134.98C120.456 135.287 121.063 135.44 121.743 135.44ZM135.558 126.3C136.425 126.3 137.185 126.467 137.838 126.8C138.505 127.133 139.025 127.64 139.398 128.32C139.771 129 139.958 129.86 139.958 130.9V137H138.038V131.12C138.038 130.093 137.785 129.32 137.278 128.8C136.785 128.28 136.085 128.02 135.178 128.02C134.498 128.02 133.905 128.153 133.398 128.42C132.891 128.687 132.498 129.08 132.218 129.6C131.951 130.12 131.818 130.767 131.818 131.54V137H129.898V126.4H131.738V129.26L131.438 128.5C131.785 127.807 132.318 127.267 133.038 126.88C133.758 126.493 134.598 126.3 135.558 126.3ZM147.151 137.12C146.085 137.12 145.258 136.833 144.671 136.26C144.085 135.687 143.791 134.867 143.791 133.8V124.08H145.711V133.72C145.711 134.293 145.851 134.733 146.131 135.04C146.425 135.347 146.838 135.5 147.371 135.5C147.971 135.5 148.471 135.333 148.871 135L149.471 136.38C149.178 136.633 148.825 136.82 148.411 136.94C148.011 137.06 147.591 137.12 147.151 137.12ZM141.991 127.98V126.4H148.751V127.98H141.991ZM157.453 126.3C158.319 126.3 159.079 126.467 159.733 126.8C160.399 127.133 160.919 127.64 161.293 128.32C161.666 129 161.853 129.86 161.853 130.9V137H159.933V131.12C159.933 130.093 159.679 129.32 159.173 128.8C158.679 128.28 157.979 128.02 157.073 128.02C156.393 128.02 155.799 128.153 155.293 128.42C154.786 128.687 154.393 129.08 154.113 129.6C153.846 130.12 153.713 130.767 153.713 131.54V137H151.793V122.16H153.713V129.26L153.333 128.5C153.679 127.807 154.213 127.267 154.933 126.88C155.653 126.493 156.493 126.3 157.453 126.3ZM168.446 137.12C167.566 137.12 166.726 137 165.926 136.76C165.139 136.52 164.519 136.227 164.066 135.88L164.866 134.36C165.319 134.667 165.879 134.927 166.546 135.14C167.213 135.353 167.893 135.46 168.586 135.46C169.479 135.46 170.119 135.333 170.506 135.08C170.906 134.827 171.106 134.473 171.106 134.02C171.106 133.687 170.986 133.427 170.746 133.24C170.506 133.053 170.186 132.913 169.786 132.82C169.399 132.727 168.966 132.647 168.486 132.58C168.006 132.5 167.526 132.407 167.046 132.3C166.566 132.18 166.126 132.02 165.726 131.82C165.326 131.607 165.006 131.32 164.766 130.96C164.526 130.587 164.406 130.093 164.406 129.48C164.406 128.84 164.586 128.28 164.946 127.8C165.306 127.32 165.813 126.953 166.466 126.7C167.133 126.433 167.919 126.3 168.826 126.3C169.519 126.3 170.219 126.387 170.926 126.56C171.646 126.72 172.233 126.953 172.686 127.26L171.866 128.78C171.386 128.46 170.886 128.24 170.366 128.12C169.846 128 169.326 127.94 168.806 127.94C167.966 127.94 167.339 128.08 166.926 128.36C166.513 128.627 166.306 128.973 166.306 129.4C166.306 129.76 166.426 130.04 166.666 130.24C166.919 130.427 167.239 130.573 167.626 130.68C168.026 130.787 168.466 130.88 168.946 130.96C169.426 131.027 169.906 131.12 170.386 131.24C170.866 131.347 171.299 131.5 171.686 131.7C172.086 131.9 172.406 132.18 172.646 132.54C172.899 132.9 173.026 133.38 173.026 133.98C173.026 134.62 172.839 135.173 172.466 135.64C172.093 136.107 171.566 136.473 170.886 136.74C170.206 136.993 169.393 137.12 168.446 137.12ZM36.1912 167V165.64L41.8912 160.14C42.3978 159.66 42.7712 159.24 43.0112 158.88C43.2645 158.507 43.4312 158.167 43.5112 157.86C43.6045 157.54 43.6512 157.233 43.6512 156.94C43.6512 156.22 43.3978 155.653 42.8912 155.24C42.3845 154.827 41.6445 154.62 40.6712 154.62C39.9245 154.62 39.2512 154.747 38.6512 155C38.0512 155.24 37.5312 155.62 37.0912 156.14L35.7312 154.96C36.2645 154.28 36.9778 153.76 37.8712 153.4C38.7778 153.027 39.7712 152.84 40.8512 152.84C41.8245 152.84 42.6712 153 43.3912 153.32C44.1112 153.627 44.6645 154.073 45.0512 154.66C45.4512 155.247 45.6512 155.94 45.6512 156.74C45.6512 157.193 45.5912 157.64 45.4712 158.08C45.3512 158.52 45.1245 158.987 44.7912 159.48C44.4578 159.973 43.9778 160.527 43.3512 161.14L38.2712 166.04L37.7912 165.26H46.2512V167H36.1912ZM53.596 167.16C52.5027 167.16 51.5227 166.88 50.656 166.32C49.8027 165.76 49.1227 164.947 48.616 163.88C48.1227 162.813 47.876 161.52 47.876 160C47.876 158.48 48.1227 157.187 48.616 156.12C49.1227 155.053 49.8027 154.24 50.656 153.68C51.5227 153.12 52.5027 152.84 53.596 152.84C54.676 152.84 55.6493 153.12 56.516 153.68C57.3827 154.24 58.0627 155.053 58.556 156.12C59.0493 157.187 59.296 158.48 59.296 160C59.296 161.52 59.0493 162.813 58.556 163.88C58.0627 164.947 57.3827 165.76 56.516 166.32C55.6493 166.88 54.676 167.16 53.596 167.16ZM53.596 165.38C54.3293 165.38 54.9693 165.18 55.516 164.78C56.076 164.38 56.5093 163.78 56.816 162.98C57.136 162.18 57.296 161.187 57.296 160C57.296 158.813 57.136 157.82 56.816 157.02C56.5093 156.22 56.076 155.62 55.516 155.22C54.9693 154.82 54.3293 154.62 53.596 154.62C52.8627 154.62 52.216 154.82 51.656 155.22C51.096 155.62 50.656 156.22 50.336 157.02C50.0293 157.82 49.876 158.813 49.876 160C49.876 161.187 50.0293 162.18 50.336 162.98C50.656 163.78 51.096 164.38 51.656 164.78C52.216 165.18 52.8627 165.38 53.596 165.38ZM60.9959 167V165.64L66.6959 160.14C67.2025 159.66 67.5759 159.24 67.8159 158.88C68.0692 158.507 68.2359 158.167 68.3159 157.86C68.4092 157.54 68.4559 157.233 68.4559 156.94C68.4559 156.22 68.2025 155.653 67.6959 155.24C67.1892 154.827 66.4492 154.62 65.4759 154.62C64.7292 154.62 64.0559 154.747 63.4559 155C62.8559 155.24 62.3359 155.62 61.8959 156.14L60.5359 154.96C61.0692 154.28 61.7825 153.76 62.6759 153.4C63.5825 153.027 64.5759 152.84 65.6559 152.84C66.6292 152.84 67.4759 153 68.1959 153.32C68.9159 153.627 69.4692 154.073 69.8559 154.66C70.2559 155.247 70.4559 155.94 70.4559 156.74C70.4559 157.193 70.3959 157.64 70.2759 158.08C70.1559 158.52 69.9292 158.987 69.5959 159.48C69.2625 159.973 68.7825 160.527 68.1559 161.14L63.0759 166.04L62.5959 165.26H71.0559V167H60.9959ZM72.4802 167V165.64L78.1802 160.14C78.6869 159.66 79.0602 159.24 79.3002 158.88C79.5536 158.507 79.7202 158.167 79.8002 157.86C79.8936 157.54 79.9402 157.233 79.9402 156.94C79.9402 156.22 79.6869 155.653 79.1802 155.24C78.6736 154.827 77.9336 154.62 76.9602 154.62C76.2136 154.62 75.5402 154.747 74.9402 155C74.3402 155.24 73.8202 155.62 73.3802 156.14L72.0202 154.96C72.5536 154.28 73.2669 153.76 74.1602 153.4C75.0669 153.027 76.0602 152.84 77.1402 152.84C78.1136 152.84 78.9602 153 79.6802 153.32C80.4002 153.627 80.9536 154.073 81.3402 154.66C81.7402 155.247 81.9402 155.94 81.9402 156.74C81.9402 157.193 81.8802 157.64 81.7602 158.08C81.6402 158.52 81.4136 158.987 81.0802 159.48C80.7469 159.973 80.2669 160.527 79.6402 161.14L74.5602 166.04L74.0802 165.26H82.5402V167H72.4802ZM82.8599 169L89.4599 150.16H91.1999L84.5999 169H82.8599ZM96.7405 167.16C95.6472 167.16 94.6672 166.88 93.8005 166.32C92.9472 165.76 92.2672 164.947 91.7605 163.88C91.2672 162.813 91.0205 161.52 91.0205 160C91.0205 158.48 91.2672 157.187 91.7605 156.12C92.2672 155.053 92.9472 154.24 93.8005 153.68C94.6672 153.12 95.6472 152.84 96.7405 152.84C97.8205 152.84 98.7939 153.12 99.6605 153.68C100.527 154.24 101.207 155.053 101.701 156.12C102.194 157.187 102.441 158.48 102.441 160C102.441 161.52 102.194 162.813 101.701 163.88C101.207 164.947 100.527 165.76 99.6605 166.32C98.7939 166.88 97.8205 167.16 96.7405 167.16ZM96.7405 165.38C97.4739 165.38 98.1139 165.18 98.6605 164.78C99.2205 164.38 99.6539 163.78 99.9605 162.98C100.281 162.18 100.441 161.187 100.441 160C100.441 158.813 100.281 157.82 99.9605 157.02C99.6539 156.22 99.2205 155.62 98.6605 155.22C98.1139 154.82 97.4739 154.62 96.7405 154.62C96.0072 154.62 95.3605 154.82 94.8005 155.22C94.2405 155.62 93.8005 156.22 93.4805 157.02C93.1739 157.82 93.0205 158.813 93.0205 160C93.0205 161.187 93.1739 162.18 93.4805 162.98C93.8005 163.78 94.2405 164.38 94.8005 164.78C95.3605 165.18 96.0072 165.38 96.7405 165.38ZM106.72 167V153.8L107.58 154.74H103.56V153H108.7V167H106.72ZM121.974 167.16C121.027 167.16 120.187 167.007 119.454 166.7C118.72 166.393 118.14 165.967 117.714 165.42C117.287 164.873 117.074 164.24 117.074 163.52C117.074 162.893 117.214 162.32 117.494 161.8C117.774 161.28 118.22 160.78 118.834 160.3C119.447 159.807 120.254 159.3 121.254 158.78C122.067 158.353 122.7 157.98 123.154 157.66C123.62 157.34 123.947 157.04 124.134 156.76C124.334 156.467 124.434 156.153 124.434 155.82C124.434 155.367 124.274 155 123.954 154.72C123.634 154.427 123.174 154.28 122.574 154.28C121.947 154.28 121.454 154.44 121.094 154.76C120.747 155.067 120.574 155.473 120.574 155.98C120.574 156.233 120.614 156.48 120.694 156.72C120.787 156.947 120.947 157.207 121.174 157.5C121.414 157.78 121.754 158.14 122.194 158.58L129.594 165.94L128.514 167.22L120.654 159.4C120.187 158.933 119.82 158.52 119.554 158.16C119.287 157.787 119.094 157.427 118.974 157.08C118.854 156.733 118.794 156.38 118.794 156.02C118.794 155.393 118.947 154.847 119.254 154.38C119.574 153.9 120.014 153.533 120.574 153.28C121.147 153.013 121.814 152.88 122.574 152.88C123.28 152.88 123.894 153 124.414 153.24C124.934 153.467 125.334 153.8 125.614 154.24C125.907 154.667 126.054 155.187 126.054 155.8C126.054 156.333 125.92 156.827 125.654 157.28C125.4 157.733 124.987 158.173 124.414 158.6C123.84 159.027 123.067 159.487 122.094 159.98C121.294 160.393 120.667 160.78 120.214 161.14C119.76 161.487 119.434 161.833 119.234 162.18C119.047 162.527 118.954 162.907 118.954 163.32C118.954 163.76 119.08 164.153 119.334 164.5C119.6 164.833 119.967 165.093 120.434 165.28C120.914 165.467 121.467 165.56 122.094 165.56C122.987 165.56 123.794 165.367 124.514 164.98C125.234 164.593 125.834 164.013 126.314 163.24C126.807 162.467 127.167 161.507 127.394 160.36L128.934 160.86C128.667 162.207 128.207 163.347 127.554 164.28C126.914 165.213 126.12 165.927 125.174 166.42C124.227 166.913 123.16 167.16 121.974 167.16ZM135.996 167V165.64L141.696 160.14C142.203 159.66 142.576 159.24 142.816 158.88C143.069 158.507 143.236 158.167 143.316 157.86C143.409 157.54 143.456 157.233 143.456 156.94C143.456 156.22 143.203 155.653 142.696 155.24C142.189 154.827 141.449 154.62 140.476 154.62C139.729 154.62 139.056 154.747 138.456 155C137.856 155.24 137.336 155.62 136.896 156.14L135.536 154.96C136.069 154.28 136.783 153.76 137.676 153.4C138.583 153.027 139.576 152.84 140.656 152.84C141.629 152.84 142.476 153 143.196 153.32C143.916 153.627 144.469 154.073 144.856 154.66C145.256 155.247 145.456 155.94 145.456 156.74C145.456 157.193 145.396 157.64 145.276 158.08C145.156 158.52 144.929 158.987 144.596 159.48C144.263 159.973 143.783 160.527 143.156 161.14L138.076 166.04L137.596 165.26H146.056V167H135.996ZM153.401 167.16C152.307 167.16 151.327 166.88 150.461 166.32C149.607 165.76 148.927 164.947 148.421 163.88C147.927 162.813 147.681 161.52 147.681 160C147.681 158.48 147.927 157.187 148.421 156.12C148.927 155.053 149.607 154.24 150.461 153.68C151.327 153.12 152.307 152.84 153.401 152.84C154.481 152.84 155.454 153.12 156.321 153.68C157.187 154.24 157.867 155.053 158.361 156.12C158.854 157.187 159.101 158.48 159.101 160C159.101 161.52 158.854 162.813 158.361 163.88C157.867 164.947 157.187 165.76 156.321 166.32C155.454 166.88 154.481 167.16 153.401 167.16ZM153.401 165.38C154.134 165.38 154.774 165.18 155.321 164.78C155.881 164.38 156.314 163.78 156.621 162.98C156.941 162.18 157.101 161.187 157.101 160C157.101 158.813 156.941 157.82 156.621 157.02C156.314 156.22 155.881 155.62 155.321 155.22C154.774 154.82 154.134 154.62 153.401 154.62C152.667 154.62 152.021 154.82 151.461 155.22C150.901 155.62 150.461 156.22 150.141 157.02C149.834 157.82 149.681 158.813 149.681 160C149.681 161.187 149.834 162.18 150.141 162.98C150.461 163.78 150.901 164.38 151.461 164.78C152.021 165.18 152.667 165.38 153.401 165.38ZM160.801 167V165.64L166.501 160.14C167.007 159.66 167.381 159.24 167.621 158.88C167.874 158.507 168.041 158.167 168.121 157.86C168.214 157.54 168.261 157.233 168.261 156.94C168.261 156.22 168.007 155.653 167.501 155.24C166.994 154.827 166.254 154.62 165.281 154.62C164.534 154.62 163.861 154.747 163.261 155C162.661 155.24 162.141 155.62 161.701 156.14L160.341 154.96C160.874 154.28 161.587 153.76 162.481 153.4C163.387 153.027 164.381 152.84 165.461 152.84C166.434 152.84 167.281 153 168.001 153.32C168.721 153.627 169.274 154.073 169.661 154.66C170.061 155.247 170.261 155.94 170.261 156.74C170.261 157.193 170.201 157.64 170.081 158.08C169.961 158.52 169.734 158.987 169.401 159.48C169.067 159.973 168.587 160.527 167.961 161.14L162.881 166.04L162.401 165.26H170.861V167H160.801ZM172.285 167V165.64L177.985 160.14C178.492 159.66 178.865 159.24 179.105 158.88C179.358 158.507 179.525 158.167 179.605 157.86C179.698 157.54 179.745 157.233 179.745 156.94C179.745 156.22 179.492 155.653 178.985 155.24C178.478 154.827 177.738 154.62 176.765 154.62C176.018 154.62 175.345 154.747 174.745 155C174.145 155.24 173.625 155.62 173.185 156.14L171.825 154.96C172.358 154.28 173.072 153.76 173.965 153.4C174.872 153.027 175.865 152.84 176.945 152.84C177.918 152.84 178.765 153 179.485 153.32C180.205 153.627 180.758 154.073 181.145 154.66C181.545 155.247 181.745 155.94 181.745 156.74C181.745 157.193 181.685 157.64 181.565 158.08C181.445 158.52 181.218 158.987 180.885 159.48C180.552 159.973 180.072 160.527 179.445 161.14L174.365 166.04L173.885 165.26H182.345V167H172.285ZM182.665 169L189.265 150.16H191.005L184.405 169H182.665ZM196.545 167.16C195.452 167.16 194.472 166.88 193.605 166.32C192.752 165.76 192.072 164.947 191.565 163.88C191.072 162.813 190.825 161.52 190.825 160C190.825 158.48 191.072 157.187 191.565 156.12C192.072 155.053 192.752 154.24 193.605 153.68C194.472 153.12 195.452 152.84 196.545 152.84C197.625 152.84 198.599 153.12 199.465 153.68C200.332 154.24 201.012 155.053 201.505 156.12C201.999 157.187 202.245 158.48 202.245 160C202.245 161.52 201.999 162.813 201.505 163.88C201.012 164.947 200.332 165.76 199.465 166.32C198.599 166.88 197.625 167.16 196.545 167.16ZM196.545 165.38C197.279 165.38 197.919 165.18 198.465 164.78C199.025 164.38 199.459 163.78 199.765 162.98C200.085 162.18 200.245 161.187 200.245 160C200.245 158.813 200.085 157.82 199.765 157.02C199.459 156.22 199.025 155.62 198.465 155.22C197.919 154.82 197.279 154.62 196.545 154.62C195.812 154.62 195.165 154.82 194.605 155.22C194.045 155.62 193.605 156.22 193.285 157.02C192.979 157.82 192.825 158.813 192.825 160C192.825 161.187 192.979 162.18 193.285 162.98C193.605 163.78 194.045 164.38 194.605 164.78C195.165 165.18 195.812 165.38 196.545 165.38ZM210.045 167.16C208.805 167.16 207.745 166.887 206.865 166.34C205.985 165.793 205.312 165.007 204.845 163.98C204.392 162.94 204.165 161.673 204.165 160.18C204.165 158.593 204.445 157.253 205.005 156.16C205.565 155.067 206.345 154.24 207.345 153.68C208.345 153.12 209.492 152.84 210.785 152.84C211.452 152.84 212.085 152.907 212.685 153.04C213.298 153.173 213.825 153.38 214.265 153.66L213.505 155.22C213.145 154.967 212.732 154.793 212.265 154.7C211.812 154.607 211.332 154.56 210.825 154.56C209.398 154.56 208.265 155.007 207.425 155.9C206.585 156.78 206.165 158.093 206.165 159.84C206.165 160.12 206.178 160.453 206.205 160.84C206.232 161.227 206.298 161.607 206.405 161.98L205.725 161.3C205.925 160.687 206.238 160.173 206.665 159.76C207.105 159.333 207.625 159.02 208.225 158.82C208.838 158.607 209.498 158.5 210.205 158.5C211.138 158.5 211.965 158.673 212.685 159.02C213.405 159.367 213.972 159.86 214.385 160.5C214.798 161.127 215.005 161.873 215.005 162.74C215.005 163.633 214.785 164.413 214.345 165.08C213.905 165.747 213.312 166.26 212.565 166.62C211.818 166.98 210.978 167.16 210.045 167.16ZM209.965 165.54C210.578 165.54 211.112 165.427 211.565 165.2C212.032 164.973 212.398 164.66 212.665 164.26C212.932 163.847 213.065 163.367 213.065 162.82C213.065 161.993 212.778 161.34 212.205 160.86C211.632 160.367 210.852 160.12 209.865 160.12C209.225 160.12 208.665 160.24 208.185 160.48C207.705 160.72 207.325 161.047 207.045 161.46C206.778 161.86 206.645 162.32 206.645 162.84C206.645 163.32 206.772 163.767 207.025 164.18C207.278 164.58 207.652 164.907 208.145 165.16C208.638 165.413 209.245 165.54 209.965 165.54Z" fill="#505050"/>
</svg>
