<svg width="250" height="250" viewBox="0 0 250 250" fill="none" xmlns="http://www.w3.org/2000/svg">
<circle cx="125" cy="125" r="120.5" stroke="#F4B076" stroke-width="9"/>
<path d="M96.2 84.64L97.64 84.28V68.8H94.88C94.88 69.776 94.616 70.712 94.088 71.608C93.864 71.976 93.608 72.28 93.32 72.52H92.6V68.2H106.64V72.52H105.92C105.616 72.28 105.352 71.976 105.128 71.608C104.616 70.744 104.36 69.808 104.36 68.8H101.6V84.28L103.04 84.64V85H96.2V84.64ZM113.359 85.36C111.375 85.36 109.815 84.8 108.679 83.68C107.559 82.544 106.999 80.984 106.999 79C106.999 77.016 107.559 75.464 108.679 74.344C109.815 73.208 111.375 72.64 113.359 72.64C115.343 72.64 116.895 73.208 118.015 74.344C119.151 75.464 119.719 77.016 119.719 79C119.719 80.984 119.151 82.544 118.015 83.68C116.895 84.8 115.343 85.36 113.359 85.36ZM113.359 84.88C113.999 84.88 114.535 84.432 114.967 83.536C115.415 82.64 115.639 81.128 115.639 79C115.639 76.872 115.415 75.36 114.967 74.464C114.535 73.568 113.999 73.12 113.359 73.12C112.719 73.12 112.175 73.568 111.727 74.464C111.295 75.36 111.079 76.872 111.079 79C111.079 81.128 111.295 82.64 111.727 83.536C112.175 84.432 112.719 84.88 113.359 84.88ZM128.008 85.36C126.024 85.36 124.464 84.8 123.328 83.68C122.208 82.544 121.648 80.984 121.648 79C121.648 77.016 122.208 75.464 123.328 74.344C124.464 73.208 126.024 72.64 128.008 72.64C129.992 72.64 131.544 73.208 132.664 74.344C133.8 75.464 134.368 77.016 134.368 79C134.368 80.984 133.8 82.544 132.664 83.68C131.544 84.8 129.992 85.36 128.008 85.36ZM128.008 84.88C128.648 84.88 129.184 84.432 129.616 83.536C130.064 82.64 130.288 81.128 130.288 79C130.288 76.872 130.064 75.36 129.616 74.464C129.184 73.568 128.648 73.12 128.008 73.12C127.368 73.12 126.824 73.568 126.376 74.464C125.944 75.36 125.728 76.872 125.728 79C125.728 81.128 125.944 82.64 126.376 83.536C126.824 84.432 127.368 84.88 128.008 84.88ZM136.296 84.64L137.736 84.28V68.92L136.296 68.56V68.2H139.416C140.856 68.2 141.576 68.92 141.576 70.36V84.28L143.016 84.64V85H136.296V84.64ZM150.092 85.36C149.1 85.36 148.212 85.144 147.428 84.712C147.044 84.504 146.732 84.28 146.492 84.04C146.236 84.392 145.956 84.664 145.652 84.856C145.508 84.952 145.348 85.04 145.172 85.12H144.572V81.04H145.532C145.74 81.712 146.044 82.336 146.444 82.912C147.292 84.144 148.348 84.76 149.612 84.76C150.284 84.76 150.788 84.6 151.124 84.28C151.476 83.944 151.652 83.464 151.652 82.84C151.652 82.312 151.412 81.872 150.932 81.52C150.468 81.152 149.732 80.704 148.724 80.176C147.86 79.744 147.156 79.36 146.612 79.024C146.084 78.672 145.628 78.24 145.244 77.728C144.876 77.2 144.692 76.584 144.692 75.88C144.692 74.92 145.1 74.144 145.916 73.552C146.748 72.944 148.02 72.64 149.732 72.64C150.58 72.64 151.364 72.864 152.084 73.312C152.436 73.52 152.74 73.736 152.996 73.96C153.204 73.672 153.484 73.4 153.836 73.144C154.108 72.984 154.268 72.896 154.316 72.88H154.916V76.96H153.956C153.716 76.272 153.42 75.656 153.068 75.112C152.268 73.864 151.316 73.24 150.212 73.24C149.78 73.24 149.412 73.4 149.108 73.72C148.804 74.04 148.652 74.44 148.652 74.92C148.652 75.528 148.908 76.04 149.42 76.456C149.932 76.856 150.708 77.32 151.748 77.848C152.596 78.28 153.268 78.664 153.764 79C154.276 79.32 154.708 79.72 155.06 80.2C155.428 80.68 155.612 81.24 155.612 81.88C155.612 84.2 153.772 85.36 150.092 85.36Z" fill="#505050"/>
<path d="M91.6011 137L97.9411 123H99.9211L106.281 137H104.181L98.5211 124.12H99.3211L93.6611 137H91.6011ZM94.3011 133.5L94.8411 131.9H102.721L103.301 133.5H94.3011ZM112.372 137.12C111.345 137.12 110.425 136.893 109.612 136.44C108.812 135.987 108.179 135.353 107.712 134.54C107.245 133.727 107.012 132.78 107.012 131.7C107.012 130.62 107.245 129.68 107.712 128.88C108.179 128.067 108.812 127.433 109.612 126.98C110.425 126.527 111.345 126.3 112.372 126.3C113.265 126.3 114.072 126.5 114.792 126.9C115.512 127.3 116.085 127.9 116.512 128.7C116.952 129.5 117.172 130.5 117.172 131.7C117.172 132.9 116.959 133.9 116.532 134.7C116.119 135.5 115.552 136.107 114.832 136.52C114.112 136.92 113.292 137.12 112.372 137.12ZM112.532 135.44C113.199 135.44 113.799 135.287 114.332 134.98C114.879 134.673 115.305 134.24 115.612 133.68C115.932 133.107 116.092 132.447 116.092 131.7C116.092 130.94 115.932 130.287 115.612 129.74C115.305 129.18 114.879 128.747 114.332 128.44C113.799 128.133 113.199 127.98 112.532 127.98C111.852 127.98 111.245 128.133 110.712 128.44C110.179 128.747 109.752 129.18 109.432 129.74C109.112 130.287 108.952 130.94 108.952 131.7C108.952 132.447 109.112 133.107 109.432 133.68C109.752 134.24 110.179 134.673 110.712 134.98C111.245 135.287 111.852 135.44 112.532 135.44ZM116.152 137V134.14L116.272 131.68L116.072 129.22V122.16H117.992V137H116.152ZM126.165 137.12C125.098 137.12 124.151 136.887 123.325 136.42C122.498 135.953 121.845 135.313 121.365 134.5C120.885 133.673 120.645 132.74 120.645 131.7C120.645 130.647 120.885 129.713 121.365 128.9C121.845 128.087 122.498 127.453 123.325 127C124.151 126.533 125.098 126.3 126.165 126.3C127.218 126.3 128.158 126.533 128.985 127C129.825 127.453 130.478 128.087 130.945 128.9C131.425 129.7 131.665 130.633 131.665 131.7C131.665 132.753 131.425 133.687 130.945 134.5C130.478 135.313 129.825 135.953 128.985 136.42C128.158 136.887 127.218 137.12 126.165 137.12ZM126.165 135.44C126.845 135.44 127.451 135.287 127.985 134.98C128.531 134.673 128.958 134.24 129.265 133.68C129.571 133.107 129.725 132.447 129.725 131.7C129.725 130.94 129.571 130.287 129.265 129.74C128.958 129.18 128.531 128.747 127.985 128.44C127.451 128.133 126.845 127.98 126.165 127.98C125.485 127.98 124.878 128.133 124.345 128.44C123.811 128.747 123.385 129.18 123.065 129.74C122.745 130.287 122.585 130.94 122.585 131.7C122.585 132.447 122.745 133.107 123.065 133.68C123.385 134.24 123.811 134.673 124.345 134.98C124.878 135.287 125.485 135.44 126.165 135.44ZM139.94 137.12C139.033 137.12 138.213 136.92 137.48 136.52C136.76 136.107 136.187 135.5 135.76 134.7C135.347 133.9 135.14 132.9 135.14 131.7C135.14 130.5 135.353 129.5 135.78 128.7C136.22 127.9 136.8 127.3 137.52 126.9C138.253 126.5 139.06 126.3 139.94 126.3C140.98 126.3 141.9 126.527 142.7 126.98C143.5 127.433 144.133 128.067 144.6 128.88C145.067 129.68 145.3 130.62 145.3 131.7C145.3 132.78 145.067 133.727 144.6 134.54C144.133 135.353 143.5 135.987 142.7 136.44C141.9 136.893 140.98 137.12 139.94 137.12ZM134.32 137V122.16H136.24V129.22L136.04 131.68L136.16 134.14V137H134.32ZM139.78 135.44C140.46 135.44 141.067 135.287 141.6 134.98C142.147 134.673 142.573 134.24 142.88 133.68C143.2 133.107 143.36 132.447 143.36 131.7C143.36 130.94 143.2 130.287 142.88 129.74C142.573 129.18 142.147 128.747 141.6 128.44C141.067 128.133 140.46 127.98 139.78 127.98C139.113 127.98 138.507 128.133 137.96 128.44C137.427 128.747 137 129.18 136.68 129.74C136.373 130.287 136.22 130.94 136.22 131.7C136.22 132.447 136.373 133.107 136.68 133.68C137 134.24 137.427 134.673 137.96 134.98C138.507 135.287 139.113 135.44 139.78 135.44ZM152.673 137.12C151.539 137.12 150.539 136.887 149.673 136.42C148.819 135.953 148.153 135.313 147.673 134.5C147.206 133.687 146.973 132.753 146.973 131.7C146.973 130.647 147.199 129.713 147.653 128.9C148.119 128.087 148.753 127.453 149.553 127C150.366 126.533 151.279 126.3 152.293 126.3C153.319 126.3 154.226 126.527 155.013 126.98C155.799 127.433 156.413 128.073 156.853 128.9C157.306 129.713 157.533 130.667 157.533 131.76C157.533 131.84 157.526 131.933 157.513 132.04C157.513 132.147 157.506 132.247 157.493 132.34H148.473V130.96H156.493L155.713 131.44C155.726 130.76 155.586 130.153 155.293 129.62C154.999 129.087 154.593 128.673 154.073 128.38C153.566 128.073 152.973 127.92 152.293 127.92C151.626 127.92 151.033 128.073 150.513 128.38C149.993 128.673 149.586 129.093 149.293 129.64C148.999 130.173 148.853 130.787 148.853 131.48V131.8C148.853 132.507 149.013 133.14 149.333 133.7C149.666 134.247 150.126 134.673 150.713 134.98C151.299 135.287 151.973 135.44 152.733 135.44C153.359 135.44 153.926 135.333 154.433 135.12C154.953 134.907 155.406 134.587 155.793 134.16L156.853 135.4C156.373 135.96 155.773 136.387 155.053 136.68C154.346 136.973 153.553 137.12 152.673 137.12ZM78.4672 167V153H80.4672V167H78.4672ZM84.3786 167V152.16H86.2986V167H84.3786ZM89.9645 167V152.16H91.8845V167H89.9645ZM100.01 167.12C99.1038 167.12 98.3038 166.953 97.6105 166.62C96.9305 166.287 96.3971 165.78 96.0105 165.1C95.6371 164.407 95.4505 163.54 95.4505 162.5V156.4H97.3705V162.28C97.3705 163.32 97.6171 164.1 98.1105 164.62C98.6171 165.14 99.3238 165.4 100.23 165.4C100.897 165.4 101.477 165.267 101.97 165C102.464 164.72 102.844 164.32 103.11 163.8C103.377 163.267 103.51 162.627 103.51 161.88V156.4H105.43V167H103.61V164.14L103.91 164.9C103.564 165.607 103.044 166.153 102.35 166.54C101.657 166.927 100.877 167.12 100.01 167.12ZM112.126 167.12C111.246 167.12 110.406 167 109.606 166.76C108.819 166.52 108.199 166.227 107.746 165.88L108.546 164.36C108.999 164.667 109.559 164.927 110.226 165.14C110.892 165.353 111.572 165.46 112.266 165.46C113.159 165.46 113.799 165.333 114.186 165.08C114.586 164.827 114.786 164.473 114.786 164.02C114.786 163.687 114.666 163.427 114.426 163.24C114.186 163.053 113.866 162.913 113.466 162.82C113.079 162.727 112.646 162.647 112.166 162.58C111.686 162.5 111.206 162.407 110.726 162.3C110.246 162.18 109.806 162.02 109.406 161.82C109.006 161.607 108.686 161.32 108.446 160.96C108.206 160.587 108.086 160.093 108.086 159.48C108.086 158.84 108.266 158.28 108.626 157.8C108.986 157.32 109.492 156.953 110.146 156.7C110.812 156.433 111.599 156.3 112.506 156.3C113.199 156.3 113.899 156.387 114.606 156.56C115.326 156.72 115.912 156.953 116.366 157.26L115.546 158.78C115.066 158.46 114.566 158.24 114.046 158.12C113.526 158 113.006 157.94 112.486 157.94C111.646 157.94 111.019 158.08 110.606 158.36C110.192 158.627 109.986 158.973 109.986 159.4C109.986 159.76 110.106 160.04 110.346 160.24C110.599 160.427 110.919 160.573 111.306 160.68C111.706 160.787 112.146 160.88 112.626 160.96C113.106 161.027 113.586 161.12 114.066 161.24C114.546 161.347 114.979 161.5 115.366 161.7C115.766 161.9 116.086 162.18 116.326 162.54C116.579 162.9 116.706 163.38 116.706 163.98C116.706 164.62 116.519 165.173 116.146 165.64C115.772 166.107 115.246 166.473 114.566 166.74C113.886 166.993 113.072 167.12 112.126 167.12ZM122.745 167.12C121.678 167.12 120.852 166.833 120.265 166.26C119.678 165.687 119.385 164.867 119.385 163.8V154.08H121.305V163.72C121.305 164.293 121.445 164.733 121.725 165.04C122.018 165.347 122.432 165.5 122.965 165.5C123.565 165.5 124.065 165.333 124.465 165L125.065 166.38C124.772 166.633 124.418 166.82 124.005 166.94C123.605 167.06 123.185 167.12 122.745 167.12ZM117.585 157.98V156.4H124.345V157.98H117.585ZM127.386 167V156.4H129.226V159.28L129.046 158.56C129.34 157.827 129.833 157.267 130.526 156.88C131.22 156.493 132.073 156.3 133.086 156.3V158.16C133.006 158.147 132.926 158.14 132.846 158.14C132.78 158.14 132.713 158.14 132.646 158.14C131.62 158.14 130.806 158.447 130.206 159.06C129.606 159.673 129.306 160.56 129.306 161.72V167H127.386ZM141.252 167V164.76L141.152 164.34V160.52C141.152 159.707 140.912 159.08 140.432 158.64C139.965 158.187 139.258 157.96 138.312 157.96C137.685 157.96 137.072 158.067 136.472 158.28C135.872 158.48 135.365 158.753 134.952 159.1L134.152 157.66C134.698 157.22 135.352 156.887 136.112 156.66C136.885 156.42 137.692 156.3 138.532 156.3C139.985 156.3 141.105 156.653 141.892 157.36C142.678 158.067 143.072 159.147 143.072 160.6V167H141.252ZM137.772 167.12C136.985 167.12 136.292 166.987 135.692 166.72C135.105 166.453 134.652 166.087 134.332 165.62C134.012 165.14 133.852 164.6 133.852 164C133.852 163.427 133.985 162.907 134.252 162.44C134.532 161.973 134.978 161.6 135.592 161.32C136.218 161.04 137.058 160.9 138.112 160.9H141.472V162.28H138.192C137.232 162.28 136.585 162.44 136.252 162.76C135.918 163.08 135.752 163.467 135.752 163.92C135.752 164.44 135.958 164.86 136.372 165.18C136.785 165.487 137.358 165.64 138.092 165.64C138.812 165.64 139.438 165.48 139.972 165.16C140.518 164.84 140.912 164.373 141.152 163.76L141.532 165.08C141.278 165.707 140.832 166.207 140.192 166.58C139.552 166.94 138.745 167.12 137.772 167.12ZM150.265 167.12C149.198 167.12 148.371 166.833 147.785 166.26C147.198 165.687 146.905 164.867 146.905 163.8V154.08H148.825V163.72C148.825 164.293 148.965 164.733 149.245 165.04C149.538 165.347 149.951 165.5 150.485 165.5C151.085 165.5 151.585 165.333 151.985 165L152.585 166.38C152.291 166.633 151.938 166.82 151.525 166.94C151.125 167.06 150.705 167.12 150.265 167.12ZM145.105 157.98V156.4H151.865V157.98H145.105ZM159.094 167.12C158.028 167.12 157.081 166.887 156.254 166.42C155.428 165.953 154.774 165.313 154.294 164.5C153.814 163.673 153.574 162.74 153.574 161.7C153.574 160.647 153.814 159.713 154.294 158.9C154.774 158.087 155.428 157.453 156.254 157C157.081 156.533 158.028 156.3 159.094 156.3C160.148 156.3 161.088 156.533 161.914 157C162.754 157.453 163.408 158.087 163.874 158.9C164.354 159.7 164.594 160.633 164.594 161.7C164.594 162.753 164.354 163.687 163.874 164.5C163.408 165.313 162.754 165.953 161.914 166.42C161.088 166.887 160.148 167.12 159.094 167.12ZM159.094 165.44C159.774 165.44 160.381 165.287 160.914 164.98C161.461 164.673 161.888 164.24 162.194 163.68C162.501 163.107 162.654 162.447 162.654 161.7C162.654 160.94 162.501 160.287 162.194 159.74C161.888 159.18 161.461 158.747 160.914 158.44C160.381 158.133 159.774 157.98 159.094 157.98C158.414 157.98 157.808 158.133 157.274 158.44C156.741 158.747 156.314 159.18 155.994 159.74C155.674 160.287 155.514 160.94 155.514 161.7C155.514 162.447 155.674 163.107 155.994 163.68C156.314 164.24 156.741 164.673 157.274 164.98C157.808 165.287 158.414 165.44 159.094 165.44ZM167.25 167V156.4H169.09V159.28L168.91 158.56C169.203 157.827 169.696 157.267 170.39 156.88C171.083 156.493 171.936 156.3 172.95 156.3V158.16C172.87 158.147 172.79 158.14 172.71 158.14C172.643 158.14 172.576 158.14 172.51 158.14C171.483 158.14 170.67 158.447 170.07 159.06C169.47 159.673 169.17 160.56 169.17 161.72V167H167.25Z" fill="#505050"/>
</svg>
