<svg width="250" height="250" viewBox="0 0 250 250" fill="none" xmlns="http://www.w3.org/2000/svg">
<circle cx="125" cy="125" r="120.5" stroke="#27A2BB" stroke-width="9"/>
<path d="M99.2 84.64L100.64 84.28V68.92L99.2 68.56V68.2H105.56C108.28 68.2 110.24 68.616 111.44 69.448C112.64 70.264 113.24 71.408 113.24 72.88C113.24 73.872 112.976 74.68 112.448 75.304C111.92 75.912 111.24 76.368 110.408 76.672C109.528 77.008 108.592 77.184 107.6 77.2V77.32C108.192 77.352 108.712 77.44 109.16 77.584C110.28 77.936 111.04 78.568 111.44 79.48L113.6 84.28L114.8 84.64V85H111.44C110.128 85 109.168 84.32 108.56 82.96L106.16 77.56H104.6V84.28L106.28 84.64V85H99.2V84.64ZM105.56 76.96C106.68 76.96 107.56 76.608 108.2 75.904C108.84 75.2 109.16 74.192 109.16 72.88C109.16 71.568 108.84 70.56 108.2 69.856C107.56 69.152 106.68 68.8 105.56 68.8H104.6V76.96H105.56ZM122.125 85.36C120.141 85.36 118.581 84.8 117.445 83.68C116.325 82.544 115.765 80.984 115.765 79C115.765 77.016 116.325 75.464 117.445 74.344C118.581 73.208 120.141 72.64 122.125 72.64C124.109 72.64 125.661 73.208 126.781 74.344C127.917 75.464 128.485 77.016 128.485 79C128.485 80.984 127.917 82.544 126.781 83.68C125.661 84.8 124.109 85.36 122.125 85.36ZM122.125 84.88C122.765 84.88 123.301 84.432 123.733 83.536C124.181 82.64 124.405 81.128 124.405 79C124.405 76.872 124.181 75.36 123.733 74.464C123.301 73.568 122.765 73.12 122.125 73.12C121.485 73.12 120.941 73.568 120.493 74.464C120.061 75.36 119.845 76.872 119.845 79C119.845 81.128 120.061 82.64 120.493 83.536C120.941 84.432 121.485 84.88 122.125 84.88ZM130.413 84.64L131.853 84.28V68.92L130.413 68.56V68.2H133.533C134.973 68.2 135.693 68.92 135.693 70.36V84.28L137.133 84.64V85H130.413V84.64ZM145.049 85.36C143.001 85.36 141.409 84.8 140.273 83.68C139.137 82.544 138.569 80.984 138.569 79C138.569 77.704 138.817 76.576 139.313 75.616C139.809 74.656 140.497 73.92 141.377 73.408C142.273 72.896 143.297 72.64 144.449 72.64C145.601 72.64 146.609 72.856 147.473 73.288C148.353 73.72 149.025 74.304 149.489 75.04C149.969 75.76 150.209 76.56 150.209 77.44C150.209 77.84 150.169 78.184 150.089 78.472L149.969 78.88C149.281 79.024 148.537 79.144 147.737 79.24C146.057 79.48 144.361 79.6 142.649 79.6C142.649 81.456 142.905 82.784 143.417 83.584C143.929 84.368 144.633 84.76 145.529 84.76C146.153 84.76 146.729 84.616 147.257 84.328C147.801 84.024 148.225 83.632 148.529 83.152C148.849 82.656 149.009 82.152 149.009 81.64H149.609C149.609 82.28 149.417 82.888 149.033 83.464C148.649 84.04 148.113 84.504 147.425 84.856C146.737 85.192 145.945 85.36 145.049 85.36ZM142.649 79C143.673 79 144.505 78.96 145.145 78.88C145.417 78.864 145.705 78.824 146.009 78.76C146.025 78.68 146.065 78.504 146.129 78.232C146.209 77.832 146.249 77.408 146.249 76.96C146.249 75.632 146.073 74.664 145.721 74.056C145.369 73.432 144.945 73.12 144.449 73.12C143.249 73.12 142.649 75.08 142.649 79Z" fill="#505050"/>
<path d="M93.4473 137.16C92.3673 137.16 91.374 136.987 90.4673 136.64C89.5607 136.28 88.774 135.78 88.1073 135.14C87.4407 134.487 86.9207 133.727 86.5473 132.86C86.174 131.993 85.9873 131.04 85.9873 130C85.9873 128.96 86.174 128.007 86.5473 127.14C86.9207 126.273 87.4407 125.52 88.1073 124.88C88.7873 124.227 89.5807 123.727 90.4873 123.38C91.394 123.02 92.394 122.84 93.4873 122.84C94.594 122.84 95.6073 123.02 96.5273 123.38C97.4473 123.74 98.2273 124.28 98.8673 125L97.6273 126.24C97.054 125.68 96.4273 125.273 95.7473 125.02C95.0807 124.753 94.354 124.62 93.5673 124.62C92.7673 124.62 92.0207 124.753 91.3273 125.02C90.6473 125.287 90.054 125.66 89.5473 126.14C89.054 126.62 88.6673 127.193 88.3873 127.86C88.1207 128.513 87.9873 129.227 87.9873 130C87.9873 130.76 88.1207 131.473 88.3873 132.14C88.6673 132.793 89.054 133.367 89.5473 133.86C90.054 134.34 90.6473 134.713 91.3273 134.98C92.0073 135.247 92.7473 135.38 93.5473 135.38C94.294 135.38 95.0073 135.267 95.6873 135.04C96.3807 134.8 97.0207 134.407 97.6073 133.86L98.7473 135.38C98.054 135.967 97.2407 136.413 96.3073 136.72C95.3873 137.013 94.434 137.16 93.4473 137.16ZM96.8273 135.12V129.92H98.7473V135.38L96.8273 135.12ZM102.297 137V126.4H104.137V129.28L103.957 128.56C104.25 127.827 104.743 127.267 105.437 126.88C106.13 126.493 106.983 126.3 107.997 126.3V128.16C107.917 128.147 107.837 128.14 107.757 128.14C107.69 128.14 107.623 128.14 107.557 128.14C106.53 128.14 105.717 128.447 105.117 129.06C104.517 129.673 104.217 130.56 104.217 131.72V137H102.297ZM116.162 137V134.76L116.062 134.34V130.52C116.062 129.707 115.822 129.08 115.342 128.64C114.875 128.187 114.168 127.96 113.222 127.96C112.595 127.96 111.982 128.067 111.382 128.28C110.782 128.48 110.275 128.753 109.862 129.1L109.062 127.66C109.608 127.22 110.262 126.887 111.022 126.66C111.795 126.42 112.602 126.3 113.442 126.3C114.895 126.3 116.015 126.653 116.802 127.36C117.588 128.067 117.982 129.147 117.982 130.6V137H116.162ZM112.682 137.12C111.895 137.12 111.202 136.987 110.602 136.72C110.015 136.453 109.562 136.087 109.242 135.62C108.922 135.14 108.762 134.6 108.762 134C108.762 133.427 108.895 132.907 109.162 132.44C109.442 131.973 109.888 131.6 110.502 131.32C111.128 131.04 111.968 130.9 113.022 130.9H116.382V132.28H113.102C112.142 132.28 111.495 132.44 111.162 132.76C110.828 133.08 110.662 133.467 110.662 133.92C110.662 134.44 110.868 134.86 111.282 135.18C111.695 135.487 112.268 135.64 113.002 135.64C113.722 135.64 114.348 135.48 114.882 135.16C115.428 134.84 115.822 134.373 116.062 133.76L116.442 135.08C116.188 135.707 115.742 136.207 115.102 136.58C114.462 136.94 113.655 137.12 112.682 137.12ZM127.155 137.12C126.275 137.12 125.468 136.92 124.735 136.52C124.015 136.107 123.435 135.5 122.995 134.7C122.568 133.9 122.355 132.9 122.355 131.7C122.355 130.5 122.562 129.5 122.975 128.7C123.402 127.9 123.975 127.3 124.695 126.9C125.428 126.5 126.248 126.3 127.155 126.3C128.195 126.3 129.115 126.527 129.915 126.98C130.715 127.433 131.348 128.067 131.815 128.88C132.282 129.68 132.515 130.62 132.515 131.7C132.515 132.78 132.282 133.727 131.815 134.54C131.348 135.353 130.715 135.987 129.915 136.44C129.115 136.893 128.195 137.12 127.155 137.12ZM121.535 140.88V126.4H123.375V129.26L123.255 131.72L123.455 134.18V140.88H121.535ZM126.995 135.44C127.675 135.44 128.282 135.287 128.815 134.98C129.362 134.673 129.788 134.24 130.095 133.68C130.415 133.107 130.575 132.447 130.575 131.7C130.575 130.94 130.415 130.287 130.095 129.74C129.788 129.18 129.362 128.747 128.815 128.44C128.282 128.133 127.675 127.98 126.995 127.98C126.328 127.98 125.722 128.133 125.175 128.44C124.642 128.747 124.215 129.18 123.895 129.74C123.588 130.287 123.435 130.94 123.435 131.7C123.435 132.447 123.588 133.107 123.895 133.68C124.215 134.24 124.642 134.673 125.175 134.98C125.722 135.287 126.328 135.44 126.995 135.44ZM140.828 126.3C141.694 126.3 142.454 126.467 143.108 126.8C143.774 127.133 144.294 127.64 144.668 128.32C145.041 129 145.228 129.86 145.228 130.9V137H143.308V131.12C143.308 130.093 143.054 129.32 142.548 128.8C142.054 128.28 141.354 128.02 140.448 128.02C139.768 128.02 139.174 128.153 138.668 128.42C138.161 128.687 137.768 129.08 137.488 129.6C137.221 130.12 137.088 130.767 137.088 131.54V137H135.168V122.16H137.088V129.26L136.708 128.5C137.054 127.807 137.588 127.267 138.308 126.88C139.028 126.493 139.868 126.3 140.828 126.3ZM148.781 137V126.4H150.701V137H148.781ZM149.741 124.36C149.368 124.36 149.054 124.24 148.801 124C148.561 123.76 148.441 123.467 148.441 123.12C148.441 122.76 148.561 122.46 148.801 122.22C149.054 121.98 149.368 121.86 149.741 121.86C150.114 121.86 150.421 121.98 150.661 122.22C150.914 122.447 151.041 122.733 151.041 123.08C151.041 123.44 150.921 123.747 150.681 124C150.441 124.24 150.128 124.36 149.741 124.36ZM158.987 137.12C157.907 137.12 156.94 136.887 156.087 136.42C155.247 135.953 154.587 135.313 154.107 134.5C153.627 133.687 153.387 132.753 153.387 131.7C153.387 130.647 153.627 129.713 154.107 128.9C154.587 128.087 155.247 127.453 156.087 127C156.94 126.533 157.907 126.3 158.987 126.3C159.947 126.3 160.8 126.493 161.547 126.88C162.307 127.253 162.894 127.813 163.307 128.56L161.847 129.5C161.5 128.98 161.074 128.6 160.567 128.36C160.074 128.107 159.54 127.98 158.967 127.98C158.274 127.98 157.654 128.133 157.107 128.44C156.56 128.747 156.127 129.18 155.807 129.74C155.487 130.287 155.327 130.94 155.327 131.7C155.327 132.46 155.487 133.12 155.807 133.68C156.127 134.24 156.56 134.673 157.107 134.98C157.654 135.287 158.274 135.44 158.967 135.44C159.54 135.44 160.074 135.32 160.567 135.08C161.074 134.827 161.5 134.44 161.847 133.92L163.307 134.84C162.894 135.573 162.307 136.14 161.547 136.54C160.8 136.927 159.947 137.12 158.987 137.12ZM80.477 167V153H86.377C87.8703 153 89.1836 153.293 90.317 153.88C91.4636 154.467 92.3503 155.287 92.977 156.34C93.617 157.393 93.937 158.613 93.937 160C93.937 161.387 93.617 162.607 92.977 163.66C92.3503 164.713 91.4636 165.533 90.317 166.12C89.1836 166.707 87.8703 167 86.377 167H80.477ZM82.477 165.26H86.257C87.417 165.26 88.417 165.04 89.257 164.6C90.1103 164.16 90.7703 163.547 91.237 162.76C91.7036 161.96 91.937 161.04 91.937 160C91.937 158.947 91.7036 158.027 91.237 157.24C90.7703 156.453 90.1103 155.84 89.257 155.4C88.417 154.96 87.417 154.74 86.257 154.74H82.477V165.26ZM101.44 167.12C100.307 167.12 99.3071 166.887 98.4404 166.42C97.5871 165.953 96.9204 165.313 96.4404 164.5C95.9737 163.687 95.7404 162.753 95.7404 161.7C95.7404 160.647 95.9671 159.713 96.4204 158.9C96.8871 158.087 97.5204 157.453 98.3204 157C99.1337 156.533 100.047 156.3 101.06 156.3C102.087 156.3 102.994 156.527 103.78 156.98C104.567 157.433 105.18 158.073 105.62 158.9C106.074 159.713 106.3 160.667 106.3 161.76C106.3 161.84 106.294 161.933 106.28 162.04C106.28 162.147 106.274 162.247 106.26 162.34H97.2404V160.96H105.26L104.48 161.44C104.494 160.76 104.354 160.153 104.06 159.62C103.767 159.087 103.36 158.673 102.84 158.38C102.334 158.073 101.74 157.92 101.06 157.92C100.394 157.92 99.8004 158.073 99.2804 158.38C98.7604 158.673 98.3537 159.093 98.0604 159.64C97.7671 160.173 97.6204 160.787 97.6204 161.48V161.8C97.6204 162.507 97.7804 163.14 98.1004 163.7C98.4337 164.247 98.8937 164.673 99.4804 164.98C100.067 165.287 100.74 165.44 101.5 165.44C102.127 165.44 102.694 165.333 103.2 165.12C103.72 164.907 104.174 164.587 104.56 164.16L105.62 165.4C105.14 165.96 104.54 166.387 103.82 166.68C103.114 166.973 102.32 167.12 101.44 167.12ZM112.006 167.12C111.126 167.12 110.286 167 109.486 166.76C108.7 166.52 108.08 166.227 107.626 165.88L108.426 164.36C108.88 164.667 109.44 164.927 110.106 165.14C110.773 165.353 111.453 165.46 112.146 165.46C113.04 165.46 113.68 165.333 114.066 165.08C114.466 164.827 114.666 164.473 114.666 164.02C114.666 163.687 114.546 163.427 114.306 163.24C114.066 163.053 113.746 162.913 113.346 162.82C112.96 162.727 112.526 162.647 112.046 162.58C111.566 162.5 111.086 162.407 110.606 162.3C110.126 162.18 109.686 162.02 109.286 161.82C108.886 161.607 108.566 161.32 108.326 160.96C108.086 160.587 107.966 160.093 107.966 159.48C107.966 158.84 108.146 158.28 108.506 157.8C108.866 157.32 109.373 156.953 110.026 156.7C110.693 156.433 111.48 156.3 112.386 156.3C113.08 156.3 113.78 156.387 114.486 156.56C115.206 156.72 115.793 156.953 116.246 157.26L115.426 158.78C114.946 158.46 114.446 158.24 113.926 158.12C113.406 158 112.886 157.94 112.366 157.94C111.526 157.94 110.9 158.08 110.486 158.36C110.073 158.627 109.866 158.973 109.866 159.4C109.866 159.76 109.986 160.04 110.226 160.24C110.48 160.427 110.8 160.573 111.186 160.68C111.586 160.787 112.026 160.88 112.506 160.96C112.986 161.027 113.466 161.12 113.946 161.24C114.426 161.347 114.86 161.5 115.246 161.7C115.646 161.9 115.966 162.18 116.206 162.54C116.46 162.9 116.586 163.38 116.586 163.98C116.586 164.62 116.4 165.173 116.026 165.64C115.653 166.107 115.126 166.473 114.446 166.74C113.766 166.993 112.953 167.12 112.006 167.12ZM118.986 167V156.4H120.906V167H118.986ZM119.946 154.36C119.573 154.36 119.259 154.24 119.006 154C118.766 153.76 118.646 153.467 118.646 153.12C118.646 152.76 118.766 152.46 119.006 152.22C119.259 151.98 119.573 151.86 119.946 151.86C120.319 151.86 120.626 151.98 120.866 152.22C121.119 152.447 121.246 152.733 121.246 153.08C121.246 153.44 121.126 153.747 120.886 154C120.646 154.24 120.333 154.36 119.946 154.36ZM129.212 171C128.239 171 127.292 170.86 126.372 170.58C125.465 170.313 124.725 169.927 124.152 169.42L125.072 167.94C125.565 168.367 126.172 168.7 126.892 168.94C127.612 169.193 128.365 169.32 129.152 169.32C130.405 169.32 131.325 169.027 131.912 168.44C132.499 167.853 132.792 166.96 132.792 165.76V163.52L132.992 161.42L132.892 159.3V156.4H134.712V165.56C134.712 167.427 134.245 168.8 133.312 169.68C132.379 170.56 131.012 171 129.212 171ZM128.972 166.56C127.945 166.56 127.025 166.347 126.212 165.92C125.412 165.48 124.772 164.873 124.292 164.1C123.825 163.327 123.592 162.433 123.592 161.42C123.592 160.393 123.825 159.5 124.292 158.74C124.772 157.967 125.412 157.367 126.212 156.94C127.025 156.513 127.945 156.3 128.972 156.3C129.879 156.3 130.705 156.487 131.452 156.86C132.199 157.22 132.792 157.78 133.232 158.54C133.685 159.3 133.912 160.26 133.912 161.42C133.912 162.567 133.685 163.52 133.232 164.28C132.792 165.04 132.199 165.613 131.452 166C130.705 166.373 129.879 166.56 128.972 166.56ZM129.192 164.88C129.899 164.88 130.525 164.733 131.072 164.44C131.619 164.147 132.045 163.74 132.352 163.22C132.672 162.7 132.832 162.1 132.832 161.42C132.832 160.74 132.672 160.14 132.352 159.62C132.045 159.1 131.619 158.7 131.072 158.42C130.525 158.127 129.899 157.98 129.192 157.98C128.485 157.98 127.852 158.127 127.292 158.42C126.745 158.7 126.312 159.1 125.992 159.62C125.685 160.14 125.532 160.74 125.532 161.42C125.532 162.1 125.685 162.7 125.992 163.22C126.312 163.74 126.745 164.147 127.292 164.44C127.852 164.733 128.485 164.88 129.192 164.88ZM144.041 156.3C144.907 156.3 145.667 156.467 146.321 156.8C146.987 157.133 147.507 157.64 147.881 158.32C148.254 159 148.441 159.86 148.441 160.9V167H146.521V161.12C146.521 160.093 146.267 159.32 145.761 158.8C145.267 158.28 144.567 158.02 143.661 158.02C142.981 158.02 142.387 158.153 141.881 158.42C141.374 158.687 140.981 159.08 140.701 159.6C140.434 160.12 140.301 160.767 140.301 161.54V167H138.381V156.4H140.221V159.26L139.921 158.5C140.267 157.807 140.801 157.267 141.521 156.88C142.241 156.493 143.081 156.3 144.041 156.3ZM156.714 167.12C155.58 167.12 154.58 166.887 153.714 166.42C152.86 165.953 152.194 165.313 151.714 164.5C151.247 163.687 151.014 162.753 151.014 161.7C151.014 160.647 151.24 159.713 151.694 158.9C152.16 158.087 152.794 157.453 153.594 157C154.407 156.533 155.32 156.3 156.334 156.3C157.36 156.3 158.267 156.527 159.054 156.98C159.84 157.433 160.454 158.073 160.894 158.9C161.347 159.713 161.574 160.667 161.574 161.76C161.574 161.84 161.567 161.933 161.554 162.04C161.554 162.147 161.547 162.247 161.534 162.34H152.514V160.96H160.534L159.754 161.44C159.767 160.76 159.627 160.153 159.334 159.62C159.04 159.087 158.634 158.673 158.114 158.38C157.607 158.073 157.014 157.92 156.334 157.92C155.667 157.92 155.074 158.073 154.554 158.38C154.034 158.673 153.627 159.093 153.334 159.64C153.04 160.173 152.894 160.787 152.894 161.48V161.8C152.894 162.507 153.054 163.14 153.374 163.7C153.707 164.247 154.167 164.673 154.754 164.98C155.34 165.287 156.014 165.44 156.774 165.44C157.4 165.44 157.967 165.333 158.474 165.12C158.994 164.907 159.447 164.587 159.834 164.16L160.894 165.4C160.414 165.96 159.814 166.387 159.094 166.68C158.387 166.973 157.594 167.12 156.714 167.12ZM164.24 167V156.4H166.08V159.28L165.9 158.56C166.193 157.827 166.687 157.267 167.38 156.88C168.073 156.493 168.927 156.3 169.94 156.3V158.16C169.86 158.147 169.78 158.14 169.7 158.14C169.633 158.14 169.567 158.14 169.5 158.14C168.473 158.14 167.66 158.447 167.06 159.06C166.46 159.673 166.16 160.56 166.16 161.72V167H164.24Z" fill="#505050"/>
</svg>
