<svg width="250" height="250" viewBox="0 0 250 250" fill="none" xmlns="http://www.w3.org/2000/svg">
<circle cx="125" cy="125" r="120.5" stroke="#85BFCD" stroke-width="9"/>
<path d="M72.2 84.64L73.64 84.28V68.92L72.2 68.56V68.2H78.32C81.184 68.2 83.376 68.936 84.896 70.408C86.432 71.88 87.2 73.944 87.2 76.6C87.2 79.256 86.432 81.32 84.896 82.792C83.376 84.264 81.184 85 78.32 85H72.2V84.64ZM78.32 84.4C79.808 84.4 80.96 83.8 81.776 82.6C82.592 81.384 83 79.384 83 76.6C83 73.816 82.592 71.824 81.776 70.624C80.96 69.408 79.808 68.8 78.32 68.8H77.6V84.4H78.32ZM94.8763 85.36C93.9803 85.36 93.1723 85.176 92.4523 84.808C91.7483 84.424 91.1963 83.928 90.7963 83.32C90.3963 82.712 90.1963 82.072 90.1963 81.4V73.72L88.7563 73.36V73H91.8763C93.3163 73 94.0363 73.72 94.0363 75.16V81.4C94.0363 82.408 94.2123 83.184 94.5643 83.728C94.9323 84.256 95.3563 84.52 95.8363 84.52C96.4283 84.52 96.9643 84.2 97.4443 83.56C97.6203 83.32 97.8043 83 97.9963 82.6V73.72L96.5563 73.36V73H103.276V73.36L101.836 73.72V85.12H101.596C100.428 85.12 99.5403 84.8 98.9323 84.16C98.6603 83.872 98.4683 83.552 98.3563 83.2C98.1323 83.6 97.8683 83.96 97.5643 84.28C96.8443 85 95.9483 85.36 94.8763 85.36ZM104.726 84.64L106.166 84.28V73.72L104.726 73.36V73H106.886C107.83 73 108.574 73.304 109.118 73.912C109.326 74.152 109.502 74.448 109.646 74.8C109.886 74.448 110.182 74.128 110.534 73.84C111.334 73.2 112.23 72.88 113.222 72.88C114.07 72.88 114.702 73.08 115.118 73.48C115.55 73.864 115.766 74.424 115.766 75.16C115.766 75.704 115.598 76.144 115.262 76.48C114.942 76.8 114.51 76.96 113.966 76.96C113.742 76.96 113.518 76.944 113.294 76.912L113.006 76.84V73.48C112.19 73.48 111.446 73.8 110.774 74.44C110.454 74.76 110.198 75.08 110.006 75.4V84.28L111.446 84.64V85H104.726V84.64ZM121.054 85.36C119.63 85.36 118.534 85.056 117.766 84.448C116.998 83.84 116.614 83.064 116.614 82.12C116.614 81.496 116.75 80.88 117.022 80.272C117.134 79.984 117.278 79.72 117.454 79.48C118.11 79.32 118.822 79.176 119.59 79.048C121.318 78.76 122.846 78.584 124.174 78.52V77.8C124.174 76.024 123.958 74.8 123.526 74.128C123.094 73.456 122.43 73.12 121.534 73.12C121.198 73.12 120.91 73.16 120.67 73.24L120.334 73.36V76.96L120.022 77.032C119.766 77.064 119.55 77.08 119.374 77.08C118.83 77.08 118.39 76.92 118.054 76.6C117.734 76.264 117.574 75.824 117.574 75.28C117.574 74.544 117.942 73.92 118.678 73.408C119.43 72.896 120.542 72.64 122.014 72.64C123.262 72.64 124.334 72.864 125.23 73.312C126.142 73.744 126.83 74.352 127.294 75.136C127.774 75.904 128.014 76.792 128.014 77.8V84.28L129.454 84.64V85H127.294C126.334 85 125.59 84.704 125.062 84.112C124.838 83.872 124.662 83.568 124.534 83.2C124.31 83.6 124.046 83.96 123.742 84.28C123.022 85 122.126 85.36 121.054 85.36ZM122.014 84.52C122.606 84.52 123.142 84.2 123.622 83.56C123.798 83.32 123.982 83 124.174 82.6V79.12C123.438 79.12 122.734 79.16 122.062 79.24C121.566 79.304 121.23 79.344 121.054 79.36C120.974 79.536 120.894 79.776 120.814 80.08C120.654 80.688 120.574 81.288 120.574 81.88C120.574 82.776 120.71 83.44 120.982 83.872C121.254 84.304 121.598 84.52 122.014 84.52ZM137.145 85.36C136.089 85.36 135.169 85.168 134.385 84.784C133.617 84.4 133.025 83.872 132.609 83.2C132.193 82.528 131.985 81.768 131.985 80.92V73.6H130.305V73H131.985V71.8C131.985 70.36 132.705 69.64 134.145 69.64H135.825V73H139.185V73.6H135.825V80.92C135.825 82.392 135.977 83.4 136.281 83.944C136.585 84.488 137.033 84.76 137.625 84.76C138.201 84.76 138.705 84.48 139.137 83.92C139.569 83.36 139.785 82.6 139.785 81.64H140.385C140.385 82.824 140.089 83.744 139.497 84.4C138.905 85.04 138.121 85.36 137.145 85.36ZM141.71 84.64L143.15 84.28V73.72L141.71 73.36V73H144.83C146.27 73 146.99 73.72 146.99 75.16V84.28L148.43 84.64V85H141.71V84.64ZM144.83 71.56C144.35 71.56 143.95 71.4 143.63 71.08C143.31 70.76 143.15 70.36 143.15 69.88C143.15 69.4 143.31 69 143.63 68.68C143.95 68.36 144.35 68.2 144.83 68.2C145.31 68.2 145.71 68.36 146.03 68.68C146.35 69 146.51 69.4 146.51 69.88C146.51 70.36 146.35 70.76 146.03 71.08C145.71 71.4 145.31 71.56 144.83 71.56ZM156.226 85.36C154.242 85.36 152.682 84.8 151.546 83.68C150.426 82.544 149.866 80.984 149.866 79C149.866 77.016 150.426 75.464 151.546 74.344C152.682 73.208 154.242 72.64 156.226 72.64C158.21 72.64 159.762 73.208 160.882 74.344C162.018 75.464 162.586 77.016 162.586 79C162.586 80.984 162.018 82.544 160.882 83.68C159.762 84.8 158.21 85.36 156.226 85.36ZM156.226 84.88C156.866 84.88 157.402 84.432 157.834 83.536C158.282 82.64 158.506 81.128 158.506 79C158.506 76.872 158.282 75.36 157.834 74.464C157.402 73.568 156.866 73.12 156.226 73.12C155.586 73.12 155.042 73.568 154.594 74.464C154.162 75.36 153.946 76.872 153.946 79C153.946 81.128 154.162 82.64 154.594 83.536C155.042 84.432 155.586 84.88 156.226 84.88ZM164.515 84.64L165.955 84.28V73.72L164.515 73.36V73H166.675C167.619 73 168.363 73.304 168.907 73.912C169.115 74.152 169.291 74.448 169.435 74.8C169.659 74.384 169.923 74.024 170.227 73.72C170.947 73 171.843 72.64 172.915 72.64C173.811 72.64 174.611 72.832 175.315 73.216C176.035 73.584 176.595 74.072 176.995 74.68C177.395 75.288 177.595 75.928 177.595 76.6V84.28L179.035 84.64V85H175.915C174.475 85 173.755 84.28 173.755 82.84V76.6C173.755 75.592 173.571 74.824 173.203 74.296C172.851 73.752 172.435 73.48 171.955 73.48C171.347 73.48 170.803 73.8 170.323 74.44C170.115 74.712 169.939 75.032 169.795 75.4V84.28L171.235 84.64V85H164.515V84.64Z" fill="#505050"/>
<path d="M82.7555 137V123.8L83.6155 124.74H79.5955V123H84.7355V137H82.7555ZM107.289 126.3C108.142 126.3 108.896 126.467 109.549 126.8C110.202 127.133 110.709 127.64 111.069 128.32C111.442 129 111.629 129.86 111.629 130.9V137H109.709V131.12C109.709 130.093 109.469 129.32 108.989 128.8C108.509 128.28 107.836 128.02 106.969 128.02C106.329 128.02 105.769 128.153 105.289 128.42C104.809 128.687 104.436 129.08 104.169 129.6C103.916 130.12 103.789 130.767 103.789 131.54V137H101.869V131.12C101.869 130.093 101.629 129.32 101.149 128.8C100.682 128.28 100.009 128.02 99.129 128.02C98.5023 128.02 97.949 128.153 97.469 128.42C96.989 128.687 96.6157 129.08 96.349 129.6C96.0823 130.12 95.949 130.767 95.949 131.54V137H94.029V126.4H95.869V129.22L95.569 128.5C95.9023 127.807 96.4157 127.267 97.109 126.88C97.8023 126.493 98.609 126.3 99.529 126.3C100.542 126.3 101.416 126.553 102.149 127.06C102.882 127.553 103.362 128.307 103.589 129.32L102.809 129C103.129 128.187 103.689 127.533 104.489 127.04C105.289 126.547 106.222 126.3 107.289 126.3ZM119.702 137.12C118.635 137.12 117.688 136.887 116.862 136.42C116.035 135.953 115.382 135.313 114.902 134.5C114.422 133.673 114.182 132.74 114.182 131.7C114.182 130.647 114.422 129.713 114.902 128.9C115.382 128.087 116.035 127.453 116.862 127C117.688 126.533 118.635 126.3 119.702 126.3C120.755 126.3 121.695 126.533 122.522 127C123.362 127.453 124.015 128.087 124.482 128.9C124.962 129.7 125.202 130.633 125.202 131.7C125.202 132.753 124.962 133.687 124.482 134.5C124.015 135.313 123.362 135.953 122.522 136.42C121.695 136.887 120.755 137.12 119.702 137.12ZM119.702 135.44C120.382 135.44 120.988 135.287 121.522 134.98C122.068 134.673 122.495 134.24 122.802 133.68C123.108 133.107 123.262 132.447 123.262 131.7C123.262 130.94 123.108 130.287 122.802 129.74C122.495 129.18 122.068 128.747 121.522 128.44C120.988 128.133 120.382 127.98 119.702 127.98C119.022 127.98 118.415 128.133 117.882 128.44C117.348 128.747 116.922 129.18 116.602 129.74C116.282 130.287 116.122 130.94 116.122 131.7C116.122 132.447 116.282 133.107 116.602 133.68C116.922 134.24 117.348 134.673 117.882 134.98C118.415 135.287 119.022 135.44 119.702 135.44ZM133.517 126.3C134.384 126.3 135.144 126.467 135.797 126.8C136.464 127.133 136.984 127.64 137.357 128.32C137.73 129 137.917 129.86 137.917 130.9V137H135.997V131.12C135.997 130.093 135.744 129.32 135.237 128.8C134.744 128.28 134.044 128.02 133.137 128.02C132.457 128.02 131.864 128.153 131.357 128.42C130.85 128.687 130.457 129.08 130.177 129.6C129.91 130.12 129.777 130.767 129.777 131.54V137H127.857V126.4H129.697V129.26L129.397 128.5C129.744 127.807 130.277 127.267 130.997 126.88C131.717 126.493 132.557 126.3 133.517 126.3ZM145.11 137.12C144.044 137.12 143.217 136.833 142.63 136.26C142.044 135.687 141.75 134.867 141.75 133.8V124.08H143.67V133.72C143.67 134.293 143.81 134.733 144.09 135.04C144.384 135.347 144.797 135.5 145.33 135.5C145.93 135.5 146.43 135.333 146.83 135L147.43 136.38C147.137 136.633 146.784 136.82 146.37 136.94C145.97 137.06 145.55 137.12 145.11 137.12ZM139.95 127.98V126.4H146.71V127.98H139.95ZM155.412 126.3C156.278 126.3 157.038 126.467 157.692 126.8C158.358 127.133 158.878 127.64 159.252 128.32C159.625 129 159.812 129.86 159.812 130.9V137H157.892V131.12C157.892 130.093 157.638 129.32 157.132 128.8C156.638 128.28 155.938 128.02 155.032 128.02C154.352 128.02 153.758 128.153 153.252 128.42C152.745 128.687 152.352 129.08 152.072 129.6C151.805 130.12 151.672 130.767 151.672 131.54V137H149.752V122.16H151.672V129.26L151.292 128.5C151.638 127.807 152.172 127.267 152.892 126.88C153.612 126.493 154.452 126.3 155.412 126.3ZM166.405 137.12C165.525 137.12 164.685 137 163.885 136.76C163.098 136.52 162.478 136.227 162.025 135.88L162.825 134.36C163.278 134.667 163.838 134.927 164.505 135.14C165.172 135.353 165.852 135.46 166.545 135.46C167.438 135.46 168.078 135.333 168.465 135.08C168.865 134.827 169.065 134.473 169.065 134.02C169.065 133.687 168.945 133.427 168.705 133.24C168.465 133.053 168.145 132.913 167.745 132.82C167.358 132.727 166.925 132.647 166.445 132.58C165.965 132.5 165.485 132.407 165.005 132.3C164.525 132.18 164.085 132.02 163.685 131.82C163.285 131.607 162.965 131.32 162.725 130.96C162.485 130.587 162.365 130.093 162.365 129.48C162.365 128.84 162.545 128.28 162.905 127.8C163.265 127.32 163.772 126.953 164.425 126.7C165.092 126.433 165.878 126.3 166.785 126.3C167.478 126.3 168.178 126.387 168.885 126.56C169.605 126.72 170.192 126.953 170.645 127.26L169.825 128.78C169.345 128.46 168.845 128.24 168.325 128.12C167.805 128 167.285 127.94 166.765 127.94C165.925 127.94 165.298 128.08 164.885 128.36C164.472 128.627 164.265 128.973 164.265 129.4C164.265 129.76 164.385 130.04 164.625 130.24C164.878 130.427 165.198 130.573 165.585 130.68C165.985 130.787 166.425 130.88 166.905 130.96C167.385 131.027 167.865 131.12 168.345 131.24C168.825 131.347 169.258 131.5 169.645 131.7C170.045 131.9 170.365 132.18 170.605 132.54C170.858 132.9 170.985 133.38 170.985 133.98C170.985 134.62 170.798 135.173 170.425 135.64C170.052 136.107 169.525 136.473 168.845 136.74C168.165 136.993 167.352 137.12 166.405 137.12ZM42.7439 167V165.64L48.4439 160.14C48.9506 159.66 49.3239 159.24 49.5639 158.88C49.8172 158.507 49.9839 158.167 50.0639 157.86C50.1572 157.54 50.2039 157.233 50.2039 156.94C50.2039 156.22 49.9506 155.653 49.4439 155.24C48.9372 154.827 48.1972 154.62 47.2239 154.62C46.4772 154.62 45.8039 154.747 45.2039 155C44.6039 155.24 44.0839 155.62 43.6439 156.14L42.2839 154.96C42.8172 154.28 43.5306 153.76 44.4239 153.4C45.3306 153.027 46.3239 152.84 47.4039 152.84C48.3772 152.84 49.2239 153 49.9439 153.32C50.6639 153.627 51.2172 154.073 51.6039 154.66C52.0039 155.247 52.2039 155.94 52.2039 156.74C52.2039 157.193 52.1439 157.64 52.0239 158.08C51.9039 158.52 51.6772 158.987 51.3439 159.48C51.0106 159.973 50.5306 160.527 49.9039 161.14L44.8239 166.04L44.3439 165.26H52.8039V167H42.7439ZM60.1488 167.16C59.0554 167.16 58.0754 166.88 57.2088 166.32C56.3554 165.76 55.6754 164.947 55.1688 163.88C54.6754 162.813 54.4288 161.52 54.4288 160C54.4288 158.48 54.6754 157.187 55.1688 156.12C55.6754 155.053 56.3554 154.24 57.2088 153.68C58.0754 153.12 59.0554 152.84 60.1488 152.84C61.2288 152.84 62.2021 153.12 63.0688 153.68C63.9354 154.24 64.6154 155.053 65.1088 156.12C65.6021 157.187 65.8488 158.48 65.8488 160C65.8488 161.52 65.6021 162.813 65.1088 163.88C64.6154 164.947 63.9354 165.76 63.0688 166.32C62.2021 166.88 61.2288 167.16 60.1488 167.16ZM60.1488 165.38C60.8821 165.38 61.5221 165.18 62.0688 164.78C62.6288 164.38 63.0621 163.78 63.3688 162.98C63.6888 162.18 63.8488 161.187 63.8488 160C63.8488 158.813 63.6888 157.82 63.3688 157.02C63.0621 156.22 62.6288 155.62 62.0688 155.22C61.5221 154.82 60.8821 154.62 60.1488 154.62C59.4154 154.62 58.7688 154.82 58.2088 155.22C57.6488 155.62 57.2088 156.22 56.8888 157.02C56.5821 157.82 56.4288 158.813 56.4288 160C56.4288 161.187 56.5821 162.18 56.8888 162.98C57.2088 163.78 57.6488 164.38 58.2088 164.78C58.7688 165.18 59.4154 165.38 60.1488 165.38ZM67.5486 167V165.64L73.2486 160.14C73.7553 159.66 74.1286 159.24 74.3686 158.88C74.6219 158.507 74.7886 158.167 74.8686 157.86C74.9619 157.54 75.0086 157.233 75.0086 156.94C75.0086 156.22 74.7553 155.653 74.2486 155.24C73.7419 154.827 73.0019 154.62 72.0286 154.62C71.2819 154.62 70.6086 154.747 70.0086 155C69.4086 155.24 68.8886 155.62 68.4486 156.14L67.0886 154.96C67.6219 154.28 68.3353 153.76 69.2286 153.4C70.1353 153.027 71.1286 152.84 72.2086 152.84C73.1819 152.84 74.0286 153 74.7486 153.32C75.4686 153.627 76.0219 154.073 76.4086 154.66C76.8086 155.247 77.0086 155.94 77.0086 156.74C77.0086 157.193 76.9486 157.64 76.8286 158.08C76.7086 158.52 76.4819 158.987 76.1486 159.48C75.8153 159.973 75.3353 160.527 74.7086 161.14L69.6286 166.04L69.1486 165.26H77.6086V167H67.5486ZM79.033 167V165.64L84.733 160.14C85.2396 159.66 85.613 159.24 85.853 158.88C86.1063 158.507 86.273 158.167 86.353 157.86C86.4463 157.54 86.493 157.233 86.493 156.94C86.493 156.22 86.2396 155.653 85.733 155.24C85.2263 154.827 84.4863 154.62 83.513 154.62C82.7663 154.62 82.093 154.747 81.493 155C80.893 155.24 80.373 155.62 79.933 156.14L78.573 154.96C79.1063 154.28 79.8196 153.76 80.713 153.4C81.6196 153.027 82.613 152.84 83.693 152.84C84.6663 152.84 85.513 153 86.233 153.32C86.953 153.627 87.5063 154.073 87.893 154.66C88.293 155.247 88.493 155.94 88.493 156.74C88.493 157.193 88.433 157.64 88.313 158.08C88.193 158.52 87.9663 158.987 87.633 159.48C87.2996 159.973 86.8196 160.527 86.193 161.14L81.113 166.04L80.633 165.26H89.093V167H79.033ZM89.4127 169L96.0127 150.16H97.7527L91.1527 169H89.4127ZM103.293 167.16C102.2 167.16 101.22 166.88 100.353 166.32C99.4999 165.76 98.8199 164.947 98.3133 163.88C97.8199 162.813 97.5733 161.52 97.5733 160C97.5733 158.48 97.8199 157.187 98.3133 156.12C98.8199 155.053 99.4999 154.24 100.353 153.68C101.22 153.12 102.2 152.84 103.293 152.84C104.373 152.84 105.347 153.12 106.213 153.68C107.08 154.24 107.76 155.053 108.253 156.12C108.747 157.187 108.993 158.48 108.993 160C108.993 161.52 108.747 162.813 108.253 163.88C107.76 164.947 107.08 165.76 106.213 166.32C105.347 166.88 104.373 167.16 103.293 167.16ZM103.293 165.38C104.027 165.38 104.667 165.18 105.213 164.78C105.773 164.38 106.207 163.78 106.513 162.98C106.833 162.18 106.993 161.187 106.993 160C106.993 158.813 106.833 157.82 106.513 157.02C106.207 156.22 105.773 155.62 105.213 155.22C104.667 154.82 104.027 154.62 103.293 154.62C102.56 154.62 101.913 154.82 101.353 155.22C100.793 155.62 100.353 156.22 100.033 157.02C99.7266 157.82 99.5733 158.813 99.5733 160C99.5733 161.187 99.7266 162.18 100.033 162.98C100.353 163.78 100.793 164.38 101.353 164.78C101.913 165.18 102.56 165.38 103.293 165.38ZM113.196 167L119.136 153.84L119.656 154.74H111.336L112.336 153.76V157.24H110.416V153H120.976V154.36L115.316 167H113.196ZM121.913 162.34V160.68H127.293V162.34H121.913ZM128.916 167V165.64L134.616 160.14C135.122 159.66 135.496 159.24 135.736 158.88C135.989 158.507 136.156 158.167 136.236 157.86C136.329 157.54 136.376 157.233 136.376 156.94C136.376 156.22 136.122 155.653 135.616 155.24C135.109 154.827 134.369 154.62 133.396 154.62C132.649 154.62 131.976 154.747 131.376 155C130.776 155.24 130.256 155.62 129.816 156.14L128.456 154.96C128.989 154.28 129.702 153.76 130.596 153.4C131.502 153.027 132.496 152.84 133.576 152.84C134.549 152.84 135.396 153 136.116 153.32C136.836 153.627 137.389 154.073 137.776 154.66C138.176 155.247 138.376 155.94 138.376 156.74C138.376 157.193 138.316 157.64 138.196 158.08C138.076 158.52 137.849 158.987 137.516 159.48C137.182 159.973 136.702 160.527 136.076 161.14L130.996 166.04L130.516 165.26H138.976V167H128.916ZM146.321 167.16C145.227 167.16 144.247 166.88 143.381 166.32C142.527 165.76 141.847 164.947 141.341 163.88C140.847 162.813 140.601 161.52 140.601 160C140.601 158.48 140.847 157.187 141.341 156.12C141.847 155.053 142.527 154.24 143.381 153.68C144.247 153.12 145.227 152.84 146.321 152.84C147.401 152.84 148.374 153.12 149.241 153.68C150.107 154.24 150.787 155.053 151.281 156.12C151.774 157.187 152.021 158.48 152.021 160C152.021 161.52 151.774 162.813 151.281 163.88C150.787 164.947 150.107 165.76 149.241 166.32C148.374 166.88 147.401 167.16 146.321 167.16ZM146.321 165.38C147.054 165.38 147.694 165.18 148.241 164.78C148.801 164.38 149.234 163.78 149.541 162.98C149.861 162.18 150.021 161.187 150.021 160C150.021 158.813 149.861 157.82 149.541 157.02C149.234 156.22 148.801 155.62 148.241 155.22C147.694 154.82 147.054 154.62 146.321 154.62C145.587 154.62 144.941 154.82 144.381 155.22C143.821 155.62 143.381 156.22 143.061 157.02C142.754 157.82 142.601 158.813 142.601 160C142.601 161.187 142.754 162.18 143.061 162.98C143.381 163.78 143.821 164.38 144.381 164.78C144.941 165.18 145.587 165.38 146.321 165.38ZM153.72 167V165.64L159.42 160.14C159.927 159.66 160.3 159.24 160.54 158.88C160.794 158.507 160.96 158.167 161.04 157.86C161.134 157.54 161.18 157.233 161.18 156.94C161.18 156.22 160.927 155.653 160.42 155.24C159.914 154.827 159.174 154.62 158.2 154.62C157.454 154.62 156.78 154.747 156.18 155C155.58 155.24 155.06 155.62 154.62 156.14L153.26 154.96C153.794 154.28 154.507 153.76 155.4 153.4C156.307 153.027 157.3 152.84 158.38 152.84C159.354 152.84 160.2 153 160.92 153.32C161.64 153.627 162.194 154.073 162.58 154.66C162.98 155.247 163.18 155.94 163.18 156.74C163.18 157.193 163.12 157.64 163 158.08C162.88 158.52 162.654 158.987 162.32 159.48C161.987 159.973 161.507 160.527 160.88 161.14L155.8 166.04L155.32 165.26H163.78V167H153.72ZM165.205 167V165.64L170.905 160.14C171.412 159.66 171.785 159.24 172.025 158.88C172.278 158.507 172.445 158.167 172.525 157.86C172.618 157.54 172.665 157.233 172.665 156.94C172.665 156.22 172.412 155.653 171.905 155.24C171.398 154.827 170.658 154.62 169.685 154.62C168.938 154.62 168.265 154.747 167.665 155C167.065 155.24 166.545 155.62 166.105 156.14L164.745 154.96C165.278 154.28 165.992 153.76 166.885 153.4C167.792 153.027 168.785 152.84 169.865 152.84C170.838 152.84 171.685 153 172.405 153.32C173.125 153.627 173.678 154.073 174.065 154.66C174.465 155.247 174.665 155.94 174.665 156.74C174.665 157.193 174.605 157.64 174.485 158.08C174.365 158.52 174.138 158.987 173.805 159.48C173.472 159.973 172.992 160.527 172.365 161.14L167.285 166.04L166.805 165.26H175.265V167H165.205ZM175.585 169L182.185 150.16H183.925L177.325 169H175.585ZM189.465 167.16C188.372 167.16 187.392 166.88 186.525 166.32C185.672 165.76 184.992 164.947 184.485 163.88C183.992 162.813 183.745 161.52 183.745 160C183.745 158.48 183.992 157.187 184.485 156.12C184.992 155.053 185.672 154.24 186.525 153.68C187.392 153.12 188.372 152.84 189.465 152.84C190.545 152.84 191.518 153.12 192.385 153.68C193.252 154.24 193.932 155.053 194.425 156.12C194.918 157.187 195.165 158.48 195.165 160C195.165 161.52 194.918 162.813 194.425 163.88C193.932 164.947 193.252 165.76 192.385 166.32C191.518 166.88 190.545 167.16 189.465 167.16ZM189.465 165.38C190.198 165.38 190.838 165.18 191.385 164.78C191.945 164.38 192.378 163.78 192.685 162.98C193.005 162.18 193.165 161.187 193.165 160C193.165 158.813 193.005 157.82 192.685 157.02C192.378 156.22 191.945 155.62 191.385 155.22C190.838 154.82 190.198 154.62 189.465 154.62C188.732 154.62 188.085 154.82 187.525 155.22C186.965 155.62 186.525 156.22 186.205 157.02C185.898 157.82 185.745 158.813 185.745 160C185.745 161.187 185.898 162.18 186.205 162.98C186.525 163.78 186.965 164.38 187.525 164.78C188.085 165.18 188.732 165.38 189.465 165.38ZM202.545 167.16C201.412 167.16 200.432 166.993 199.605 166.66C198.778 166.327 198.138 165.853 197.685 165.24C197.232 164.613 197.005 163.88 197.005 163.04C197.005 162.213 197.218 161.513 197.645 160.94C198.085 160.353 198.718 159.913 199.545 159.62C200.372 159.313 201.372 159.16 202.545 159.16C203.718 159.16 204.718 159.313 205.545 159.62C206.385 159.913 207.025 160.353 207.465 160.94C207.905 161.527 208.125 162.227 208.125 163.04C208.125 163.88 207.898 164.613 207.445 165.24C206.992 165.853 206.345 166.327 205.505 166.66C204.665 166.993 203.678 167.16 202.545 167.16ZM202.545 165.54C203.665 165.54 204.538 165.313 205.165 164.86C205.805 164.393 206.125 163.767 206.125 162.98C206.125 162.207 205.805 161.6 205.165 161.16C204.538 160.707 203.665 160.48 202.545 160.48C201.438 160.48 200.572 160.707 199.945 161.16C199.318 161.6 199.005 162.207 199.005 162.98C199.005 163.767 199.318 164.393 199.945 164.86C200.572 165.313 201.438 165.54 202.545 165.54ZM202.545 160.24C201.478 160.24 200.572 160.1 199.825 159.82C199.078 159.527 198.505 159.113 198.105 158.58C197.705 158.033 197.505 157.387 197.505 156.64C197.505 155.853 197.712 155.18 198.125 154.62C198.552 154.047 199.145 153.607 199.905 153.3C200.665 152.993 201.545 152.84 202.545 152.84C203.558 152.84 204.445 152.993 205.205 153.3C205.965 153.607 206.558 154.047 206.985 154.62C207.412 155.18 207.625 155.853 207.625 156.64C207.625 157.387 207.425 158.033 207.025 158.58C206.625 159.113 206.045 159.527 205.285 159.82C204.525 160.1 203.612 160.24 202.545 160.24ZM202.545 158.96C203.518 158.96 204.278 158.76 204.825 158.36C205.385 157.96 205.665 157.413 205.665 156.72C205.665 156.013 205.378 155.46 204.805 155.06C204.232 154.66 203.478 154.46 202.545 154.46C201.612 154.46 200.865 154.66 200.305 155.06C199.758 155.46 199.485 156.013 199.485 156.72C199.485 157.413 199.752 157.96 200.285 158.36C200.832 158.76 201.585 158.96 202.545 158.96Z" fill="#505050"/>
</svg>
