<svg width="250" height="250" viewBox="0 0 250 250" fill="none" xmlns="http://www.w3.org/2000/svg">
<circle cx="125" cy="125" r="120.5" stroke="#85BFCD" stroke-width="9"/>
<path d="M72.2 87.64L73.64 87.28V71.92L72.2 71.56V71.2H78.32C81.184 71.2 83.376 71.936 84.896 73.408C86.432 74.88 87.2 76.944 87.2 79.6C87.2 82.256 86.432 84.32 84.896 85.792C83.376 87.264 81.184 88 78.32 88H72.2V87.64ZM78.32 87.4C79.808 87.4 80.96 86.8 81.776 85.6C82.592 84.384 83 82.384 83 79.6C83 76.816 82.592 74.824 81.776 73.624C80.96 72.408 79.808 71.8 78.32 71.8H77.6V87.4H78.32ZM94.8763 88.36C93.9803 88.36 93.1723 88.176 92.4523 87.808C91.7483 87.424 91.1963 86.928 90.7963 86.32C90.3963 85.712 90.1963 85.072 90.1963 84.4V76.72L88.7563 76.36V76H91.8763C93.3163 76 94.0363 76.72 94.0363 78.16V84.4C94.0363 85.408 94.2123 86.184 94.5643 86.728C94.9323 87.256 95.3563 87.52 95.8363 87.52C96.4283 87.52 96.9643 87.2 97.4443 86.56C97.6203 86.32 97.8043 86 97.9963 85.6V76.72L96.5563 76.36V76H103.276V76.36L101.836 76.72V88.12H101.596C100.428 88.12 99.5403 87.8 98.9323 87.16C98.6603 86.872 98.4683 86.552 98.3563 86.2C98.1323 86.6 97.8683 86.96 97.5643 87.28C96.8443 88 95.9483 88.36 94.8763 88.36ZM104.726 87.64L106.166 87.28V76.72L104.726 76.36V76H106.886C107.83 76 108.574 76.304 109.118 76.912C109.326 77.152 109.502 77.448 109.646 77.8C109.886 77.448 110.182 77.128 110.534 76.84C111.334 76.2 112.23 75.88 113.222 75.88C114.07 75.88 114.702 76.08 115.118 76.48C115.55 76.864 115.766 77.424 115.766 78.16C115.766 78.704 115.598 79.144 115.262 79.48C114.942 79.8 114.51 79.96 113.966 79.96C113.742 79.96 113.518 79.944 113.294 79.912L113.006 79.84V76.48C112.19 76.48 111.446 76.8 110.774 77.44C110.454 77.76 110.198 78.08 110.006 78.4V87.28L111.446 87.64V88H104.726V87.64ZM121.054 88.36C119.63 88.36 118.534 88.056 117.766 87.448C116.998 86.84 116.614 86.064 116.614 85.12C116.614 84.496 116.75 83.88 117.022 83.272C117.134 82.984 117.278 82.72 117.454 82.48C118.11 82.32 118.822 82.176 119.59 82.048C121.318 81.76 122.846 81.584 124.174 81.52V80.8C124.174 79.024 123.958 77.8 123.526 77.128C123.094 76.456 122.43 76.12 121.534 76.12C121.198 76.12 120.91 76.16 120.67 76.24L120.334 76.36V79.96L120.022 80.032C119.766 80.064 119.55 80.08 119.374 80.08C118.83 80.08 118.39 79.92 118.054 79.6C117.734 79.264 117.574 78.824 117.574 78.28C117.574 77.544 117.942 76.92 118.678 76.408C119.43 75.896 120.542 75.64 122.014 75.64C123.262 75.64 124.334 75.864 125.23 76.312C126.142 76.744 126.83 77.352 127.294 78.136C127.774 78.904 128.014 79.792 128.014 80.8V87.28L129.454 87.64V88H127.294C126.334 88 125.59 87.704 125.062 87.112C124.838 86.872 124.662 86.568 124.534 86.2C124.31 86.6 124.046 86.96 123.742 87.28C123.022 88 122.126 88.36 121.054 88.36ZM122.014 87.52C122.606 87.52 123.142 87.2 123.622 86.56C123.798 86.32 123.982 86 124.174 85.6V82.12C123.438 82.12 122.734 82.16 122.062 82.24C121.566 82.304 121.23 82.344 121.054 82.36C120.974 82.536 120.894 82.776 120.814 83.08C120.654 83.688 120.574 84.288 120.574 84.88C120.574 85.776 120.71 86.44 120.982 86.872C121.254 87.304 121.598 87.52 122.014 87.52ZM137.145 88.36C136.089 88.36 135.169 88.168 134.385 87.784C133.617 87.4 133.025 86.872 132.609 86.2C132.193 85.528 131.985 84.768 131.985 83.92V76.6H130.305V76H131.985V74.8C131.985 73.36 132.705 72.64 134.145 72.64H135.825V76H139.185V76.6H135.825V83.92C135.825 85.392 135.977 86.4 136.281 86.944C136.585 87.488 137.033 87.76 137.625 87.76C138.201 87.76 138.705 87.48 139.137 86.92C139.569 86.36 139.785 85.6 139.785 84.64H140.385C140.385 85.824 140.089 86.744 139.497 87.4C138.905 88.04 138.121 88.36 137.145 88.36ZM141.71 87.64L143.15 87.28V76.72L141.71 76.36V76H144.83C146.27 76 146.99 76.72 146.99 78.16V87.28L148.43 87.64V88H141.71V87.64ZM144.83 74.56C144.35 74.56 143.95 74.4 143.63 74.08C143.31 73.76 143.15 73.36 143.15 72.88C143.15 72.4 143.31 72 143.63 71.68C143.95 71.36 144.35 71.2 144.83 71.2C145.31 71.2 145.71 71.36 146.03 71.68C146.35 72 146.51 72.4 146.51 72.88C146.51 73.36 146.35 73.76 146.03 74.08C145.71 74.4 145.31 74.56 144.83 74.56ZM156.226 88.36C154.242 88.36 152.682 87.8 151.546 86.68C150.426 85.544 149.866 83.984 149.866 82C149.866 80.016 150.426 78.464 151.546 77.344C152.682 76.208 154.242 75.64 156.226 75.64C158.21 75.64 159.762 76.208 160.882 77.344C162.018 78.464 162.586 80.016 162.586 82C162.586 83.984 162.018 85.544 160.882 86.68C159.762 87.8 158.21 88.36 156.226 88.36ZM156.226 87.88C156.866 87.88 157.402 87.432 157.834 86.536C158.282 85.64 158.506 84.128 158.506 82C158.506 79.872 158.282 78.36 157.834 77.464C157.402 76.568 156.866 76.12 156.226 76.12C155.586 76.12 155.042 76.568 154.594 77.464C154.162 78.36 153.946 79.872 153.946 82C153.946 84.128 154.162 85.64 154.594 86.536C155.042 87.432 155.586 87.88 156.226 87.88ZM164.515 87.64L165.955 87.28V76.72L164.515 76.36V76H166.675C167.619 76 168.363 76.304 168.907 76.912C169.115 77.152 169.291 77.448 169.435 77.8C169.659 77.384 169.923 77.024 170.227 76.72C170.947 76 171.843 75.64 172.915 75.64C173.811 75.64 174.611 75.832 175.315 76.216C176.035 76.584 176.595 77.072 176.995 77.68C177.395 78.288 177.595 78.928 177.595 79.6V87.28L179.035 87.64V88H175.915C174.475 88 173.755 87.28 173.755 85.84V79.6C173.755 78.592 173.571 77.824 173.203 77.296C172.851 76.752 172.435 76.48 171.955 76.48C171.347 76.48 170.803 76.8 170.323 77.44C170.115 77.712 169.939 78.032 169.795 78.4V87.28L171.235 87.64V88H164.515V87.64Z" fill="#505050"/>
<path d="M95.1774 137V123.8L96.0374 124.74H92.0174V123H97.1574V137H95.1774ZM108.691 137L104.751 126.4H106.571L110.071 136H109.211L112.851 126.4H114.471L118.031 136H117.191L120.771 126.4H122.491L118.531 137H116.691L113.351 128.24H113.911L110.531 137H108.691ZM128.866 137.12C127.733 137.12 126.733 136.887 125.866 136.42C125.013 135.953 124.346 135.313 123.866 134.5C123.4 133.687 123.166 132.753 123.166 131.7C123.166 130.647 123.393 129.713 123.846 128.9C124.313 128.087 124.946 127.453 125.746 127C126.56 126.533 127.473 126.3 128.486 126.3C129.513 126.3 130.42 126.527 131.206 126.98C131.993 127.433 132.606 128.073 133.046 128.9C133.5 129.713 133.726 130.667 133.726 131.76C133.726 131.84 133.72 131.933 133.706 132.04C133.706 132.147 133.7 132.247 133.686 132.34H124.666V130.96H132.686L131.906 131.44C131.92 130.76 131.78 130.153 131.486 129.62C131.193 129.087 130.786 128.673 130.266 128.38C129.76 128.073 129.166 127.92 128.486 127.92C127.82 127.92 127.226 128.073 126.706 128.38C126.186 128.673 125.78 129.093 125.486 129.64C125.193 130.173 125.046 130.787 125.046 131.48V131.8C125.046 132.507 125.206 133.14 125.526 133.7C125.86 134.247 126.32 134.673 126.906 134.98C127.493 135.287 128.166 135.44 128.926 135.44C129.553 135.44 130.12 135.333 130.626 135.12C131.146 134.907 131.6 134.587 131.986 134.16L133.046 135.4C132.566 135.96 131.966 136.387 131.246 136.68C130.54 136.973 129.746 137.12 128.866 137.12ZM141.112 137.12C139.979 137.12 138.979 136.887 138.112 136.42C137.259 135.953 136.592 135.313 136.112 134.5C135.646 133.687 135.412 132.753 135.412 131.7C135.412 130.647 135.639 129.713 136.092 128.9C136.559 128.087 137.192 127.453 137.992 127C138.806 126.533 139.719 126.3 140.732 126.3C141.759 126.3 142.666 126.527 143.452 126.98C144.239 127.433 144.852 128.073 145.292 128.9C145.746 129.713 145.972 130.667 145.972 131.76C145.972 131.84 145.966 131.933 145.952 132.04C145.952 132.147 145.946 132.247 145.932 132.34H136.912V130.96H144.932L144.152 131.44C144.166 130.76 144.026 130.153 143.732 129.62C143.439 129.087 143.032 128.673 142.512 128.38C142.006 128.073 141.412 127.92 140.732 127.92C140.066 127.92 139.472 128.073 138.952 128.38C138.432 128.673 138.026 129.093 137.732 129.64C137.439 130.173 137.292 130.787 137.292 131.48V131.8C137.292 132.507 137.452 133.14 137.772 133.7C138.106 134.247 138.566 134.673 139.152 134.98C139.739 135.287 140.412 135.44 141.172 135.44C141.799 135.44 142.366 135.333 142.872 135.12C143.392 134.907 143.846 134.587 144.232 134.16L145.292 135.4C144.812 135.96 144.212 136.387 143.492 136.68C142.786 136.973 141.992 137.12 141.112 137.12ZM150.198 134.44L150.238 131.98L156.338 126.4H158.658L153.978 131L152.938 131.88L150.198 134.44ZM148.638 137V122.16H150.558V137H148.638ZM156.738 137L152.578 131.84L153.818 130.3L159.098 137H156.738ZM86.0935 167V165.64L91.7935 160.14C92.3002 159.66 92.6735 159.24 92.9135 158.88C93.1668 158.507 93.3335 158.167 93.4135 157.86C93.5068 157.54 93.5535 157.233 93.5535 156.94C93.5535 156.22 93.3002 155.653 92.7935 155.24C92.2868 154.827 91.5468 154.62 90.5735 154.62C89.8268 154.62 89.1535 154.747 88.5535 155C87.9535 155.24 87.4335 155.62 86.9935 156.14L85.6335 154.96C86.1668 154.28 86.8802 153.76 87.7735 153.4C88.6802 153.027 89.6735 152.84 90.7535 152.84C91.7268 152.84 92.5735 153 93.2935 153.32C94.0135 153.627 94.5668 154.073 94.9535 154.66C95.3535 155.247 95.5535 155.94 95.5535 156.74C95.5535 157.193 95.4935 157.64 95.3735 158.08C95.2535 158.52 95.0268 158.987 94.6935 159.48C94.3602 159.973 93.8802 160.527 93.2535 161.14L88.1735 166.04L87.6935 165.26H96.1535V167H86.0935ZM103.498 167.16C102.405 167.16 101.425 166.88 100.558 166.32C99.705 165.76 99.025 164.947 98.5184 163.88C98.025 162.813 97.7784 161.52 97.7784 160C97.7784 158.48 98.025 157.187 98.5184 156.12C99.025 155.053 99.705 154.24 100.558 153.68C101.425 153.12 102.405 152.84 103.498 152.84C104.578 152.84 105.552 153.12 106.418 153.68C107.285 154.24 107.965 155.053 108.458 156.12C108.952 157.187 109.198 158.48 109.198 160C109.198 161.52 108.952 162.813 108.458 163.88C107.965 164.947 107.285 165.76 106.418 166.32C105.552 166.88 104.578 167.16 103.498 167.16ZM103.498 165.38C104.232 165.38 104.872 165.18 105.418 164.78C105.978 164.38 106.412 163.78 106.718 162.98C107.038 162.18 107.198 161.187 107.198 160C107.198 158.813 107.038 157.82 106.718 157.02C106.412 156.22 105.978 155.62 105.418 155.22C104.872 154.82 104.232 154.62 103.498 154.62C102.765 154.62 102.118 154.82 101.558 155.22C100.998 155.62 100.558 156.22 100.238 157.02C99.9317 157.82 99.7784 158.813 99.7784 160C99.7784 161.187 99.9317 162.18 100.238 162.98C100.558 163.78 100.998 164.38 101.558 164.78C102.118 165.18 102.765 165.38 103.498 165.38ZM110.898 167V165.64L116.598 160.14C117.105 159.66 117.478 159.24 117.718 158.88C117.972 158.507 118.138 158.167 118.218 157.86C118.312 157.54 118.358 157.233 118.358 156.94C118.358 156.22 118.105 155.653 117.598 155.24C117.092 154.827 116.352 154.62 115.378 154.62C114.632 154.62 113.958 154.747 113.358 155C112.758 155.24 112.238 155.62 111.798 156.14L110.438 154.96C110.972 154.28 111.685 153.76 112.578 153.4C113.485 153.027 114.478 152.84 115.558 152.84C116.532 152.84 117.378 153 118.098 153.32C118.818 153.627 119.372 154.073 119.758 154.66C120.158 155.247 120.358 155.94 120.358 156.74C120.358 157.193 120.298 157.64 120.178 158.08C120.058 158.52 119.832 158.987 119.498 159.48C119.165 159.973 118.685 160.527 118.058 161.14L112.978 166.04L112.498 165.26H120.958V167H110.898ZM122.383 167V165.64L128.083 160.14C128.589 159.66 128.963 159.24 129.203 158.88C129.456 158.507 129.623 158.167 129.703 157.86C129.796 157.54 129.843 157.233 129.843 156.94C129.843 156.22 129.589 155.653 129.083 155.24C128.576 154.827 127.836 154.62 126.863 154.62C126.116 154.62 125.443 154.747 124.843 155C124.243 155.24 123.723 155.62 123.283 156.14L121.923 154.96C122.456 154.28 123.169 153.76 124.063 153.4C124.969 153.027 125.963 152.84 127.043 152.84C128.016 152.84 128.863 153 129.583 153.32C130.303 153.627 130.856 154.073 131.243 154.66C131.643 155.247 131.843 155.94 131.843 156.74C131.843 157.193 131.783 157.64 131.663 158.08C131.543 158.52 131.316 158.987 130.983 159.48C130.649 159.973 130.169 160.527 129.543 161.14L124.463 166.04L123.983 165.26H132.443V167H122.383ZM132.762 169L139.362 150.16H141.102L134.502 169H132.762ZM146.643 167.16C145.55 167.16 144.57 166.88 143.703 166.32C142.85 165.76 142.17 164.947 141.663 163.88C141.17 162.813 140.923 161.52 140.923 160C140.923 158.48 141.17 157.187 141.663 156.12C142.17 155.053 142.85 154.24 143.703 153.68C144.57 153.12 145.55 152.84 146.643 152.84C147.723 152.84 148.696 153.12 149.563 153.68C150.43 154.24 151.11 155.053 151.603 156.12C152.096 157.187 152.343 158.48 152.343 160C152.343 161.52 152.096 162.813 151.603 163.88C151.11 164.947 150.43 165.76 149.563 166.32C148.696 166.88 147.723 167.16 146.643 167.16ZM146.643 165.38C147.376 165.38 148.016 165.18 148.563 164.78C149.123 164.38 149.556 163.78 149.863 162.98C150.183 162.18 150.343 161.187 150.343 160C150.343 158.813 150.183 157.82 149.863 157.02C149.556 156.22 149.123 155.62 148.563 155.22C148.016 154.82 147.376 154.62 146.643 154.62C145.91 154.62 145.263 154.82 144.703 155.22C144.143 155.62 143.703 156.22 143.383 157.02C143.076 157.82 142.923 158.813 142.923 160C142.923 161.187 143.076 162.18 143.383 162.98C143.703 163.78 144.143 164.38 144.703 164.78C145.263 165.18 145.91 165.38 146.643 165.38ZM158.803 152.84C160.069 152.84 161.136 153.113 162.003 153.66C162.883 154.207 163.549 155 164.003 156.04C164.456 157.067 164.683 158.327 164.683 159.82C164.683 161.407 164.403 162.747 163.843 163.84C163.283 164.933 162.509 165.76 161.523 166.32C160.536 166.88 159.383 167.16 158.063 167.16C157.409 167.16 156.776 167.093 156.163 166.96C155.563 166.827 155.036 166.62 154.583 166.34L155.343 164.78C155.716 165.02 156.129 165.193 156.583 165.3C157.049 165.393 157.536 165.44 158.043 165.44C159.456 165.44 160.583 165 161.423 164.12C162.263 163.227 162.683 161.907 162.683 160.16C162.683 159.88 162.669 159.547 162.643 159.16C162.616 158.773 162.556 158.393 162.463 158.02L163.123 158.7C162.936 159.313 162.623 159.833 162.183 160.26C161.756 160.673 161.236 160.987 160.623 161.2C160.023 161.4 159.363 161.5 158.643 161.5C157.723 161.5 156.903 161.327 156.183 160.98C155.463 160.633 154.896 160.147 154.483 159.52C154.069 158.88 153.863 158.127 153.863 157.26C153.863 156.353 154.076 155.573 154.503 154.92C154.943 154.253 155.536 153.74 156.283 153.38C157.043 153.02 157.883 152.84 158.803 152.84ZM158.883 154.46C158.283 154.46 157.749 154.573 157.283 154.8C156.816 155.027 156.449 155.34 156.183 155.74C155.929 156.14 155.803 156.62 155.803 157.18C155.803 158.007 156.089 158.667 156.663 159.16C157.236 159.64 158.009 159.88 158.983 159.88C159.623 159.88 160.183 159.76 160.663 159.52C161.156 159.28 161.536 158.953 161.803 158.54C162.083 158.127 162.223 157.667 162.223 157.16C162.223 156.667 162.096 156.22 161.843 155.82C161.589 155.42 161.216 155.093 160.723 154.84C160.229 154.587 159.616 154.46 158.883 154.46Z" fill="#505050"/>
</svg>
