<svg width="250" height="250" viewBox="0 0 250 250" fill="none" xmlns="http://www.w3.org/2000/svg">
<circle cx="125" cy="125" r="120.5" stroke="#27A2BB" stroke-width="9"/>
<path d="M99.2 81.64L100.64 81.28V65.92L99.2 65.56V65.2H105.56C108.28 65.2 110.24 65.616 111.44 66.448C112.64 67.264 113.24 68.408 113.24 69.88C113.24 70.872 112.976 71.68 112.448 72.304C111.92 72.912 111.24 73.368 110.408 73.672C109.528 74.008 108.592 74.184 107.6 74.2V74.32C108.192 74.352 108.712 74.44 109.16 74.584C110.28 74.936 111.04 75.568 111.44 76.48L113.6 81.28L114.8 81.64V82H111.44C110.128 82 109.168 81.32 108.56 79.96L106.16 74.56H104.6V81.28L106.28 81.64V82H99.2V81.64ZM105.56 73.96C106.68 73.96 107.56 73.608 108.2 72.904C108.84 72.2 109.16 71.192 109.16 69.88C109.16 68.568 108.84 67.56 108.2 66.856C107.56 66.152 106.68 65.8 105.56 65.8H104.6V73.96H105.56ZM122.125 82.36C120.141 82.36 118.581 81.8 117.445 80.68C116.325 79.544 115.765 77.984 115.765 76C115.765 74.016 116.325 72.464 117.445 71.344C118.581 70.208 120.141 69.64 122.125 69.64C124.109 69.64 125.661 70.208 126.781 71.344C127.917 72.464 128.485 74.016 128.485 76C128.485 77.984 127.917 79.544 126.781 80.68C125.661 81.8 124.109 82.36 122.125 82.36ZM122.125 81.88C122.765 81.88 123.301 81.432 123.733 80.536C124.181 79.64 124.405 78.128 124.405 76C124.405 73.872 124.181 72.36 123.733 71.464C123.301 70.568 122.765 70.12 122.125 70.12C121.485 70.12 120.941 70.568 120.493 71.464C120.061 72.36 119.845 73.872 119.845 76C119.845 78.128 120.061 79.64 120.493 80.536C120.941 81.432 121.485 81.88 122.125 81.88ZM130.413 81.64L131.853 81.28V65.92L130.413 65.56V65.2H133.533C134.973 65.2 135.693 65.92 135.693 67.36V81.28L137.133 81.64V82H130.413V81.64ZM145.049 82.36C143.001 82.36 141.409 81.8 140.273 80.68C139.137 79.544 138.569 77.984 138.569 76C138.569 74.704 138.817 73.576 139.313 72.616C139.809 71.656 140.497 70.92 141.377 70.408C142.273 69.896 143.297 69.64 144.449 69.64C145.601 69.64 146.609 69.856 147.473 70.288C148.353 70.72 149.025 71.304 149.489 72.04C149.969 72.76 150.209 73.56 150.209 74.44C150.209 74.84 150.169 75.184 150.089 75.472L149.969 75.88C149.281 76.024 148.537 76.144 147.737 76.24C146.057 76.48 144.361 76.6 142.649 76.6C142.649 78.456 142.905 79.784 143.417 80.584C143.929 81.368 144.633 81.76 145.529 81.76C146.153 81.76 146.729 81.616 147.257 81.328C147.801 81.024 148.225 80.632 148.529 80.152C148.849 79.656 149.009 79.152 149.009 78.64H149.609C149.609 79.28 149.417 79.888 149.033 80.464C148.649 81.04 148.113 81.504 147.425 81.856C146.737 82.192 145.945 82.36 145.049 82.36ZM142.649 76C143.673 76 144.505 75.96 145.145 75.88C145.417 75.864 145.705 75.824 146.009 75.76C146.025 75.68 146.065 75.504 146.129 75.232C146.209 74.832 146.249 74.408 146.249 73.96C146.249 72.632 146.073 71.664 145.721 71.056C145.369 70.432 144.945 70.12 144.449 70.12C143.249 70.12 142.649 72.08 142.649 76Z" fill="#505050"/>
<path d="M74.9 123.62H82.12V125.34H74.9V123.62ZM75.1 131H73.1V117H82.98V118.74H75.1V131ZM85.32 131V120.4H87.16V123.28L86.98 122.56C87.2733 121.827 87.7667 121.267 88.46 120.88C89.1533 120.493 90.0067 120.3 91.02 120.3V122.16C90.94 122.147 90.86 122.14 90.78 122.14C90.7133 122.14 90.6467 122.14 90.58 122.14C89.5533 122.14 88.74 122.447 88.14 123.06C87.54 123.673 87.24 124.56 87.24 125.72V131H85.32ZM97.8288 131.12C96.7621 131.12 95.8154 130.887 94.9888 130.42C94.1621 129.953 93.5088 129.313 93.0288 128.5C92.5488 127.673 92.3088 126.74 92.3088 125.7C92.3088 124.647 92.5488 123.713 93.0288 122.9C93.5088 122.087 94.1621 121.453 94.9888 121C95.8154 120.533 96.7621 120.3 97.8288 120.3C98.8821 120.3 99.8221 120.533 100.649 121C101.489 121.453 102.142 122.087 102.609 122.9C103.089 123.7 103.329 124.633 103.329 125.7C103.329 126.753 103.089 127.687 102.609 128.5C102.142 129.313 101.489 129.953 100.649 130.42C99.8221 130.887 98.8821 131.12 97.8288 131.12ZM97.8288 129.44C98.5088 129.44 99.1154 129.287 99.6488 128.98C100.195 128.673 100.622 128.24 100.929 127.68C101.235 127.107 101.389 126.447 101.389 125.7C101.389 124.94 101.235 124.287 100.929 123.74C100.622 123.18 100.195 122.747 99.6488 122.44C99.1154 122.133 98.5088 121.98 97.8288 121.98C97.1488 121.98 96.5421 122.133 96.0088 122.44C95.4754 122.747 95.0488 123.18 94.7288 123.74C94.4088 124.287 94.2488 124.94 94.2488 125.7C94.2488 126.447 94.4088 127.107 94.7288 127.68C95.0488 128.24 95.4754 128.673 96.0088 128.98C96.5421 129.287 97.1488 129.44 97.8288 129.44ZM111.644 120.3C112.511 120.3 113.271 120.467 113.924 120.8C114.591 121.133 115.111 121.64 115.484 122.32C115.857 123 116.044 123.86 116.044 124.9V131H114.124V125.12C114.124 124.093 113.871 123.32 113.364 122.8C112.871 122.28 112.171 122.02 111.264 122.02C110.584 122.02 109.991 122.153 109.484 122.42C108.977 122.687 108.584 123.08 108.304 123.6C108.037 124.12 107.904 124.767 107.904 125.54V131H105.984V120.4H107.824V123.26L107.524 122.5C107.871 121.807 108.404 121.267 109.124 120.88C109.844 120.493 110.684 120.3 111.644 120.3ZM123.237 131.12C122.171 131.12 121.344 130.833 120.757 130.26C120.171 129.687 119.877 128.867 119.877 127.8V118.08H121.797V127.72C121.797 128.293 121.937 128.733 122.217 129.04C122.511 129.347 122.924 129.5 123.457 129.5C124.057 129.5 124.557 129.333 124.957 129L125.557 130.38C125.264 130.633 124.911 130.82 124.497 130.94C124.097 131.06 123.677 131.12 123.237 131.12ZM118.077 121.98V120.4H124.837V121.98H118.077ZM127.003 126.34V124.68H132.383V126.34H127.003ZM140.255 131.12C139.122 131.12 138.122 130.887 137.255 130.42C136.402 129.953 135.735 129.313 135.255 128.5C134.788 127.687 134.555 126.753 134.555 125.7C134.555 124.647 134.782 123.713 135.235 122.9C135.702 122.087 136.335 121.453 137.135 121C137.948 120.533 138.862 120.3 139.875 120.3C140.902 120.3 141.808 120.527 142.595 120.98C143.382 121.433 143.995 122.073 144.435 122.9C144.888 123.713 145.115 124.667 145.115 125.76C145.115 125.84 145.108 125.933 145.095 126.04C145.095 126.147 145.088 126.247 145.075 126.34H136.055V124.96H144.075L143.295 125.44C143.308 124.76 143.168 124.153 142.875 123.62C142.582 123.087 142.175 122.673 141.655 122.38C141.148 122.073 140.555 121.92 139.875 121.92C139.208 121.92 138.615 122.073 138.095 122.38C137.575 122.673 137.168 123.093 136.875 123.64C136.582 124.173 136.435 124.787 136.435 125.48V125.8C136.435 126.507 136.595 127.14 136.915 127.7C137.248 128.247 137.708 128.673 138.295 128.98C138.882 129.287 139.555 129.44 140.315 129.44C140.942 129.44 141.508 129.333 142.015 129.12C142.535 128.907 142.988 128.587 143.375 128.16L144.435 129.4C143.955 129.96 143.355 130.387 142.635 130.68C141.928 130.973 141.135 131.12 140.255 131.12ZM153.441 120.3C154.308 120.3 155.068 120.467 155.721 120.8C156.388 121.133 156.908 121.64 157.281 122.32C157.654 123 157.841 123.86 157.841 124.9V131H155.921V125.12C155.921 124.093 155.668 123.32 155.161 122.8C154.668 122.28 153.968 122.02 153.061 122.02C152.381 122.02 151.788 122.153 151.281 122.42C150.774 122.687 150.381 123.08 150.101 123.6C149.834 124.12 149.701 124.767 149.701 125.54V131H147.781V120.4H149.621V123.26L149.321 122.5C149.668 121.807 150.201 121.267 150.921 120.88C151.641 120.493 152.481 120.3 153.441 120.3ZM165.774 131.12C164.748 131.12 163.828 130.893 163.014 130.44C162.214 129.987 161.581 129.353 161.114 128.54C160.648 127.727 160.414 126.78 160.414 125.7C160.414 124.62 160.648 123.68 161.114 122.88C161.581 122.067 162.214 121.433 163.014 120.98C163.828 120.527 164.748 120.3 165.774 120.3C166.668 120.3 167.474 120.5 168.194 120.9C168.914 121.3 169.488 121.9 169.914 122.7C170.354 123.5 170.574 124.5 170.574 125.7C170.574 126.9 170.361 127.9 169.934 128.7C169.521 129.5 168.954 130.107 168.234 130.52C167.514 130.92 166.694 131.12 165.774 131.12ZM165.934 129.44C166.601 129.44 167.201 129.287 167.734 128.98C168.281 128.673 168.708 128.24 169.014 127.68C169.334 127.107 169.494 126.447 169.494 125.7C169.494 124.94 169.334 124.287 169.014 123.74C168.708 123.18 168.281 122.747 167.734 122.44C167.201 122.133 166.601 121.98 165.934 121.98C165.254 121.98 164.648 122.133 164.114 122.44C163.581 122.747 163.154 123.18 162.834 123.74C162.514 124.287 162.354 124.94 162.354 125.7C162.354 126.447 162.514 127.107 162.834 127.68C163.154 128.24 163.581 128.673 164.114 128.98C164.648 129.287 165.254 129.44 165.934 129.44ZM169.554 131V128.14L169.674 125.68L169.474 123.22V116.16H171.394V131H169.554ZM77.2 161.12C76.1733 161.12 75.2533 160.893 74.44 160.44C73.64 159.987 73.0067 159.353 72.54 158.54C72.0733 157.727 71.84 156.78 71.84 155.7C71.84 154.62 72.0733 153.68 72.54 152.88C73.0067 152.067 73.64 151.433 74.44 150.98C75.2533 150.527 76.1733 150.3 77.2 150.3C78.0933 150.3 78.9 150.5 79.62 150.9C80.34 151.3 80.9133 151.9 81.34 152.7C81.78 153.5 82 154.5 82 155.7C82 156.9 81.7867 157.9 81.36 158.7C80.9467 159.5 80.38 160.107 79.66 160.52C78.94 160.92 78.12 161.12 77.2 161.12ZM77.36 159.44C78.0267 159.44 78.6267 159.287 79.16 158.98C79.7067 158.673 80.1333 158.24 80.44 157.68C80.76 157.107 80.92 156.447 80.92 155.7C80.92 154.94 80.76 154.287 80.44 153.74C80.1333 153.18 79.7067 152.747 79.16 152.44C78.6267 152.133 78.0267 151.98 77.36 151.98C76.68 151.98 76.0733 152.133 75.54 152.44C75.0067 152.747 74.58 153.18 74.26 153.74C73.94 154.287 73.78 154.94 73.78 155.7C73.78 156.447 73.94 157.107 74.26 157.68C74.58 158.24 75.0067 158.673 75.54 158.98C76.0733 159.287 76.68 159.44 77.36 159.44ZM80.98 161V158.14L81.1 155.68L80.9 153.22V146.16H82.82V161H80.98ZM91.1728 161.12C90.0395 161.12 89.0395 160.887 88.1728 160.42C87.3195 159.953 86.6528 159.313 86.1728 158.5C85.7061 157.687 85.4728 156.753 85.4728 155.7C85.4728 154.647 85.6995 153.713 86.1528 152.9C86.6195 152.087 87.2528 151.453 88.0528 151C88.8661 150.533 89.7795 150.3 90.7928 150.3C91.8195 150.3 92.7261 150.527 93.5128 150.98C94.2995 151.433 94.9128 152.073 95.3528 152.9C95.8061 153.713 96.0328 154.667 96.0328 155.76C96.0328 155.84 96.0261 155.933 96.0128 156.04C96.0128 156.147 96.0061 156.247 95.9928 156.34H86.9728V154.96H94.9928L94.2128 155.44C94.2261 154.76 94.0861 154.153 93.7928 153.62C93.4995 153.087 93.0928 152.673 92.5728 152.38C92.0661 152.073 91.4728 151.92 90.7928 151.92C90.1261 151.92 89.5328 152.073 89.0128 152.38C88.4928 152.673 88.0861 153.093 87.7928 153.64C87.4995 154.173 87.3528 154.787 87.3528 155.48V155.8C87.3528 156.507 87.5128 157.14 87.8328 157.7C88.1661 158.247 88.6261 158.673 89.2128 158.98C89.7995 159.287 90.4728 159.44 91.2328 159.44C91.8595 159.44 92.4261 159.333 92.9328 159.12C93.4528 158.907 93.9061 158.587 94.2928 158.16L95.3528 159.4C94.8728 159.96 94.2728 160.387 93.5528 160.68C92.8461 160.973 92.0528 161.12 91.1728 161.12ZM101.284 161L96.6436 150.4H98.6436L102.764 160H101.804L106.004 150.4H107.884L103.244 161H101.284ZM114.103 161.12C112.969 161.12 111.969 160.887 111.103 160.42C110.249 159.953 109.583 159.313 109.103 158.5C108.636 157.687 108.403 156.753 108.403 155.7C108.403 154.647 108.629 153.713 109.083 152.9C109.549 152.087 110.183 151.453 110.983 151C111.796 150.533 112.709 150.3 113.723 150.3C114.749 150.3 115.656 150.527 116.443 150.98C117.229 151.433 117.843 152.073 118.283 152.9C118.736 153.713 118.963 154.667 118.963 155.76C118.963 155.84 118.956 155.933 118.943 156.04C118.943 156.147 118.936 156.247 118.923 156.34H109.903V154.96H117.923L117.143 155.44C117.156 154.76 117.016 154.153 116.723 153.62C116.429 153.087 116.023 152.673 115.503 152.38C114.996 152.073 114.403 151.92 113.723 151.92C113.056 151.92 112.463 152.073 111.943 152.38C111.423 152.673 111.016 153.093 110.723 153.64C110.429 154.173 110.283 154.787 110.283 155.48V155.8C110.283 156.507 110.443 157.14 110.763 157.7C111.096 158.247 111.556 158.673 112.143 158.98C112.729 159.287 113.403 159.44 114.163 159.44C114.789 159.44 115.356 159.333 115.863 159.12C116.383 158.907 116.836 158.587 117.223 158.16L118.283 159.4C117.803 159.96 117.203 160.387 116.483 160.68C115.776 160.973 114.983 161.12 114.103 161.12ZM121.629 161V146.16H123.549V161H121.629ZM131.755 161.12C130.688 161.12 129.741 160.887 128.915 160.42C128.088 159.953 127.435 159.313 126.955 158.5C126.475 157.673 126.235 156.74 126.235 155.7C126.235 154.647 126.475 153.713 126.955 152.9C127.435 152.087 128.088 151.453 128.915 151C129.741 150.533 130.688 150.3 131.755 150.3C132.808 150.3 133.748 150.533 134.575 151C135.415 151.453 136.068 152.087 136.535 152.9C137.015 153.7 137.255 154.633 137.255 155.7C137.255 156.753 137.015 157.687 136.535 158.5C136.068 159.313 135.415 159.953 134.575 160.42C133.748 160.887 132.808 161.12 131.755 161.12ZM131.755 159.44C132.435 159.44 133.041 159.287 133.575 158.98C134.121 158.673 134.548 158.24 134.855 157.68C135.161 157.107 135.315 156.447 135.315 155.7C135.315 154.94 135.161 154.287 134.855 153.74C134.548 153.18 134.121 152.747 133.575 152.44C133.041 152.133 132.435 151.98 131.755 151.98C131.075 151.98 130.468 152.133 129.935 152.44C129.401 152.747 128.975 153.18 128.655 153.74C128.335 154.287 128.175 154.94 128.175 155.7C128.175 156.447 128.335 157.107 128.655 157.68C128.975 158.24 129.401 158.673 129.935 158.98C130.468 159.287 131.075 159.44 131.755 159.44ZM145.53 161.12C144.65 161.12 143.843 160.92 143.11 160.52C142.39 160.107 141.81 159.5 141.37 158.7C140.943 157.9 140.73 156.9 140.73 155.7C140.73 154.5 140.937 153.5 141.35 152.7C141.777 151.9 142.35 151.3 143.07 150.9C143.803 150.5 144.623 150.3 145.53 150.3C146.57 150.3 147.49 150.527 148.29 150.98C149.09 151.433 149.723 152.067 150.19 152.88C150.657 153.68 150.89 154.62 150.89 155.7C150.89 156.78 150.657 157.727 150.19 158.54C149.723 159.353 149.09 159.987 148.29 160.44C147.49 160.893 146.57 161.12 145.53 161.12ZM139.91 164.88V150.4H141.75V153.26L141.63 155.72L141.83 158.18V164.88H139.91ZM145.37 159.44C146.05 159.44 146.657 159.287 147.19 158.98C147.737 158.673 148.163 158.24 148.47 157.68C148.79 157.107 148.95 156.447 148.95 155.7C148.95 154.94 148.79 154.287 148.47 153.74C148.163 153.18 147.737 152.747 147.19 152.44C146.657 152.133 146.05 151.98 145.37 151.98C144.703 151.98 144.097 152.133 143.55 152.44C143.017 152.747 142.59 153.18 142.27 153.74C141.963 154.287 141.81 154.94 141.81 155.7C141.81 156.447 141.963 157.107 142.27 157.68C142.59 158.24 143.017 158.673 143.55 158.98C144.097 159.287 144.703 159.44 145.37 159.44ZM158.263 161.12C157.129 161.12 156.129 160.887 155.263 160.42C154.409 159.953 153.743 159.313 153.263 158.5C152.796 157.687 152.563 156.753 152.563 155.7C152.563 154.647 152.789 153.713 153.243 152.9C153.709 152.087 154.343 151.453 155.143 151C155.956 150.533 156.869 150.3 157.883 150.3C158.909 150.3 159.816 150.527 160.603 150.98C161.389 151.433 162.003 152.073 162.443 152.9C162.896 153.713 163.123 154.667 163.123 155.76C163.123 155.84 163.116 155.933 163.103 156.04C163.103 156.147 163.096 156.247 163.083 156.34H154.063V154.96H162.083L161.303 155.44C161.316 154.76 161.176 154.153 160.883 153.62C160.589 153.087 160.183 152.673 159.663 152.38C159.156 152.073 158.563 151.92 157.883 151.92C157.216 151.92 156.623 152.073 156.103 152.38C155.583 152.673 155.176 153.093 154.883 153.64C154.589 154.173 154.443 154.787 154.443 155.48V155.8C154.443 156.507 154.603 157.14 154.923 157.7C155.256 158.247 155.716 158.673 156.303 158.98C156.889 159.287 157.563 159.44 158.323 159.44C158.949 159.44 159.516 159.333 160.023 159.12C160.543 158.907 160.996 158.587 161.383 158.16L162.443 159.4C161.963 159.96 161.363 160.387 160.643 160.68C159.936 160.973 159.143 161.12 158.263 161.12ZM165.789 161V150.4H167.629V153.28L167.449 152.56C167.742 151.827 168.235 151.267 168.929 150.88C169.622 150.493 170.475 150.3 171.489 150.3V152.16C171.409 152.147 171.329 152.14 171.249 152.14C171.182 152.14 171.115 152.14 171.049 152.14C170.022 152.14 169.209 152.447 168.609 153.06C168.009 153.673 167.709 154.56 167.709 155.72V161H165.789Z" fill="#505050"/>
</svg>
