<svg width="250" height="250" viewBox="0 0 250 250" fill="none" xmlns="http://www.w3.org/2000/svg">
<circle cx="125" cy="125" r="120.5" stroke="#F4B076" stroke-width="9"/>
<path d="M97.2 87.64L98.64 87.28V71.8H95.88C95.88 72.776 95.616 73.712 95.088 74.608C94.864 74.976 94.608 75.28 94.32 75.52H93.6V71.2H107.64V75.52H106.92C106.616 75.28 106.352 74.976 106.128 74.608C105.616 73.744 105.36 72.808 105.36 71.8H102.6V87.28L104.04 87.64V88H97.2V87.64ZM114.359 88.36C112.375 88.36 110.815 87.8 109.679 86.68C108.559 85.544 107.999 83.984 107.999 82C107.999 80.016 108.559 78.464 109.679 77.344C110.815 76.208 112.375 75.64 114.359 75.64C116.343 75.64 117.895 76.208 119.015 77.344C120.151 78.464 120.719 80.016 120.719 82C120.719 83.984 120.151 85.544 119.015 86.68C117.895 87.8 116.343 88.36 114.359 88.36ZM114.359 87.88C114.999 87.88 115.535 87.432 115.967 86.536C116.415 85.64 116.639 84.128 116.639 82C116.639 79.872 116.415 78.36 115.967 77.464C115.535 76.568 114.999 76.12 114.359 76.12C113.719 76.12 113.175 76.568 112.727 77.464C112.295 78.36 112.079 79.872 112.079 82C112.079 84.128 112.295 85.64 112.727 86.536C113.175 87.432 113.719 87.88 114.359 87.88ZM129.008 88.36C127.024 88.36 125.464 87.8 124.328 86.68C123.208 85.544 122.648 83.984 122.648 82C122.648 80.016 123.208 78.464 124.328 77.344C125.464 76.208 127.024 75.64 129.008 75.64C130.992 75.64 132.544 76.208 133.664 77.344C134.8 78.464 135.368 80.016 135.368 82C135.368 83.984 134.8 85.544 133.664 86.68C132.544 87.8 130.992 88.36 129.008 88.36ZM129.008 87.88C129.648 87.88 130.184 87.432 130.616 86.536C131.064 85.64 131.288 84.128 131.288 82C131.288 79.872 131.064 78.36 130.616 77.464C130.184 76.568 129.648 76.12 129.008 76.12C128.368 76.12 127.824 76.568 127.376 77.464C126.944 78.36 126.728 79.872 126.728 82C126.728 84.128 126.944 85.64 127.376 86.536C127.824 87.432 128.368 87.88 129.008 87.88ZM137.296 87.64L138.736 87.28V71.92L137.296 71.56V71.2H140.416C141.856 71.2 142.576 71.92 142.576 73.36V87.28L144.016 87.64V88H137.296V87.64ZM151.092 88.36C150.1 88.36 149.212 88.144 148.428 87.712C148.044 87.504 147.732 87.28 147.492 87.04C147.236 87.392 146.956 87.664 146.652 87.856C146.508 87.952 146.348 88.04 146.172 88.12H145.572V84.04H146.532C146.74 84.712 147.044 85.336 147.444 85.912C148.292 87.144 149.348 87.76 150.612 87.76C151.284 87.76 151.788 87.6 152.124 87.28C152.476 86.944 152.652 86.464 152.652 85.84C152.652 85.312 152.412 84.872 151.932 84.52C151.468 84.152 150.732 83.704 149.724 83.176C148.86 82.744 148.156 82.36 147.612 82.024C147.084 81.672 146.628 81.24 146.244 80.728C145.876 80.2 145.692 79.584 145.692 78.88C145.692 77.92 146.1 77.144 146.916 76.552C147.748 75.944 149.02 75.64 150.732 75.64C151.58 75.64 152.364 75.864 153.084 76.312C153.436 76.52 153.74 76.736 153.996 76.96C154.204 76.672 154.484 76.4 154.836 76.144C155.108 75.984 155.268 75.896 155.316 75.88H155.916V79.96H154.956C154.716 79.272 154.42 78.656 154.068 78.112C153.268 76.864 152.316 76.24 151.212 76.24C150.78 76.24 150.412 76.4 150.108 76.72C149.804 77.04 149.652 77.44 149.652 77.92C149.652 78.528 149.908 79.04 150.42 79.456C150.932 79.856 151.708 80.32 152.748 80.848C153.596 81.28 154.268 81.664 154.764 82C155.276 82.32 155.708 82.72 156.06 83.2C156.428 83.68 156.612 84.24 156.612 84.88C156.612 87.2 154.772 88.36 151.092 88.36Z" fill="#505050"/>
<path d="M108.167 123H110.167V137H108.167V123ZM100.127 137H98.1273V123H100.127V137ZM108.347 130.76H99.9273V129.02H108.347V130.76ZM117.138 137V124.74H112.338V123H123.918V124.74H119.118V137H117.138ZM126.096 137V123H127.736L134.016 133.58H133.136L139.336 123H140.976L140.996 137H139.076L139.056 126.02H139.516L133.996 135.3H133.076L127.516 126.02H128.016V137H126.096ZM145.198 137V123H147.198V135.26H154.778V137H145.198ZM114.221 167.16C113.155 167.16 112.168 166.987 111.261 166.64C110.368 166.28 109.588 165.78 108.921 165.14C108.268 164.487 107.755 163.727 107.381 162.86C107.008 161.993 106.821 161.04 106.821 160C106.821 158.96 107.008 158.007 107.381 157.14C107.755 156.273 108.275 155.52 108.941 154.88C109.608 154.227 110.388 153.727 111.281 153.38C112.188 153.02 113.175 152.84 114.241 152.84C115.321 152.84 116.315 153.027 117.221 153.4C118.141 153.76 118.921 154.3 119.561 155.02L118.261 156.28C117.728 155.72 117.128 155.307 116.461 155.04C115.795 154.76 115.081 154.62 114.321 154.62C113.535 154.62 112.801 154.753 112.121 155.02C111.455 155.287 110.875 155.66 110.381 156.14C109.888 156.62 109.501 157.193 109.221 157.86C108.955 158.513 108.821 159.227 108.821 160C108.821 160.773 108.955 161.493 109.221 162.16C109.501 162.813 109.888 163.38 110.381 163.86C110.875 164.34 111.455 164.713 112.121 164.98C112.801 165.247 113.535 165.38 114.321 165.38C115.081 165.38 115.795 165.247 116.461 164.98C117.128 164.7 117.728 164.273 118.261 163.7L119.561 164.96C118.921 165.68 118.141 166.227 117.221 166.6C116.315 166.973 115.315 167.16 114.221 167.16ZM126.475 167.16C125.408 167.16 124.388 167 123.415 166.68C122.442 166.347 121.675 165.92 121.115 165.4L121.855 163.84C122.388 164.307 123.068 164.693 123.895 165C124.722 165.307 125.582 165.46 126.475 165.46C127.288 165.46 127.948 165.367 128.455 165.18C128.962 164.993 129.335 164.74 129.575 164.42C129.815 164.087 129.935 163.713 129.935 163.3C129.935 162.82 129.775 162.433 129.455 162.14C129.148 161.847 128.742 161.613 128.235 161.44C127.742 161.253 127.195 161.093 126.595 160.96C125.995 160.827 125.388 160.673 124.775 160.5C124.175 160.313 123.622 160.08 123.115 159.8C122.622 159.52 122.222 159.147 121.915 158.68C121.608 158.2 121.455 157.587 121.455 156.84C121.455 156.12 121.642 155.46 122.015 154.86C122.402 154.247 122.988 153.76 123.775 153.4C124.575 153.027 125.588 152.84 126.815 152.84C127.628 152.84 128.435 152.947 129.235 153.16C130.035 153.373 130.728 153.68 131.315 154.08L130.655 155.68C130.055 155.28 129.422 154.993 128.755 154.82C128.088 154.633 127.442 154.54 126.815 154.54C126.028 154.54 125.382 154.64 124.875 154.84C124.368 155.04 123.995 155.307 123.755 155.64C123.528 155.973 123.415 156.347 123.415 156.76C123.415 157.253 123.568 157.647 123.875 157.94C124.195 158.233 124.602 158.467 125.095 158.64C125.602 158.813 126.155 158.973 126.755 159.12C127.355 159.253 127.955 159.407 128.555 159.58C129.168 159.753 129.722 159.98 130.215 160.26C130.722 160.54 131.128 160.913 131.435 161.38C131.742 161.847 131.895 162.447 131.895 163.18C131.895 163.887 131.702 164.547 131.315 165.16C130.928 165.76 130.328 166.247 129.515 166.62C128.715 166.98 127.702 167.16 126.475 167.16ZM138.897 167.16C137.83 167.16 136.81 167 135.837 166.68C134.863 166.347 134.097 165.92 133.537 165.4L134.277 163.84C134.81 164.307 135.49 164.693 136.317 165C137.143 165.307 138.003 165.46 138.897 165.46C139.71 165.46 140.37 165.367 140.877 165.18C141.383 164.993 141.757 164.74 141.997 164.42C142.237 164.087 142.357 163.713 142.357 163.3C142.357 162.82 142.197 162.433 141.877 162.14C141.57 161.847 141.163 161.613 140.657 161.44C140.163 161.253 139.617 161.093 139.017 160.96C138.417 160.827 137.81 160.673 137.197 160.5C136.597 160.313 136.043 160.08 135.537 159.8C135.043 159.52 134.643 159.147 134.337 158.68C134.03 158.2 133.877 157.587 133.877 156.84C133.877 156.12 134.063 155.46 134.437 154.86C134.823 154.247 135.41 153.76 136.197 153.4C136.997 153.027 138.01 152.84 139.237 152.84C140.05 152.84 140.857 152.947 141.657 153.16C142.457 153.373 143.15 153.68 143.737 154.08L143.077 155.68C142.477 155.28 141.843 154.993 141.177 154.82C140.51 154.633 139.863 154.54 139.237 154.54C138.45 154.54 137.803 154.64 137.297 154.84C136.79 155.04 136.417 155.307 136.177 155.64C135.95 155.973 135.837 156.347 135.837 156.76C135.837 157.253 135.99 157.647 136.297 157.94C136.617 158.233 137.023 158.467 137.517 158.64C138.023 158.813 138.577 158.973 139.177 159.12C139.777 159.253 140.377 159.407 140.977 159.58C141.59 159.753 142.143 159.98 142.637 160.26C143.143 160.54 143.55 160.913 143.857 161.38C144.163 161.847 144.317 162.447 144.317 163.18C144.317 163.887 144.123 164.547 143.737 165.16C143.35 165.76 142.75 166.247 141.937 166.62C141.137 166.98 140.123 167.16 138.897 167.16Z" fill="#505050"/>
</svg>
